<?xml version="1.0" encoding="UTF-8"?>
<svg version="1.1" xmlns="http://www.w3.org/2000/svg" width="380" height="188">
<path d="M0 0 C3.63 0 7.26 0 11 0 C11.01401855 1.4226416 11.01401855 1.4226416 11.02832031 2.87402344 C11.07239231 6.40064758 11.13402783 9.92606203 11.20751953 13.45214844 C11.23570535 14.97677431 11.25693189 16.50154566 11.27099609 18.02636719 C11.29246049 20.22145936 11.33912169 22.41480711 11.390625 24.609375 C11.41157227 25.92905273 11.43251953 27.24873047 11.45410156 28.60839844 C12.07656578 32.47569401 12.8981696 33.68948965 16 36 C18.21652951 36.51619959 18.21652951 36.51619959 20.5 36.3125 C21.2528125 36.28800781 22.005625 36.26351562 22.78125 36.23828125 C24.93423653 36.00706263 26.91701479 35.58228905 29 35 C30.12001993 31.36050205 30.1877925 27.87526242 30.28125 24.08203125 C30.29965942 23.42418137 30.31806885 22.76633148 30.33703613 22.08854675 C30.41550147 19.28355669 30.48373951 16.47834416 30.55224609 13.6730957 C30.60383064 11.62178167 30.66109858 9.57068227 30.71875 7.51953125 C30.74904297 6.29339111 30.77933594 5.06725098 30.81054688 3.80395508 C31 1 31 1 32 0 C33.51928038 -0.07179964 35.04167482 -0.08392007 36.5625 -0.0625 C37.38878906 -0.05347656 38.21507812 -0.04445313 39.06640625 -0.03515625 C39.70449219 -0.02355469 40.34257812 -0.01195313 41 0 C41.07615491 7.43808422 41.12864414 14.87606763 41.16479492 22.31445312 C41.17986786 24.84411374 41.20032961 27.37374829 41.22631836 29.90332031 C41.26276616 33.54238323 41.2797417 37.18110016 41.29296875 40.8203125 C41.30845261 41.94865509 41.32393646 43.07699768 41.33988953 44.23953247 C41.34126854 50.69448207 41.0860323 55.60947918 36.53515625 60.609375 C30.93607567 64.94606341 27.35845436 66.3897802 20.25 66.375 C19.17963501 66.3747583 19.17963501 66.3747583 18.08764648 66.37451172 C12.3134401 66.24925778 8.70820336 65.26691662 4 62 C2.79727181 59.59454362 2.89928528 58.05003047 2.9375 55.375 C2.94652344 54.55773437 2.95554687 53.74046875 2.96484375 52.8984375 C2.97644531 52.27195313 2.98804688 51.64546875 3 51 C9 53 9 53 11.8125 54.125 C17.05085829 55.56298071 21.88392694 55.90045662 26.9375 53.75 C29.14801199 51.87441407 30.11115513 50.74733868 31 48 C31.16750414 45.33290931 31.16750414 45.33290931 31 43 C30.38125 43.639375 29.7625 44.27875 29.125 44.9375 C24.34248575 48.0939594 19.37660672 48.66242458 13.75 47.55859375 C7.85169018 45.60366152 4.22814961 42.41164935 1.3815918 36.82202148 C-0.21625011 32.94355495 -0.38676453 29.25142154 -0.29296875 25.09765625 C-0.28872391 24.3750914 -0.28447906 23.65252655 -0.28010559 22.9080658 C-0.26346418 20.62581307 -0.22584248 18.34448067 -0.1875 16.0625 C-0.17243423 14.50457015 -0.15874916 12.9466263 -0.14648438 11.38867188 C-0.11360882 7.59209943 -0.0619309 3.79620513 0 0 Z " fill="#12A156" transform="translate(316,75)"/>
<path d="M0 0 C29.38461538 0 29.38461538 0 35.9375 5.4375 C36.9584375 6.7059375 36.9584375 6.7059375 38 8 C38.5775 8.70125 39.155 9.4025 39.75 10.125 C43.08766789 15.13150184 42.51952689 21.23398329 42 27 C40.30231264 32.93705524 37.03223024 36.57808344 32 40 C27.08720671 42.06854454 22.84684126 42.24678907 17.625 42.125 C13.850625 42.063125 13.850625 42.063125 10 42 C10 48.27 10 54.54 10 61 C6.7 61 3.4 61 0 61 C0 40.87 0 20.74 0 0 Z M10 10 C10 17.26 10 24.52 10 32 C12.371875 32.061875 14.74375 32.12375 17.1875 32.1875 C17.92508545 32.21481201 18.6626709 32.24212402 19.42260742 32.27026367 C23.827366 32.32558339 26.5179177 31.70828623 30 29 C31.96773084 25.06453832 31.45770331 20.29096856 31 16 C28.65385137 12.43732986 25.9729037 11.32618234 22 10 C18.87420806 9.75987081 18.87420806 9.75987081 15.6875 9.875 C13.810625 9.91625 11.93375 9.9575 10 10 Z " fill="#03AA51" transform="translate(218,61)"/>
<path d="M0 0 C6.11726946 2.70686193 10.09826941 7.96482221 12.50366211 14.09301758 C13.51595673 17.64856735 13.6847597 20.58990858 13.671875 24.28125 C13.66994141 25.56580078 13.66800781 26.85035156 13.66601562 28.17382812 C13.65671021 29.16419067 13.65671021 29.16419067 13.6472168 30.17456055 C13.62880061 32.21090022 13.62670851 34.24678831 13.62695312 36.28320312 C13.58173442 46.24639058 13.58173442 46.24639058 12.44140625 47.38671875 C10.92212587 47.45851839 9.39973143 47.47063882 7.87890625 47.44921875 C7.05261719 47.44019531 6.22632813 47.43117187 5.375 47.421875 C4.73691406 47.41027344 4.09882813 47.39867187 3.44140625 47.38671875 C2.94640625 44.41671875 2.94640625 44.41671875 2.44140625 41.38671875 C1.74015625 42.17046875 1.03890625 42.95421875 0.31640625 43.76171875 C-3.60457895 47.34174871 -6.66572095 48.17243126 -11.87109375 48.76171875 C-19.92376594 47.94280293 -24.99961322 44.60697219 -30.1484375 38.484375 C-34.69948918 31.71452803 -34.31441298 24.21829246 -33.55859375 16.38671875 C-31.60888647 9.13683633 -27.91778466 5.22502865 -21.546875 1.4453125 C-15.26440184 -1.89957989 -6.89390761 -1.65243282 0 0 Z M-20.55859375 13.38671875 C-23.59289097 17.83702133 -24.42862636 22.09731596 -23.55859375 27.38671875 C-22.12930867 32.14249471 -20.54443379 34.7610895 -16.30859375 37.44921875 C-11.65285119 38.61315439 -9.22575616 38.51587095 -4.55859375 37.38671875 C-1.02706824 35.16032223 0.90408389 33.2367673 2.44140625 29.38671875 C3.06800983 24.15530744 3.5951958 18.38034465 0.69140625 13.76171875 C-1.92553563 10.99939121 -3.9295455 9.64144266 -7.70703125 9.05078125 C-13.14748019 8.95533478 -16.36163457 9.58946997 -20.55859375 13.38671875 Z " fill="#06A951" transform="translate(296.55859375,74.61328125)"/>
<path d="M0 0 C2.5654594 2.5654594 2.54046087 4.47686668 3 8 C1.9790625 7.566875 1.9790625 7.566875 0.9375 7.125 C-0.031875 6.75375 -1.00125 6.3825 -2 6 C-2.969375 5.62875 -3.93875 5.2575 -4.9375 4.875 C-12.60124479 2.81683273 -21.24496031 2.72584029 -28.5 6.0625 C-35.17272151 9.9476043 -38.95169945 14.55079935 -41 22 C-42.03859713 30.61488987 -41.27813923 37.93266104 -36 45 C-30.6330605 50.50425992 -24.93748457 52.88433418 -17.33203125 53.0625 C-10.84216653 52.7760508 -5.88019825 51.41141073 -1 47 C2.59148744 41.97191759 3.05074603 35.98760194 4 30 C-2.93 30 -9.86 30 -17 30 C-17 28.02 -17 26.04 -17 24 C-8.42 24 0.16 24 9 24 C9.68480882 44.20186014 9.68480882 44.20186014 3.33984375 52.0546875 C-2.42168589 57.75706386 -9.02640517 59.79410733 -17.01953125 60.125 C-24.30283548 59.8258142 -29.83200962 57.80796449 -36 54 C-36.9075 53.443125 -37.815 52.88625 -38.75 52.3125 C-46.21583249 44.63928328 -48.36899331 36.73394079 -48.45532227 26.35791016 C-48.27574016 18.44378916 -45.53145367 12.06652241 -40.32421875 6.0703125 C-29.67913808 -3.76721032 -13.13002506 -6.68772304 0 0 Z " fill="#16A158" transform="translate(71,63)"/>
<path d="M0 0 C5.46281354 4.28878782 8.9113306 8.6853476 10.78125 15.3984375 C11.00830078 18.83349609 11.00830078 18.83349609 10.9765625 22.546875 C10.9737326 23.20426666 10.97090271 23.86165833 10.96798706 24.53897095 C10.95688447 26.61731983 10.93179986 28.69522116 10.90625 30.7734375 C10.89620731 32.19139998 10.88708373 33.60936929 10.87890625 35.02734375 C10.85697805 38.48451787 10.82251818 41.94143392 10.78125 45.3984375 C8.80125 45.3984375 6.82125 45.3984375 4.78125 45.3984375 C4.77714111 44.53154297 4.77303223 43.66464844 4.76879883 42.77148438 C4.74164991 39.52056384 4.69238792 36.27090143 4.62866211 33.02050781 C4.60562492 31.62023343 4.5911202 30.21978929 4.58569336 28.81933594 C4.57817352 17.16832146 4.57817352 17.16832146 -1.21875 7.3984375 C-5.61282824 4.05056837 -10.08923081 3.82678232 -15.4609375 3.98046875 C-21.01260685 4.82186906 -24.81513576 7.54204448 -28.15625 11.9609375 C-30.70403549 17.80585716 -31.07632833 23.39975662 -29.03125 29.5234375 C-26.89926203 34.64020863 -24.12689537 37.59114523 -18.96875 39.7734375 C-13.45118409 40.69303182 -8.51419117 40.16358456 -3.21875 38.3984375 C-3.03125 41.2734375 -3.03125 41.2734375 -3.21875 44.3984375 C-7.81821595 47.46474813 -12.34328779 47.84485629 -17.78515625 47 C-24.52783669 45.24999134 -29.67870464 42.34789827 -33.5 36.40625 C-37.00606292 29.76977375 -38.39100379 23.18631744 -36.5703125 15.75 C-33.97264093 7.6461528 -30.29248623 2.92415396 -23.09375 -1.5390625 C-15.89913833 -4.13756784 -6.61822092 -3.95410656 0 0 Z " fill="#14A057" transform="translate(146.21875,75.6015625)"/>
<path d="M0 0 C0.1875 3.125 0.1875 3.125 0 6 C-1.2684375 5.566875 -1.2684375 5.566875 -2.5625 5.125 C-3.696875 4.75375 -4.83125 4.3825 -6 4 C-7.093125 3.62875 -8.18625 3.2575 -9.3125 2.875 C-16.61891827 1.14127363 -22.38185269 1.36650736 -29 5 C-32.82527024 8.20495615 -34.78071578 11.02644204 -35.3359375 16.0234375 C-35.56259861 24.79444006 -35.56259861 24.79444006 -31 32 C-26.31377258 36.45191605 -22.06166252 36.4415208 -15.90234375 36.43359375 C-12.52501347 35.9290397 -10.67507604 35.1187344 -8 33 C-7.34 31.35 -6.68 29.7 -6 28 C-10.29 28 -14.58 28 -19 28 C-19 26.02 -19 24.04 -19 22 C-12.73 22 -6.46 22 0 22 C0 33.58435208 0 33.58435208 -5 39 C-10.0330078 43.12636899 -15.61722068 43.69001409 -21.96875 43.44140625 C-28.8811382 42.43483426 -34.15207986 39.53415795 -38.5 34.0625 C-42.52181613 27.97297049 -43.9066336 22.22982177 -43 15 C-41.1555554 7.36540018 -37.6326726 2.23362081 -31 -2 C-21.01265105 -6.95825834 -9.29866976 -6.19911317 0 0 Z " fill="#15A158" transform="translate(73,72)"/>
<path d="M0 0 C5.23980337 4.63212377 8.63556688 10.04691298 9.28125 17.05078125 C9.52497722 25.85542695 8.82538433 32.28081335 2.6875 38.8125 C-3.22017809 44.21556392 -9.03619728 46.16867358 -17 46 C-24.05469269 44.90389899 -29.33431327 41.32250671 -34 36 C-35.6875 32.8125 -35.6875 32.8125 -36 30 C-34.75 27.625 -34.75 27.625 -33 26 C-32.34 26 -31.68 26 -31 26 C-30.67128906 26.79664063 -30.67128906 26.79664063 -30.3359375 27.609375 C-28.0791753 32.63663389 -26.16479316 35.56377681 -21 38 C-15.59036344 39.44524613 -10.94874869 39.32298596 -5.79296875 37.08984375 C-1.83613148 34.68470737 0.53552443 31.39342672 2 27 C2.68812626 19.81399574 2.98008298 13.46335925 -1.53125 7.5234375 C-5.34560047 3.56706334 -9.05656887 2.79383597 -14.375 2.5 C-21.34522348 2.73579917 -25.28148786 5.24091305 -30.09375 10.125 C-32.12646698 12.3700904 -34.07587667 14.66151322 -36 17 C-36.79857422 17.94746094 -36.79857422 17.94746094 -37.61328125 18.9140625 C-38.75207587 20.26778455 -39.87788395 21.63242106 -41 23 C-42.01706132 19.94881604 -42.34114148 18.174511 -42 15 C-37.58110513 7.69001966 -30.84794988 0.47784105 -23.1875 -3.4375 C-14.82511737 -4.91321458 -7.25451037 -4.80805755 0 0 Z " fill="#1B9E5A" transform="translate(200,77)"/>
<path d="M0 0 C2.31 0 4.62 0 7 0 C7.15243235 7.56199242 7.25733476 15.12358709 7.32958984 22.68676758 C7.35971821 25.25820725 7.40062942 27.82954454 7.45263672 30.40063477 C7.52561903 34.10198253 7.55949789 37.80196896 7.5859375 41.50390625 C7.61690521 42.64896133 7.64787292 43.79401642 7.67977905 44.97377014 C7.68200263 50.27573983 7.62619624 53.98205489 4.14355469 58.16162109 C-0.27240125 62.54882396 -4.5316694 64.36188312 -10.81225586 64.46728516 C-11.49296143 64.45745605 -12.17366699 64.44762695 -12.875 64.4375 C-13.93182983 64.43049072 -13.93182983 64.43049072 -15.01000977 64.42333984 C-20.71551644 64.2610229 -24.3463871 63.22903752 -29 60 C-30.20272819 57.59454362 -30.10071472 56.05003047 -30.0625 53.375 C-30.05347656 52.55773437 -30.04445313 51.74046875 -30.03515625 50.8984375 C-30.02355469 50.27195313 -30.01195312 49.64546875 -30 49 C-24.25 50.875 -24.25 50.875 -22 52 C-22 52.66 -22 53.32 -22 54 C-12.06874319 55.08925354 -12.06874319 55.08925354 -3.25 51.75 C-2.5075 50.8425 -1.765 49.935 -1 49 C-0.360625 48.34 0.27875 47.68 0.9375 47 C2.40071496 44.24571301 1.82980172 42.97345616 1 40 C0.65596692 37.66822025 0.32050798 35.33512959 0 33 C-0.66 33 -1.32 33 -2 33 C-1.84152588 32.47889648 -1.68305176 31.95779297 -1.51977539 31.42089844 C-0.86021098 28.34892068 -0.78002727 25.40660253 -0.68359375 22.265625 C-0.64169922 20.97011719 -0.59980469 19.67460938 -0.55664062 18.33984375 C-0.51683329 16.97656524 -0.47712094 15.61328394 -0.4375 14.25 C-0.39427726 12.87108125 -0.35066179 11.49217474 -0.30664062 10.11328125 C-0.20056042 6.7422881 -0.0985015 3.37122174 0 0 Z " fill="#02AA50" transform="translate(349,77)"/>
<path d="M0 0 C3.43526002 2.53691797 5.42553666 5.36764628 6.8671875 9.37890625 C7.77961642 15.56412151 7.5924238 21.16357543 3.8671875 26.37890625 C-0.10970704 30.27096037 -3.21338518 32.52826441 -8.8203125 32.69140625 C-14.15539201 32.6221195 -16.88379089 31.60816268 -21.1328125 28.37890625 C-24.20022076 24.92807196 -25.1328125 23.33405552 -25.1328125 18.69140625 C-24.05793107 15.13086152 -23.33297192 14.13383238 -20.1328125 12.37890625 C-20.04644531 12.9821875 -19.96007812 13.58546875 -19.87109375 14.20703125 C-19.17194599 18.183835 -18.62373886 20.78690681 -16.0078125 23.94140625 C-11.97481877 25.95790312 -9.63004114 25.87859832 -5.1328125 25.37890625 C-1.89667896 23.6363728 -1.30885935 22.90704681 -0.1328125 19.37890625 C0.39813449 14.73094406 0.51503573 11.41546341 -2.0078125 7.37890625 C-4.72331835 4.82313604 -5.62817027 4.42742954 -9.3828125 4.06640625 C-14.92598668 4.52833743 -18.32504402 7.30292528 -21.94921875 11.3671875 C-22.8730352 12.46822386 -23.78825405 13.5765238 -24.6953125 14.69140625 C-25.17347412 15.26592529 -25.65163574 15.84044434 -26.14428711 16.43237305 C-28.62401229 19.43682693 -30.98480777 22.48091129 -33.1953125 25.69140625 C-33.8346875 26.57828125 -34.4740625 27.46515625 -35.1328125 28.37890625 C-35.7928125 28.37890625 -36.4528125 28.37890625 -37.1328125 28.37890625 C-37.45324277 18.92621323 -32.20295748 13.02931739 -26.1328125 6.37890625 C-18.34799253 -1.56257419 -10.79610087 -6.02817305 0 0 Z " fill="#09A652" transform="translate(195.1328125,82.62109375)"/>
<path d="M0 0 C3.68807589 2.6217409 5.39998447 6.08667215 6.796875 10.27734375 C6.8802554 12.415289 6.90421247 14.55576384 6.89453125 16.6953125 C6.89130859 17.94892578 6.88808594 19.20253906 6.88476562 20.49414062 C6.87219727 22.45963867 6.87219727 22.45963867 6.859375 24.46484375 C6.85435817 25.80012856 6.84979559 27.13541516 6.84570312 28.47070312 C6.83390195 31.73962848 6.81743797 35.00846366 6.796875 38.27734375 C4.816875 38.27734375 2.836875 38.27734375 0.796875 38.27734375 C0.77705566 37.45008789 0.75723633 36.62283203 0.73681641 35.77050781 C0.64156288 32.02246569 0.53188391 28.27498058 0.421875 24.52734375 C0.3909375 23.22539063 0.36 21.9234375 0.328125 20.58203125 C0.28945312 19.33164063 0.25078125 18.08125 0.2109375 16.79296875 C0.16380615 15.06481934 0.16380615 15.06481934 0.11572266 13.30175781 C-0.18996824 10.4021416 -0.63557208 8.70347043 -2.203125 6.27734375 C-5.64191596 3.73009119 -9.05231603 3.98605891 -13.203125 4.27734375 C-16.04888444 4.87998557 -16.04888444 4.87998557 -18.203125 6.27734375 C-19.75062641 10.77104978 -19.83754749 15.60225423 -19.203125 20.27734375 C-17.53645833 23.61067708 -17.53645833 23.61067708 -14.203125 25.27734375 C-9.38809317 25.93075679 -4.87268981 25.5930179 -0.203125 24.27734375 C-0.203125 26.25734375 -0.203125 28.23734375 -0.203125 30.27734375 C-5.0140776 33.09406073 -9.77617626 32.88460855 -15.203125 32.27734375 C-19.41398777 30.98940587 -21.86159638 28.69768667 -24.640625 25.27734375 C-27.15681997 20.25579947 -26.8253536 14.73322625 -26.203125 9.27734375 C-24.2789936 3.60621963 -21.05720569 0.77949148 -15.828125 -1.97265625 C-9.86887837 -3.67529814 -5.33117953 -2.90321986 0 0 Z " fill="#1C9E5B" transform="translate(143.203125,82.72265625)"/>
<path d="M0 0 C29.38461538 0 29.38461538 0 35.9375 5.4375 C36.9584375 6.7059375 36.9584375 6.7059375 38 8 C38.5775 8.70125 39.155 9.4025 39.75 10.125 C43.08766789 15.13150184 42.51952689 21.23398329 42 27 C40.30231264 32.93705524 37.03223024 36.57808344 32 40 C27.08720671 42.06854454 22.84684126 42.24678907 17.625 42.125 C13.850625 42.063125 13.850625 42.063125 10 42 C10 48.27 10 54.54 10 61 C6.7 61 3.4 61 0 61 C0 40.87 0 20.74 0 0 Z M1 2 C1 21.14 1 40.28 1 60 C3.64 60 6.28 60 9 60 C9.33 53.73 9.66 47.46 10 41 C16.435 40.505 16.435 40.505 23 40 C22.67 39.01 22.34 38.02 22 37 C24 39 24 39 24 40 C25.65 40 27.3 40 29 40 C28.67 37.69 28.34 35.38 28 33 C21.73 33 15.46 33 9 33 C9 25.08 9 17.16 9 9 C15.435 8.505 15.435 8.505 22 8 C22 8.66 22 9.32 22 10 C22.56589844 10.10957031 23.13179687 10.21914062 23.71484375 10.33203125 C24.44832031 10.49058594 25.18179688 10.64914063 25.9375 10.8125 C26.66839844 10.96332031 27.39929688 11.11414063 28.15234375 11.26953125 C28.76207031 11.51058594 29.37179688 11.75164062 30 12 C30.33 12.99 30.66 13.98 31 15 C32.99665314 16.68538601 32.99665314 16.68538601 35 18 C35.12577024 11.67238571 35.12577024 11.67238571 32.5 6.1875 C32.005 5.795625 31.51 5.40375 31 5 C30.67 4.34 30.34 3.68 30 3 C20.8239442 -0.05868527 10.67241209 2 1 2 Z M10 10 C10 17.26 10 24.52 10 32 C12.371875 32.061875 14.74375 32.12375 17.1875 32.1875 C17.92508545 32.21481201 18.6626709 32.24212402 19.42260742 32.27026367 C23.827366 32.32558339 26.5179177 31.70828623 30 29 C31.96773084 25.06453832 31.45770331 20.29096856 31 16 C28.65385137 12.43732986 25.9729037 11.32618234 22 10 C18.87420806 9.75987081 18.87420806 9.75987081 15.6875 9.875 C13.810625 9.91625 11.93375 9.9575 10 10 Z " fill="#06A952" transform="translate(218,61)"/>
<path d="M0 0 C3.64868917 3.64868917 3.12809054 7.7273306 3.1328125 12.69921875 C3.13410156 13.99021484 3.13539063 15.28121094 3.13671875 16.61132812 C3.13462402 17.2797876 3.1325293 17.94824707 3.13037109 18.63696289 C3.12499085 20.69099215 3.13034208 22.74480539 3.13671875 24.79882812 C3.13542969 26.08595703 3.13414062 27.37308594 3.1328125 28.69921875 C3.13168457 29.88346436 3.13055664 31.06770996 3.12939453 32.2878418 C3 35 3 35 2 36 C0.48071962 36.07179964 -1.04167482 36.08392007 -2.5625 36.0625 C-3.38878906 36.05347656 -4.21507812 36.04445312 -5.06640625 36.03515625 C-5.70449219 36.02355469 -6.34257812 36.01195312 -7 36 C-7.495 33.03 -7.495 33.03 -8 30 C-9.051875 31.175625 -9.051875 31.175625 -10.125 32.375 C-14.0459852 35.95502996 -17.1071272 36.78571251 -22.3125 37.375 C-30.36517219 36.55608418 -35.44101947 33.22025344 -40.58984375 27.09765625 C-43.86150774 22.23094278 -44.27300365 18.20642403 -44.25 12.375 C-44.25515625 11.06273438 -44.2603125 9.75046875 -44.265625 8.3984375 C-44 5 -44 5 -42 2 C-41.67 8.27 -41.34 14.54 -41 21 C-39.68 21.66 -38.36 22.32 -37 23 C-36.67 23.66 -36.34 24.32 -36 25 C-34.95785309 20.38492226 -34.95785309 20.38492226 -36 16 C-36.06950541 14.45976004 -36.08452357 12.91665012 -36.0625 11.375 C-36.04896484 10.14910156 -36.04896484 10.14910156 -36.03515625 8.8984375 C-36.02355469 8.27195312 -36.01195312 7.64546875 -36 7 C-35.34 7 -34.68 7 -34 7 C-33.67 5.68 -33.34 4.36 -33 3 C-32.67 3.66 -32.34 4.32 -32 5 C-32.33 5.99 -32.66 6.98 -33 8 C-33.38570699 13.7856049 -33.10291336 17.89520705 -30 23 C-25.59626036 25.76313076 -21.96813929 26.51396807 -16.93359375 25.66015625 C-13.58111672 24.51557318 -11.51632816 22.45341996 -9 20 C-7.53060547 24.30322683 -6.22556737 28.62297367 -5 33 C-2.03 33.495 -2.03 33.495 1 34 C0.67 22.78 0.34 11.56 0 0 Z " fill="#15A05A" transform="translate(307,86)"/>
<path d="M0 0 C-0.8125 1.9375 -0.8125 1.9375 -2 4 C-2.99 4.33 -3.98 4.66 -5 5 C-5.66 4.67 -6.32 4.34 -7 4 C-12.64887653 3.41251684 -17.22020846 3.66526172 -22 7 C-26.37008061 12.55118348 -27.0963544 16.59970978 -27.31640625 23.515625 C-27.35830078 24.76601562 -27.40019531 26.01640625 -27.44335938 27.3046875 C-27.48267578 28.60664062 -27.52199219 29.90859375 -27.5625 31.25 C-27.60568359 32.56742188 -27.64886719 33.88484375 -27.69335938 35.2421875 C-27.79941917 38.49468788 -27.90148024 41.74726392 -28 45 C-29.65 45 -31.3 45 -33 45 C-35.06709794 40.86580412 -34.18492069 35.47965879 -34.1875 30.9375 C-34.19974609 29.82955078 -34.21199219 28.72160156 -34.22460938 27.58007812 C-34.24136553 18.13519287 -33.99797521 9.05293313 -27 2 C-18.18840035 -4.50003651 -9.6665377 -4.14280187 0 0 Z " fill="#17A05A" transform="translate(116,76)"/>
<path d="M0 0 C0.80824219 0.10183594 1.61648437 0.20367187 2.44921875 0.30859375 C3.06410156 0.39238281 3.67898437 0.47617188 4.3125 0.5625 C5.4375 4.3125 5.4375 4.3125 4.3125 6.5625 C2.45625 6.500625 2.45625 6.500625 0.5625 6.4375 C-2.69033562 6.4375 -4.96937717 6.60545156 -7.6875 8.5625 C-9.13712183 11.46174366 -8.90876481 14.08550355 -9.00390625 17.3203125 C-9.02468735 17.98336395 -9.04546844 18.64641541 -9.06687927 19.32955933 C-9.13229231 21.44876694 -9.19122105 23.568099 -9.25 25.6875 C-9.29319309 27.12371081 -9.33680764 28.55990902 -9.38085938 29.99609375 C-9.48796499 33.51809594 -9.58925575 37.04023825 -9.6875 40.5625 C-11.6675 40.5625 -13.6475 40.5625 -15.6875 40.5625 C-15.78685088 36.25754985 -15.85919268 31.95321817 -15.90722656 27.64746094 C-15.92726332 26.18477748 -15.95450104 24.72217334 -15.98925781 23.25976562 C-16.03813225 21.1495399 -16.06054659 19.04037864 -16.078125 16.9296875 C-16.09907227 15.66237793 -16.12001953 14.39506836 -16.14160156 13.08935547 C-15.50174994 8.11984119 -13.35192383 5.02517549 -9.625 1.75 C-6.20671987 -0.34507492 -3.86475144 -0.50409801 0 0 Z " fill="#0FA355" transform="translate(105.6875,80.4375)"/>
<path d="M0 0 C1.134375 0.020625 2.26875 0.04125 3.4375 0.0625 C3.48696866 4.13757572 3.52325189 8.21253497 3.54736328 12.2878418 C3.5574157 13.67394048 3.5710597 15.06001799 3.58837891 16.44604492 C3.61265952 18.4391975 3.62292031 20.43250533 3.6328125 22.42578125 C3.64328613 23.62501221 3.65375977 24.82424316 3.66455078 26.05981445 C3.4375 29.0625 3.4375 29.0625 1.4375 32.0625 C1.1075 32.7225 0.7775 33.3825 0.4375 34.0625 C1.4275 34.3925 2.4175 34.7225 3.4375 35.0625 C3.4375 35.7225 3.4375 36.3825 3.4375 37.0625 C1.5625 37.6875 1.5625 37.6875 -0.5625 38.0625 C-2.5625 36.0625 -2.5625 36.0625 -2.625 33 C-2.604375 32.030625 -2.58375 31.06125 -2.5625 30.0625 C-2.8925 29.7325 -3.2225 29.4025 -3.5625 29.0625 C-4.4949299 22.53549072 -4.66605264 16.08174043 -4.6875 9.5 C-4.69209229 8.68990479 -4.69668457 7.87980957 -4.70141602 7.04516602 C-4.6829308 0.08215668 -4.6829308 0.08215668 0 0 Z " fill="#03AA51" transform="translate(321.5625,75.9375)"/>
<path d="M0 0 C29.38461538 0 29.38461538 0 35.9375 5.4375 C36.9584375 6.7059375 36.9584375 6.7059375 38 8 C38.928125 9.051875 38.928125 9.051875 39.875 10.125 C40.24625 10.74375 40.6175 11.3625 41 12 C40.67 12.99 40.34 13.98 40 15 C39.7525 14.360625 39.505 13.72125 39.25 13.0625 C38.18437567 10.81258459 38.18437567 10.81258459 35.875 10.25 C35.25625 10.1675 34.6375 10.085 34 10 C34 9.34 34 8.68 34 8 C33.01 7.67 32.02 7.34 31 7 C30.67 5.68 30.34 4.36 30 3 C20.43 2.67 10.86 2.34 1 2 C1 21.14 1 40.28 1 60 C3.64 60 6.28 60 9 60 C8.99476318 59.42967041 8.98952637 58.85934082 8.98413086 58.27172852 C8.96341779 55.70199677 8.9503581 53.13228253 8.9375 50.5625 C8.92912109 49.66466797 8.92074219 48.76683594 8.91210938 47.84179688 C8.90888672 46.98779297 8.90566406 46.13378906 8.90234375 45.25390625 C8.89710693 44.46314697 8.89187012 43.6723877 8.88647461 42.85766602 C9 41 9 41 10 40 C12.01594582 39.76572222 14.038474 39.58663876 16.0625 39.4375 C17.16722656 39.35371094 18.27195313 39.26992187 19.41015625 39.18359375 C20.26480469 39.12300781 21.11945313 39.06242187 22 39 C22 38.34 22 37.68 22 37 C22.556875 37.350625 23.11375 37.70125 23.6875 38.0625 C26.65367147 39.26500195 27.99433836 39.05198158 31 38 C32.37195574 36.70644173 33.71182656 35.37701298 35 34 C35.66 34 36.32 34 37 34 C37.66 32.68 38.32 31.36 39 30 C39.495 30.99 39.495 30.99 40 32 C36.87004798 36.32739578 33.89925356 39.88460278 28.6328125 41.578125 C22.47565957 42.56473111 16.20922532 42.15523063 10 42 C10 48.27 10 54.54 10 61 C6.7 61 3.4 61 0 61 C0 40.87 0 20.74 0 0 Z " fill="#319C65" transform="translate(218,61)"/>
<path d="M0 0 C1.98 0 3.96 0 6 0 C6.1164862 3.72890255 6.18734576 7.45733514 6.25 11.1875 C6.28351563 12.24259766 6.31703125 13.29769531 6.3515625 14.38476562 C6.45053479 22.22831954 6.45053479 22.22831954 4.109375 26.23828125 C2 28 2 28 0 28 C0 18.76 0 9.52 0 0 Z " fill="#1C9E59" transform="translate(161,56)"/>
<path d="M0 0 C-0.556875 -0.04640625 -1.11375 -0.0928125 -1.6875 -0.140625 C-7.6971249 -0.42486402 -12.06392016 0.45889924 -17 4 C-18.91370926 5.90441941 -20.4035816 7.8049247 -22 10 C-20.02 9.34 -18.04 8.68 -16 8 C-17.99173627 10.67311973 -19.99422118 13.33742694 -22 16 C-22.40702148 16.5460791 -22.81404297 17.0921582 -23.23339844 17.65478516 C-24.56617593 19.44117982 -25.90748644 21.22091444 -27.25 23 C-27.68618652 23.5880542 -28.12237305 24.1761084 -28.57177734 24.78198242 C-29.667062 26.22526366 -30.82853281 27.61783727 -32 29 C-32.66 29 -33.32 29 -34 29 C-34.32043027 19.54730698 -29.07014498 13.65041114 -23 7 C-16.68255608 0.55542485 -9.09842256 -6.06561504 0 0 Z " fill="#0FA255" transform="translate(192,82)"/>
<path d="M0 0 C2.5654594 2.5654594 2.54046087 4.47686668 3 8 C1.9790625 7.566875 1.9790625 7.566875 0.9375 7.125 C-0.031875 6.75375 -1.00125 6.3825 -2 6 C-2.969375 5.62875 -3.93875 5.2575 -4.9375 4.875 C-12.70061396 2.72047939 -21.53762506 3.1377192 -29 6 C-29 5.34 -29 4.68 -29 4 C-25.59648662 1.96780512 -22.6767073 1.63108961 -18.75 1.375 C-17.67234375 1.30023438 -16.5946875 1.22546875 -15.484375 1.1484375 C-14.25460938 1.07496094 -14.25460938 1.07496094 -13 1 C-13 0.67 -13 0.34 -13 0 C-23.18875454 -0.32595099 -23.18875454 -0.32595099 -33 2 C-26.30535021 -6.66366443 -8.5882284 -4.37437802 0 0 Z " fill="#1B9E5A" transform="translate(71,63)"/>
<path d="M0 0 C-0.86637807 2.99294243 -1.38638008 4.6095146 -4.0625 6.3125 C-8.06972691 7.25036162 -11.90465243 7.16060187 -16 7 C-16 6.34 -16 5.68 -16 5 C-18.31 4.67 -20.62 4.34 -23 4 C-23 2.68 -23 1.36 -23 0 C-20.00114981 -0.34986586 -17.00218678 -0.68088644 -14 -1 C-12.94425781 -1.11859375 -11.88851563 -1.2371875 -10.80078125 -1.359375 C-9.73214844 -1.46765625 -8.66351563 -1.5759375 -7.5625 -1.6875 C-6.55316406 -1.79449219 -5.54382813 -1.90148437 -4.50390625 -2.01171875 C-2 -2 -2 -2 0 0 Z " fill="#03AA50" transform="translate(297,114)"/>
<path d="M0 0 C2.97 0 5.94 0 9 0 C9 17.49 9 34.98 9 53 C8.67 53 8.34 53 8 53 C8 36.17 8 19.34 8 2 C5.69 2 3.38 2 1 2 C1 11.57 1 21.14 1 31 C0.34 31 -0.32 31 -1 31 C-1.02465622 26.74585377 -1.04283899 22.49174502 -1.05493164 18.23754883 C-1.05997101 16.78929927 -1.06680253 15.34105483 -1.07543945 13.89282227 C-1.08752247 11.81525412 -1.09323211 9.73775303 -1.09765625 7.66015625 C-1.10289307 6.40855713 -1.10812988 5.15695801 -1.11352539 3.86743164 C-1 1 -1 1 0 0 Z " fill="#2C975F" transform="translate(348,75)"/>
<path d="M0 0 C0 0.66 0 1.32 0 2 C-0.99 2 -1.98 2 -3 2 C-3.33 3.32 -3.66 4.64 -4 6 C-0.13276369 7.26582219 3.73151262 7.1118765 7.75 7.0625 C8.44738281 7.05798828 9.14476562 7.05347656 9.86328125 7.04882812 C11.57555803 7.0371002 13.28779033 7.01916653 15 7 C15 7.99 15 8.98 15 10 C15.99 10 16.98 10 18 10 C18 10.66 18 11.32 18 12 C18.66 12 19.32 12 20 12 C20 13.65 20 15.3 20 17 C19.13375 15.824375 19.13375 15.824375 18.25 14.625 C15.67780632 11.62410737 13.79801917 10.2858219 9.88671875 9.6640625 C4.05859084 9.56054335 0.81937646 10.71872241 -4 14 C-4.33 13.01 -4.66 12.02 -5 11 C-6.8522367 9.99521963 -6.8522367 9.99521963 -9 10 C-10.64594139 11.39588754 -10.64594139 11.39588754 -12 13 C-12.66 13 -13.32 13 -14 13 C-12.26726946 7.48676647 -9.04375094 4.37834366 -4.3125 1.1875 C-2 0 -2 0 0 0 Z " fill="#16A159" transform="translate(279,75)"/>
<path d="M0 0 C4 2 4 2 4.74389648 3.75878906 C5.05465814 6.47832387 5.1116263 9.12124507 5.09765625 11.859375 C5.09443359 12.97441406 5.09121094 14.08945313 5.08789062 15.23828125 C5.07951172 16.39714844 5.07113281 17.55601563 5.0625 18.75 C5.05798828 19.92433594 5.05347656 21.09867188 5.04882812 22.30859375 C5.03705094 25.20578072 5.02060326 28.10286454 5 31 C3.68 31 2.36 31 1 31 C0.67 20.77 0.34 10.54 0 0 Z " fill="#07A752" transform="translate(144,88)"/>
<path d="M0 0 C1.79244141 0.01740234 1.79244141 0.01740234 3.62109375 0.03515625 C5.41740234 0.04869141 5.41740234 0.04869141 7.25 0.0625 C8.17683594 0.07410156 9.10367188 0.08570312 10.05859375 0.09765625 C10.05859375 0.75765625 10.05859375 1.41765625 10.05859375 2.09765625 C11.35796875 2.19046875 11.35796875 2.19046875 12.68359375 2.28515625 C15.98765621 3.08057869 18.42665028 4.01015713 20.98046875 6.30859375 C22.95955136 9.5927236 22.36028629 12.82737564 21.81640625 16.49609375 C20.76503399 20.10544386 19.06104512 21.90074061 16.05859375 24.09765625 C12.74864662 25.75262981 9.06736375 25.1984996 5.43359375 25.16015625 C4.63179687 25.15564453 3.83 25.15113281 3.00390625 25.14648438 C1.02210369 25.13468793 -0.95966058 25.1167523 -2.94140625 25.09765625 C-3.13725978 21.11885397 -3.32169295 17.13960469 -3.50390625 13.16015625 C-3.55998047 12.02384766 -3.61605469 10.88753906 -3.67382812 9.71679688 C-3.72216797 8.63720703 -3.77050781 7.55761719 -3.8203125 6.4453125 C-3.86744385 5.44508057 -3.9145752 4.44484863 -3.96313477 3.41430664 C-3.93031776 -0.08457589 -3.53937072 0.11750899 0 0 Z M-1.94140625 2.09765625 C-1.94140625 9.35765625 -1.94140625 16.61765625 -1.94140625 24.09765625 C0.43046875 24.15953125 2.80234375 24.22140625 5.24609375 24.28515625 C5.9836792 24.31246826 6.72126465 24.33978027 7.48120117 24.36791992 C11.88595975 24.42323964 14.57651145 23.80594248 18.05859375 21.09765625 C20.02632459 17.16219457 19.51629706 12.38862481 19.05859375 8.09765625 C16.71244512 4.53498611 14.03149745 3.42383859 10.05859375 2.09765625 C6.93280181 1.85752706 6.93280181 1.85752706 3.74609375 1.97265625 C1.86921875 2.01390625 -0.00765625 2.05515625 -1.94140625 2.09765625 Z " fill="#26985E" transform="translate(229.94140625,68.90234375)"/>
<path d="M0 0 C1.98 0 3.96 0 6 0 C6 5.94 6 11.88 6 18 C4.02 18.99 2.04 19.98 0 21 C-1.20217503 18.59564994 -1.03897118 17.31618631 -0.87890625 14.6484375 C-0.83056641 13.79765625 -0.78222656 12.946875 -0.73242188 12.0703125 C-0.67634766 11.18085937 -0.62027344 10.29140625 -0.5625 9.375 C-0.51029297 8.4778125 -0.45808594 7.580625 -0.40429688 6.65625 C-0.2744565 4.43715988 -0.13948661 2.21850129 0 0 Z " fill="#1BA25A" transform="translate(169,56)"/>
<path d="M0 0 C0.99 0 1.98 0 3 0 C4.07957377 3.23872132 4.13326784 5.66028205 4.125 9.0625 C4.12886719 10.65771484 4.12886719 10.65771484 4.1328125 12.28515625 C4 15 4 15 3 17 C3.99 17 4.98 17 6 17 C6 16.01 6 15.02 6 14 C6.66 14 7.32 14 8 14 C7.9158797 16.86009035 7.43181261 18.54648827 5.4453125 20.6328125 C0.26347698 25.08360069 -2.65114551 26.28608111 -9.515625 26.2265625 C-12.66895466 25.9389947 -14.58109433 25.0287596 -17 23 C-17.33 22.34 -17.66 21.68 -18 21 C-17.49984375 21.32742187 -16.9996875 21.65484375 -16.484375 21.9921875 C-13.08207896 23.3723642 -9.85649349 23.21362838 -6.25 23.125 C-5.20392578 23.11146484 -5.20392578 23.11146484 -4.13671875 23.09765625 C-2.42433042 23.07419888 -0.71211996 23.03833104 1 23 C1 22.01 1 21.02 1 20 C0.01 20.66 -0.98 21.32 -2 22 C-5.5625 22.25 -5.5625 22.25 -9 22 C-9.66 21.34 -10.32 20.68 -11 20 C-10.31292969 19.91363281 -9.62585938 19.82726562 -8.91796875 19.73828125 C-3.37056348 18.97691264 -3.37056348 18.97691264 1.125 15.9375 C2.53325944 11.20977188 3.03395817 6.3095694 0.98046875 1.72265625 C0.49513672 0.86994141 0.49513672 0.86994141 0 0 Z " fill="#209A5A" transform="translate(193,89)"/>
<path d="M0 0 C4.97306516 0.49730652 8.63799813 1.55302334 13 4 C13 5.98 13 7.96 13 10 C12.154375 9.71125 11.30875 9.4225 10.4375 9.125 C8.7359375 8.568125 8.7359375 8.568125 7 8 C5.906875 7.62875 4.81375 7.2575 3.6875 6.875 C-3.30312073 5.21620864 -9.24073855 5.69897482 -16 8 C-16 7.01 -16 6.02 -16 5 C-10.67067568 3.29915181 -5.56890517 2.47986031 0 2 C0 1.34 0 0.68 0 0 Z " fill="#19A259" transform="translate(60,68)"/>
<path d="M0 0 C2 2 2 2 2.13525391 4.98095703 C2.08288574 6.22731934 2.03051758 7.47368164 1.9765625 8.7578125 C1.95153656 9.42086395 1.92651062 10.08391541 1.90072632 10.76705933 C1.81848733 12.88689015 1.72191635 15.00579437 1.625 17.125 C1.56676418 18.56115994 1.50946081 19.99735802 1.453125 21.43359375 C1.31290458 24.95623602 1.159824 28.4781866 1 32 C-0.98 32 -2.96 32 -5 32 C-5 22.43 -5 12.86 -5 3 C-4.67 3 -4.34 3 -4 3 C-4 11.91 -4 20.82 -4 30 C-3.01 30 -2.02 30 -1 30 C-1.00523682 29.12674072 -1.01047363 28.25348145 -1.01586914 27.35375977 C-1.03287751 24.12410727 -1.04543369 20.89447755 -1.05493164 17.66479492 C-1.0599708 16.26504772 -1.06680216 14.8653058 -1.07543945 13.46557617 C-1.0875232 11.45754223 -1.09269807 9.44947043 -1.09765625 7.44140625 C-1.10289307 6.23170166 -1.10812988 5.02199707 -1.11352539 3.77563477 C-1 1 -1 1 0 0 Z " fill="#229B60" transform="translate(95,89)"/>
<path d="M0 0 C1.13916302 3.57474725 1.03150662 6.78539382 0.87890625 10.515625 C0.83056641 11.76601562 0.78222656 13.01640625 0.73242188 14.3046875 C0.67634766 15.60664062 0.62027344 16.90859375 0.5625 18.25 C0.51029297 19.56742188 0.45808594 20.88484375 0.40429688 22.2421875 C0.27465443 25.49503428 0.13968844 28.74757167 0 32 C-1.65 32 -3.3 32 -5 32 C-6.27861615 29.44276771 -6.11336609 27.63262898 -6.09765625 24.7734375 C-6.09443359 23.7421875 -6.09121094 22.7109375 -6.08789062 21.6484375 C-6.07951172 20.56820312 -6.07113281 19.48796875 -6.0625 18.375 C-6.05798828 17.28703125 -6.05347656 16.1990625 -6.04882812 15.078125 C-6.03701776 12.38536211 -6.02054778 9.69270812 -6 7 C-5.01 7.495 -5.01 7.495 -4 8 C-2.61269087 12.49348553 -2.88679228 17.15909157 -2.9375 21.8125 C-2.94201172 22.60076172 -2.94652344 23.38902344 -2.95117188 24.20117188 C-2.96288688 26.13414761 -2.98082002 28.06708393 -3 30 C-2.34 30 -1.68 30 -1 30 C-1.00523682 29.12674072 -1.01047363 28.25348145 -1.01586914 27.35375977 C-1.03287751 24.12410727 -1.04543369 20.89447755 -1.05493164 17.66479492 C-1.0599708 16.26504772 -1.06680216 14.8653058 -1.07543945 13.46557617 C-1.0875232 11.45754223 -1.09269807 9.44947043 -1.09765625 7.44140625 C-1.10289307 6.23170166 -1.10812988 5.02199707 -1.11352539 3.77563477 C-1 1 -1 1 0 0 Z " fill="#239E5F" transform="translate(88,89)"/>
<path d="M0 0 C3.3 0.33 6.6 0.66 10 1 C10 1.66 10 2.32 10 3 C15.28 3.33 20.56 3.66 26 4 C25.01 5.485 25.01 5.485 24 7 C20.34841107 7.52433072 16.67699189 7.19403651 13 7 C11.71996094 6.95359375 11.71996094 6.95359375 10.4140625 6.90625 C6.5845528 6.65179753 4.55741299 6.4214586 1.4375 4.0625 C0 2 0 2 0 0 Z " fill="#05A852" transform="translate(36,114)"/>
<path d="M0 0 C0.99 0.33 1.98 0.66 3 1 C2.67 10.24 2.34 19.48 2 29 C1.01 29 0.02 29 -1 29 C-1.02465881 25.03069011 -1.04284023 21.06140966 -1.05493164 17.09204102 C-1.05997057 15.74079614 -1.06680177 14.38955674 -1.07543945 13.03833008 C-1.08752419 11.09979566 -1.09269828 9.161222 -1.09765625 7.22265625 C-1.10289307 6.05484619 -1.10812988 4.88703613 -1.11352539 3.68383789 C-1 1 -1 1 0 0 Z " fill="#05A84F" transform="translate(92,90)"/>
<path d="M0 0 C0.99 0 1.98 0 3 0 C2.67 10.89 2.34 21.78 2 33 C1.34 33 0.68 33 0 33 C-0.04898438 31.865625 -0.09796875 30.73125 -0.1484375 29.5625 C-0.2235414 28.04164602 -0.29908584 26.52081375 -0.375 25 C-0.4059375 24.25621094 -0.436875 23.51242188 -0.46875 22.74609375 C-0.67116526 18.86646802 -1.09632799 15.36806929 -2.1640625 11.625 C-2.43992187 10.42875 -2.71578125 9.2325 -3 8 C-2.34 7.01 -1.68 6.02 -1 5 C-0.61500109 3.34450469 -0.27206865 1.6777567 0 0 Z " fill="#05AB50" transform="translate(85,86)"/>
<path d="M0 0 C5.04723859 2.44603968 5.04723859 2.44603968 6.41015625 5.171875 C5.72050781 4.9553125 5.03085938 4.73875 4.3203125 4.515625 C-1.88976055 2.67560336 -7.12012583 1.85369215 -13.58984375 2.171875 C-10.28984375 2.831875 -6.98984375 3.491875 -3.58984375 4.171875 C-3.58984375 4.501875 -3.58984375 4.831875 -3.58984375 5.171875 C-4.3375 5.23246094 -5.08515625 5.29304688 -5.85546875 5.35546875 C-6.8403125 5.43925781 -7.82515625 5.52304688 -8.83984375 5.609375 C-10.30164063 5.73119141 -10.30164063 5.73119141 -11.79296875 5.85546875 C-14.15446128 6.12262084 -16.3088544 6.52559468 -18.58984375 7.171875 C-18.58984375 5.171875 -18.58984375 5.171875 -16.58984375 3.171875 C-17.90984375 2.511875 -19.22984375 1.851875 -20.58984375 1.171875 C-14.22391744 -1.78078099 -6.70747536 -2.14477342 0 0 Z " fill="#219E5D" transform="translate(142.58984375,73.828125)"/>
<path d="M0 0 C0.99 0.495 0.99 0.495 2 1 C2 1.99 2 2.98 2 4 C2.99 4.33 3.98 4.66 5 5 C7.45286296 8.67929445 7.23228878 10.47377907 7.1953125 14.85546875 C7.1924826 15.51710526 7.18965271 16.17874176 7.18673706 16.86042786 C7.17555918 18.96963737 7.15045981 21.07841925 7.125 23.1875 C7.11496707 24.61913448 7.10584176 26.05077564 7.09765625 27.48242188 C7.07562795 30.98841977 7.04111485 34.49416813 7 38 C6.34 38 5.68 38 5 38 C4.98018066 37.20827393 4.96036133 36.41654785 4.93994141 35.60083008 C4.8445284 32.0043924 4.73491409 28.40852249 4.625 24.8125 C4.5940625 23.56662109 4.563125 22.32074219 4.53125 21.03710938 C4.49257812 19.83505859 4.45390625 18.63300781 4.4140625 17.39453125 C4.3826416 16.28956299 4.3512207 15.18459473 4.31884766 14.04614258 C3.99788622 10.97980583 3.39346104 8.74204162 2 6 C1.34 5.67 0.68 5.34 0 5 C0 3.35 0 1.7 0 0 Z " fill="#03AA4F" transform="translate(148,80)"/>
<path d="M0 0 C5.75 1.75 5.75 1.75 8 4 C6.35 3.67 4.7 3.34 3 3 C2.67 4.98 2.34 6.96 2 9 C2.5775 9.12375 3.155 9.2475 3.75 9.375 C6 10 6 10 7.85644531 11.02685547 C10.28374111 12.12881459 11.89481046 12.23115121 14.546875 12.1953125 C15.39121094 12.18886719 16.23554688 12.18242187 17.10546875 12.17578125 C18.41451172 12.15064453 18.41451172 12.15064453 19.75 12.125 C20.63816406 12.11597656 21.52632813 12.10695312 22.44140625 12.09765625 C24.62788058 12.07414577 26.81380094 12.04128499 29 12 C25.44846358 15.45084853 21.96368874 15.50392833 17.25 15.4375 C16.17963501 15.43049072 16.17963501 15.43049072 15.08764648 15.42333984 C9.33660848 15.26181965 5.68981609 14.2541581 1 11 C-0.20272819 8.59454362 -0.10071472 7.05003047 -0.0625 4.375 C-0.05347656 3.55773437 -0.04445313 2.74046875 -0.03515625 1.8984375 C-0.02355469 1.27195312 -0.01195312 0.64546875 0 0 Z " fill="#249A5E" transform="translate(319,126)"/>
<path d="M0 0 C1.134375 0.020625 2.26875 0.04125 3.4375 0.0625 C4.68296405 2.55342811 4.2142578 3.47330733 3.4375 6.0625 C4.0975 6.3925 4.7575 6.7225 5.4375 7.0625 C4.1496669 8.54500555 2.85710936 10.02340818 1.5625 11.5 C0.84320313 12.32371094 0.12390625 13.14742187 -0.6171875 13.99609375 C-2.98568604 16.51202895 -3.83096746 17.01723971 -7.27734375 17.23046875 C-8.34082031 17.23691406 -9.40429688 17.24335938 -10.5 17.25 C-11.56089844 17.26417969 -12.62179687 17.27835938 -13.71484375 17.29296875 C-16.5625 17.0625 -16.5625 17.0625 -19.5625 15.0625 C-18.68207031 15.09730469 -17.80164063 15.13210937 -16.89453125 15.16796875 C-15.15236328 15.20857422 -15.15236328 15.20857422 -13.375 15.25 C-11.65216797 15.30220703 -11.65216797 15.30220703 -9.89453125 15.35546875 C-6.25593011 15.03554485 -4.46570213 14.22412333 -1.5625 12.0625 C0.53293806 9.06901705 0.6374733 6.66201941 0.4375 3.0625 C-0.305 3.743125 -1.0475 4.42375 -1.8125 5.125 C-4.5625 7.0625 -4.5625 7.0625 -6.875 6.8125 C-7.431875 6.565 -7.98875 6.3175 -8.5625 6.0625 C-6.9125 5.7325 -5.2625 5.4025 -3.5625 5.0625 C-3.8409375 4.1034375 -3.8409375 4.1034375 -4.125 3.125 C-4.269375 2.444375 -4.41375 1.76375 -4.5625 1.0625 C-3.5625 0.0625 -3.5625 0.0625 0 0 Z " fill="#259B5F" transform="translate(346.5625,114.9375)"/>
<path d="M0 0 C0.33 0 0.66 0 1 0 C1.03738281 0.99 1.07476563 1.98 1.11328125 3 C1.44644547 10.15216661 1.96004733 16.41343589 5 23 C5.33 23.99 5.66 24.98 6 26 C6.66 26 7.32 26 8 26 C8 26.66 8 27.32 8 28 C8.99 28.33 9.98 28.66 11 29 C11 28.34 11 27.68 11 27 C11 26.01 11 25.02 11 24 C12.12588014 24.95729916 13.2506715 25.91587895 14.375 26.875 C15.00148438 27.40867187 15.62796875 27.94234375 16.2734375 28.4921875 C17.55836651 29.61432007 18.79371975 30.79371975 20 32 C17.69 31.67 15.38 31.34 13 31 C13.66 32.32 14.32 33.64 15 35 C8.31343461 32.27584373 4.21332137 26.21654095 1 20 C-0.20648654 15.93134477 -0.11082691 11.95815852 -0.0625 7.75 C-0.05798828 7.00492187 -0.05347656 6.25984375 -0.04882812 5.4921875 C-0.03709246 3.6614236 -0.0191585 1.83070127 0 0 Z " fill="#259A5D" transform="translate(23,83)"/>
<path d="M0 0 C1 3 1 3 0 6 C-0.85101137 14.44932713 0.18087172 20.81472906 3.90625 28.44140625 C5 31 5 31 5 35 C2.48916886 33.74458443 2.12874554 32.49936512 1 30 C0.34 30 -0.32 30 -1 30 C-2.32 27.36 -3.64 24.72 -5 22 C-4.01 22 -3.02 22 -2 22 C-2.02320313 20.74703125 -2.04640625 19.4940625 -2.0703125 18.203125 C-2.08907427 16.5520893 -2.10727403 14.90104715 -2.125 13.25 C-2.14175781 12.425 -2.15851562 11.6 -2.17578125 10.75 C-2.18222656 9.95078125 -2.18867188 9.1515625 -2.1953125 8.328125 C-2.20578613 7.5949707 -2.21625977 6.86181641 -2.22705078 6.10644531 C-1.96777544 3.70103924 -1.19225925 2.08748506 0 0 Z " fill="#13A156" transform="translate(30,79)"/>
<path d="M0 0 C-0.33 1.32 -0.66 2.64 -1 4 C0.32 4.33 1.64 4.66 3 5 C-5.94507636 9.57192792 -14.43276091 9.66627975 -24 7 C-24 6.67 -24 6.34 -24 6 C-18.06 6 -12.12 6 -6 6 C-7.88474003 4.11525997 -11.02746402 4.30668 -13.5625 3.9375 C-14.76003906 3.76089844 -15.95757812 3.58429688 -17.19140625 3.40234375 C-18.11824219 3.26957031 -19.04507813 3.13679688 -20 3 C-20 2.67 -20 2.34 -20 2 C-19.28714844 2.02320312 -18.57429688 2.04640625 -17.83984375 2.0703125 C-11.61854816 2.18753745 -5.89345737 0 0 0 Z " fill="#229C5D" transform="translate(66,114)"/>
<path d="M0 0 C0.33 0 0.66 0 1 0 C1.13277344 0.67546875 1.26554687 1.3509375 1.40234375 2.046875 C1.57894531 2.93890625 1.75554688 3.8309375 1.9375 4.75 C2.11152344 5.63171875 2.28554688 6.5134375 2.46484375 7.421875 C2.64144531 8.27265625 2.81804688 9.1234375 3 10 C3.21849609 11.12148437 3.21849609 11.12148437 3.44140625 12.265625 C3.62574219 12.83796875 3.81007812 13.4103125 4 14 C4.66 14.33 5.32 14.66 6 15 C6.72159424 16.64363134 7.39351421 18.31050386 8 20 C8.33 18.35 8.66 16.7 9 15 C9.53367187 15.42152344 10.06734375 15.84304687 10.6171875 16.27734375 C16.38786198 20.52048675 20.85051779 21.9701483 28 22 C28 22.33 28 22.66 28 23 C26.27119018 23.05449838 24.54187288 23.09301688 22.8125 23.125 C21.84957031 23.14820312 20.88664062 23.17140625 19.89453125 23.1953125 C16.87187222 22.9913544 14.73230015 22.26874632 12 21 C12.99 22.65 13.98 24.3 15 26 C9.21458187 24.01642807 5.53593124 21.41884486 2.75 15.9375 C0.89074367 11.96753054 -0.12638246 8.72038968 -0.0625 4.3125 C-0.05347656 3.50425781 -0.04445313 2.69601563 -0.03515625 1.86328125 C-0.02355469 1.24839844 -0.01195313 0.63351563 0 0 Z " fill="#28995F" transform="translate(30,87)"/>
<path d="M0 0 C0.99 0.33 1.98 0.66 3 1 C4.45208295 4.46918278 4.11334124 8.25146707 4.09765625 11.953125 C4.0962413 12.61334656 4.09482635 13.27356812 4.09336853 13.95379639 C4.08779245 16.05257794 4.07524447 18.15125095 4.0625 20.25 C4.0574819 21.67708179 4.05291954 23.10416525 4.04882812 24.53125 C4.03783088 28.02086832 4.0205828 31.51042356 4 35 C5.32 35 6.64 35 8 35 C8 25.43 8 15.86 8 6 C8.33 6 8.66 6 9 6 C9 15.9 9 25.8 9 36 C7.02 36 5.04 36 3 36 C2.98018066 35.12263184 2.96036133 34.24526367 2.93994141 33.34130859 C2.861524 30.06467423 2.77482117 26.78847139 2.68261719 23.51220703 C2.64449762 22.09822937 2.60961596 20.68416035 2.578125 19.27001953 C2.53210142 17.2291616 2.47417333 15.1889234 2.4140625 13.1484375 C2.3826416 11.92302246 2.3512207 10.69760742 2.31884766 9.43505859 C2.00051231 6.00551927 1.22383184 3.20772767 0 0 Z " fill="#339363" transform="translate(148,85)"/>
<path d="M0 0 C0 0.99 0 1.98 0 3 C-1.22976562 3.09087891 -1.22976562 3.09087891 -2.484375 3.18359375 C-4.10085937 3.30927734 -4.10085937 3.30927734 -5.75 3.4375 C-7.35101563 3.55931641 -7.35101563 3.55931641 -8.984375 3.68359375 C-11.43679962 3.94090773 -13.63921291 4.31812218 -16 5 C-16 5.66 -16 6.32 -16 7 C-17.65 7 -19.3 7 -21 7 C-20.9375 5.1875 -20.9375 5.1875 -20 3 C-13.75785622 -0.97227332 -7.18740448 -0.29181943 0 0 Z " fill="#05A851" transform="translate(58,62)"/>
<path d="M0 0 C0.33 0 0.66 0 1 0 C1.15243235 7.56199242 1.25733476 15.12358709 1.32958984 22.68676758 C1.35971821 25.25820725 1.40062942 27.82954454 1.45263672 30.40063477 C1.52561903 34.10198253 1.55949789 37.80196896 1.5859375 41.50390625 C1.61690521 42.64896133 1.64787292 43.79401642 1.67977905 44.97377014 C1.68206433 50.42285889 1.58624831 54.02556878 -2.03662109 58.28100586 C-2.99723663 59.21609372 -3.97614115 60.13461882 -5 61 C-5.66 60.67 -6.32 60.34 -7 60 C-6.67 59.34 -6.34 58.68 -6 58 C-5.34 58 -4.68 58 -4 58 C-3.690625 57.360625 -3.38125 56.72125 -3.0625 56.0625 C-2 54 -2 54 -1 53 C-0.87709282 51.34355634 -0.82216092 49.68201007 -0.79467773 48.02124023 C-0.77473251 46.96021591 -0.75478729 45.89919159 -0.73423767 44.80601501 C-0.70916893 43.07479149 -0.70916893 43.07479149 -0.68359375 41.30859375 C-0.66281265 40.13361832 -0.64203156 38.95864288 -0.62062073 37.74806213 C-0.55499876 33.97793676 -0.4961817 30.20773918 -0.4375 26.4375 C-0.3943268 23.88866427 -0.35071292 21.33983597 -0.30664062 18.79101562 C-0.19930455 12.52742108 -0.0975621 6.26375399 0 0 Z " fill="#0BA454" transform="translate(355,77)"/>
<path d="M0 0 C0.66 0 1.32 0 2 0 C6.22550835 7.30032023 6.46251848 13.68751509 6 22 C5.34 22 4.68 22 4 22 C4 23.98 4 25.96 4 28 C4.66 28.33 5.32 28.66 6 29 C4.68 29.99 3.36 30.98 2 32 C2 31.34 2 30.68 2 30 C-0.31 30.33 -2.62 30.66 -5 31 C-4.236875 30.29875 -3.47375 29.5975 -2.6875 28.875 C2.88348247 22.91534434 3.46869862 18.11208836 3.3046875 10.1484375 C2.91827094 6.15546636 1.9429087 3.48104475 0 0 Z " fill="#1D9B5C" transform="translate(199,84)"/>
<path d="M0 0 C-0.556875 -0.04640625 -1.11375 -0.0928125 -1.6875 -0.140625 C-7.74063983 -0.42692215 -12.09336058 0.33174758 -17 4 C-20.2513073 7.14201966 -23.14700622 10.49613312 -26 14 C-26.83144531 14.97066406 -26.83144531 14.97066406 -27.6796875 15.9609375 C-30.9195552 20.00619605 -31.52216517 22.8827813 -31 28 C-31.99 28.33 -32.98 28.66 -34 29 C-34.32043027 19.54730698 -29.07014498 13.65041114 -23 7 C-16.68255608 0.55542485 -9.09842256 -6.06561504 0 0 Z " fill="#219B5F" transform="translate(192,82)"/>
<path d="M0 0 C4.37487331 -0.08738991 8.74952078 -0.140524 13.125 -0.1875 C14.3625 -0.21263672 15.6 -0.23777344 16.875 -0.26367188 C18.07382813 -0.27333984 19.27265625 -0.28300781 20.5078125 -0.29296875 C21.60754395 -0.3086792 22.70727539 -0.32438965 23.84033203 -0.34057617 C30.07942448 0.33192684 33.90182944 3.44647715 38 8 C38.66 8.99 39.32 9.98 40 11 C39.67 11.99 39.34 12.98 39 14 C38.7525 13.360625 38.505 12.72125 38.25 12.0625 C37.18437567 9.81258459 37.18437567 9.81258459 34.875 9.25 C34.25625 9.1675 33.6375 9.085 33 9 C33 8.34 33 7.68 33 7 C32.01 6.67 31.02 6.34 30 6 C29.67 4.68 29.34 3.36 29 2 C19.43 1.67 9.86 1.34 0 1 C0 0.67 0 0.34 0 0 Z " fill="#1AA15B" transform="translate(219,62)"/>
<path d="M0 0 C0.81791016 0.2165625 0.81791016 0.2165625 1.65234375 0.4375 C8.84511517 2.20802835 15.74323587 2.87271332 23 1 C23 3 23 3 21.40234375 4.60546875 C18.29229267 6.41081547 16.14070611 6.36627651 12.5625 6.3125 C11.45003906 6.30863281 10.33757812 6.30476563 9.19140625 6.30078125 C5.9993773 5.99994131 3.78305157 5.59103674 1 4 C0.1875 1.875 0.1875 1.875 0 0 Z " fill="#04A852" transform="translate(173,115)"/>
<path d="M0 0 C0.845625 0.495 1.69125 0.99 2.5625 1.5 C8.5397059 4.14137937 15.59727001 3.22248869 22 3 C21 5 21 5 18.84765625 6.12890625 C15.50820549 7.1504392 12.9181643 7.15932681 9.4375 6.9375 C8.32246094 6.88464844 7.20742188 6.83179687 6.05859375 6.77734375 C2.21588913 5.80071767 1.13024158 4.25525914 -1 1 C-0.67 0.67 -0.34 0.34 0 0 Z " fill="#06A851" transform="translate(42,107)"/>
<path d="M0 0 C0.99 0.33 1.98 0.66 3 1 C3 2.32 3 3.64 3 5 C2.34 5 1.68 5 1 5 C1 5.66 1 6.32 1 7 C-0.32 7.33 -1.64 7.66 -3 8 C-3 10.97 -3 13.94 -3 17 C-3.66 17.33 -4.32 17.66 -5 18 C-5.05423638 16.08364783 -5.09289963 14.16685075 -5.125 12.25 C-5.14820312 11.18265625 -5.17140625 10.1153125 -5.1953125 9.015625 C-5.00122458 6.01890746 -4.67232902 4.45865591 -3 2 C-2.01 1.34 -1.02 0.68 0 0 Z " fill="#06A94E" transform="translate(124,84)"/>
<path d="M0 0 C5.8022175 -0.36263859 9.63999211 0.74315457 15 3 C14.1875 4.9375 14.1875 4.9375 13 7 C12.01 7.33 11.02 7.66 10 8 C9.34 7.67 8.68 7.34 8 7 C6.46331135 6.77532169 4.92031946 6.59203195 3.375 6.4375 C2.55773437 6.35371094 1.74046875 6.26992187 0.8984375 6.18359375 C0.27195312 6.12300781 -0.35453125 6.06242187 -1 6 C-1 5.34 -1 4.68 -1 4 C2.63 4 6.26 4 10 4 C10 3.34 10 2.68 10 2 C6.7 1.67 3.4 1.34 0 1 C0 0.67 0 0.34 0 0 Z " fill="#219A5D" transform="translate(101,73)"/>
<path d="M0 0 C0 1.98 0 3.96 0 6 C-3.2603118 7.93773248 -5.72861936 8.27072187 -9.5 8.25 C-10.4384375 8.25515625 -11.376875 8.2603125 -12.34375 8.265625 C-15.04047676 7.99595232 -16.68949293 7.3732259 -19 6 C-15.99686252 4.49843126 -13.20932478 4.90718796 -9.875 4.9375 C-8.59367188 4.94652344 -7.31234375 4.95554687 -5.9921875 4.96484375 C-5.00476563 4.97644531 -4.01734375 4.98804687 -3 5 C-2.67 4.34 -2.34 3.68 -2 3 C-5.96 3 -9.92 3 -14 3 C-14 2.67 -14 2.34 -14 2 C-12.95199219 1.90912109 -12.95199219 1.90912109 -11.8828125 1.81640625 C-10.97273437 1.73261719 -10.06265625 1.64882812 -9.125 1.5625 C-8.22007812 1.48128906 -7.31515625 1.40007812 -6.3828125 1.31640625 C-3.9906624 0.99876009 -2.3900132 0 0 0 Z " fill="#29965E" transform="translate(143,107)"/>
<path d="M0 0 C0.09796875 0.59167969 0.1959375 1.18335937 0.296875 1.79296875 C1.25769801 6.87042139 2.2985201 10.17513744 6 14 C3.50638429 12.79618552 1.31856917 11.54571278 -1 10 C-1.99 11.485 -1.99 11.485 -3 13 C-5 10 -5 10 -4.8125 6.5 C-3.30357143 0 -3.30357143 0 0 0 Z " fill="#1E9C5B" transform="translate(175,95)"/>
<path d="M0 0 C0.33 0 0.66 0 1 0 C1.03738281 1.30195312 1.07476562 2.60390625 1.11328125 3.9453125 C1.17896674 5.67190257 1.24541318 7.39846381 1.3125 9.125 C1.33505859 9.9809375 1.35761719 10.836875 1.38085938 11.71875 C1.59916609 16.87872696 2.26598502 20.48050585 5 25 C5.66666667 26.33333333 6.33333333 27.66666667 7 29 C2.64889797 26.0600662 0.06508682 23.15770391 -1 18 C-1.74458484 5.23375451 -1.74458484 5.23375451 0 0 Z " fill="#259B5F" transform="translate(264,88)"/>
<path d="M0 0 C0.33 0.99 0.66 1.98 1 3 C2.32 2.67 3.64 2.34 5 2 C2.51545911 6.78504172 0.52048157 9.86077669 -4 13 C-4.49230769 5.73846154 -4.49230769 5.73846154 -2 2 C-1.34 1.34 -0.68 0.68 0 0 Z " fill="#1B9C59" transform="translate(162,87)"/>
<path d="M0 0 C4.95 0.99 4.95 0.99 10 2 C10 2.66 10 3.32 10 4 C17.04207705 3.2812193 17.04207705 3.2812193 24 2 C20.86454662 5.60577139 18.46195284 5.85667129 13.8125 6.3125 C9.02356431 5.91996429 5.13739654 4.43271814 1 2 C0.67 1.34 0.34 0.68 0 0 Z " fill="#26975E" transform="translate(271,117)"/>
<path d="M0 0 C0.33 0.66 0.66 1.32 1 2 C0.0919838 3.13199353 -0.82683826 4.25532363 -1.75 5.375 C-2.26046875 6.00148438 -2.7709375 6.62796875 -3.296875 7.2734375 C-5.71390712 9.72373153 -7.83929498 10.88491944 -11.29003906 11.22705078 C-12.10698242 11.21657715 -12.92392578 11.20610352 -13.765625 11.1953125 C-14.65507812 11.18886719 -15.54453125 11.18242188 -16.4609375 11.17578125 C-17.38132813 11.15902344 -18.30171875 11.14226562 -19.25 11.125 C-20.18585938 11.11597656 -21.12171875 11.10695313 -22.0859375 11.09765625 C-24.39088657 11.07413636 -26.6953116 11.04126853 -29 11 C-29 10.67 -29 10.34 -29 10 C-23.06 9.505 -23.06 9.505 -17 9 C-17 8.34 -17 7.68 -17 7 C-16.443125 7.350625 -15.88625 7.70125 -15.3125 8.0625 C-12.34632853 9.26500195 -11.00566164 9.05198158 -8 8 C-6.62804426 6.70644173 -5.28817344 5.37701298 -4 4 C-3.34 4 -2.68 4 -2 4 C-1.34 2.68 -0.68 1.36 0 0 Z " fill="#14A656" transform="translate(257,91)"/>
<path d="M0 0 C-1.57124339 3.14248678 -4.2977685 3.70128824 -7.4375 5.125 C-8.61183594 5.66382812 -9.78617188 6.20265625 -10.99609375 6.7578125 C-14 8 -14 8 -16 8 C-16 7.01 -16 6.02 -16 5 C-11.12960055 0.40161754 -6.48172473 -0.57872542 0 0 Z " fill="#05A852" transform="translate(185,75)"/>
<path d="M0 0 C1.79244141 0.01740234 1.79244141 0.01740234 3.62109375 0.03515625 C5.41740234 0.04869141 5.41740234 0.04869141 7.25 0.0625 C8.17683594 0.07410156 9.10367188 0.08570312 10.05859375 0.09765625 C10.05859375 0.75765625 10.05859375 1.41765625 10.05859375 2.09765625 C6.09859375 2.09765625 2.13859375 2.09765625 -1.94140625 2.09765625 C-1.94140625 9.68765625 -1.94140625 17.27765625 -1.94140625 25.09765625 C-2.27140625 25.09765625 -2.60140625 25.09765625 -2.94140625 25.09765625 C-3.13725978 21.11885397 -3.32169295 17.13960469 -3.50390625 13.16015625 C-3.55998047 12.02384766 -3.61605469 10.88753906 -3.67382812 9.71679688 C-3.72216797 8.63720703 -3.77050781 7.55761719 -3.8203125 6.4453125 C-3.86744385 5.44508057 -3.9145752 4.44484863 -3.96313477 3.41430664 C-3.93031776 -0.08457589 -3.53937072 0.11750899 0 0 Z " fill="#2AA466" transform="translate(229.94140625,68.90234375)"/>
<path d="M0 0 C0.33 0.66 0.66 1.32 1 2 C0.67 2.99 0.34 3.98 0 5 C-0.44188348 11.62825225 0.14531806 16.72240222 4.6875 21.9375 C5.3371875 22.4634375 5.3371875 22.4634375 6 23 C3.75 23.0625 3.75 23.0625 1 22 C-2.96656081 16.30994952 -3.42794132 10.74007572 -3 4 C-2.34 4 -1.68 4 -1 4 C-0.67 2.68 -0.34 1.36 0 0 Z " fill="#219F5F" transform="translate(274,89)"/>
<path d="M0 0 C0.80824219 0.10183594 1.61648437 0.20367187 2.44921875 0.30859375 C3.06410156 0.39238281 3.67898437 0.47617188 4.3125 0.5625 C5.4375 4.3125 5.4375 4.3125 4.3125 6.5625 C1.6725 6.2325 -0.9675 5.9025 -3.6875 5.5625 C-3.6875 5.2325 -3.6875 4.9025 -3.6875 4.5625 C-1.3775 4.5625 0.9325 4.5625 3.3125 4.5625 C2.9825 3.9025 2.6525 3.2425 2.3125 2.5625 C-2.20367599 2.48595464 -6.27835217 2.46021304 -10.6875 3.5625 C-7.34927415 -0.09365212 -4.82833427 -0.62978273 0 0 Z " fill="#25985D" transform="translate(105.6875,80.4375)"/>
<path d="M0 0 C3.63 0.66 7.26 1.32 11 2 C11 2.66 11 3.32 11 4 C7.37 4 3.74 4 0 4 C0 4.66 0 5.32 0 6 C-1.32 5.67 -2.64 5.34 -4 5 C-3.67 4.01 -3.34 3.02 -3 2 C-2.01 2 -1.02 2 0 2 C0 1.34 0 0.68 0 0 Z " fill="#07A951" transform="translate(100,73)"/>
<path d="M0 0 C1.32 0.66 2.64 1.32 4 2 C4 4.64 4 7.28 4 10 C3.34 10 2.68 10 2 10 C2 10.99 2 11.98 2 13 C1.01 13 0.02 13 -1 13 C-0.67 8.71 -0.34 4.42 0 0 Z " fill="#06A951" transform="translate(197,93)"/>
<path d="M0 0 C0.33 0 0.66 0 1 0 C1.50377768 2.26999825 2.00290019 4.54103003 2.5 6.8125 C2.7784375 8.07707031 3.056875 9.34164062 3.34375 10.64453125 C4 14 4 14 4 17 C2.35 17.33 0.7 17.66 -1 18 C-1.66 17.01 -2.32 16.02 -3 15 C-2.67 14.01 -2.34 13.02 -2 12 C-1.34 12.66 -0.68 13.32 0 14 C0 9.38 0 4.76 0 0 Z " fill="#209B5C" transform="translate(114,94)"/>
<path d="M0 0 C0.66 0 1.32 0 2 0 C4.28571429 8.42857143 4.28571429 8.42857143 4 13 C3.01 13 2.02 13 1 13 C-0.32229189 10.35541621 -0.09677194 8.32238699 -0.0625 5.375 C-0.05347656 4.37210937 -0.04445313 3.36921875 -0.03515625 2.3359375 C-0.02355469 1.56507812 -0.01195313 0.79421875 0 0 Z " fill="#04A854" transform="translate(111,95)"/>
<path d="M0 0 C0 1.98 0 3.96 0 6 C-0.99 6 -1.98 6 -3 6 C-2.67 5.01 -2.34 4.02 -2 3 C-2.99 3.33 -3.98 3.66 -5 4 C-6.64176695 4.14252401 -8.28982655 4.22026755 -9.9375 4.25 C-10.79214844 4.27578125 -11.64679688 4.3015625 -12.52734375 4.328125 C-15.46144478 3.93876562 -16.80700201 2.93350171 -19 1 C-17.80503906 1.14308594 -17.80503906 1.14308594 -16.5859375 1.2890625 C-10.47867011 1.92802235 -5.57291019 0 0 0 Z " fill="#2C9861" transform="translate(143,114)"/>
<path d="M0 0 C0.33 0.66 0.66 1.32 1 2 C7.435 1.505 7.435 1.505 14 1 C13.67 1.99 13.34 2.98 13 4 C8.38 4 3.76 4 -1 4 C-1.33 3.01 -1.66 2.02 -2 1 C-1.34 0.67 -0.68 0.34 0 0 Z " fill="#03AA53" transform="translate(127,109)"/>
<path d="M0 0 C0.99 0.495 0.99 0.495 2 1 C3.38730913 5.49348553 3.11320772 10.15909157 3.0625 14.8125 C3.05798828 15.60076172 3.05347656 16.38902344 3.04882812 17.20117188 C3.03711312 19.13414761 3.01917998 21.06708393 3 23 C2.67 23 2.34 23 2 23 C2 18.71 2 14.42 2 10 C1.34 10 0.68 10 0 10 C0 6.7 0 3.4 0 0 Z " fill="#22A856" transform="translate(82,96)"/>
<path d="M0 0 C0.66 0 1.32 0 2 0 C1.82374165 2.37948772 1.30280227 3.70225849 -0.40234375 5.37890625 C-1.90649092 6.62115486 -3.45129851 7.81376056 -5 9 C-6.32 8.34 -7.64 7.68 -9 7 C-8.01 7 -7.02 7 -6 7 C-6 6.01 -6 5.02 -6 4 C-4.02 3.34 -2.04 2.68 0 2 C0 1.34 0 0.68 0 0 Z " fill="#05A953" transform="translate(72,110)"/>
<path d="M0 0 C0.33 0 0.66 0 1 0 C1.06058594 0.69867188 1.12117188 1.39734375 1.18359375 2.1171875 C1.26738281 3.02726562 1.35117187 3.93734375 1.4375 4.875 C1.51871094 5.77992187 1.59992188 6.68484375 1.68359375 7.6171875 C1.86989285 10.01110861 1.86989285 10.01110861 3 12 C2.979375 12.78375 2.95875 13.5675 2.9375 14.375 C3.00480292 17.2017225 3.48366567 18.64125772 5 21 C5.66 21.33 6.32 21.66 7 22 C7 22.66 7 23.32 7 24 C3.83884224 22.63016497 3.0072908 22.0109362 1 19 C-0.13128266 12.66481708 -0.10623015 6.42102245 0 0 Z " fill="#17A059" transform="translate(317,95)"/>
<path d="M0 0 C0.33 0 0.66 0 1 0 C1 3.63 1 7.26 1 11 C0.34 11 -0.32 11 -1 11 C-1 12.65 -1 14.3 -1 16 C-1.66 16 -2.32 16 -3 16 C-3.125 10.25 -3.125 10.25 -2 8 C-1.62338184 6.63097926 -1.27138664 5.25506476 -0.9375 3.875 C-0.628125 2.59625 -0.31875 1.3175 0 0 Z " fill="#04A94F" transform="translate(206,96)"/>
<path d="M0 0 C3.68186995 1.1834582 5.43240633 3.43006168 7.25 6.78125 C8.69995751 11.07070763 8.29067177 15.53495861 8 20 C7.67 20 7.34 20 7 20 C6.87625 18.2984375 6.87625 18.2984375 6.75 16.5625 C5.99576067 10.4192753 3.40642525 5.10963788 0 0 Z " fill="#1E9C5D" transform="translate(194,83)"/>
<path d="M0 0 C2.875 -0.1875 2.875 -0.1875 6 0 C6.66 0.99 7.32 1.98 8 3 C7 4 7 4 5.15234375 4.09765625 C3.1015625 4.06510417 1.05078125 4.03255208 -1 4 C-0.67 2.68 -0.34 1.36 0 0 Z " fill="#06A752" transform="translate(131,81)"/>
<path d="M0 0 C0.33 0 0.66 0 1 0 C1 7.59 1 15.18 1 23 C1.66 23 2.32 23 3 23 C2.67 23.99 2.34 24.98 2 26 C1.34 26 0.68 26 0 26 C0 17.42 0 8.84 0 0 Z " fill="#18A35D" transform="translate(162,57)"/>
<path d="M0 0 C3.3 0.33 6.6 0.66 10 1 C10 1.66 10 2.32 10 3 C8.68 3.33 7.36 3.66 6 4 C6 4.66 6 5.32 6 6 C4.125 5.8125 4.125 5.8125 2 5 C0.75 2.4375 0.75 2.4375 0 0 Z " fill="#12A355" transform="translate(36,114)"/>
<path d="M0 0 C1.98 0 3.96 0 6 0 C6 0.66 6 1.32 6 2 C7.65 2 9.3 2 11 2 C11 2.99 11 3.98 11 5 C7.37 4.34 3.74 3.68 0 3 C0 2.01 0 1.02 0 0 Z " fill="#06A852" transform="translate(186,75)"/>
<path d="M0 0 C-0.33 1.65 -0.66 3.3 -1 5 C-4.3 4.67 -7.6 4.34 -11 4 C-10 2 -10 2 -6.625 0.875 C-3 0 -3 0 0 0 Z " fill="#05AB53" transform="translate(141,117)"/>
<path d="M0 0 C3 1.625 3 1.625 6 4 C6.375 7.25 6.375 7.25 6 10 C5.34 10 4.68 10 4 10 C3.34 8.02 2.68 6.04 2 4 C1.34 4 0.68 4 0 4 C0 2.68 0 1.36 0 0 Z " fill="#05A753" transform="translate(199,80)"/>
<path d="M0 0 C3.77545388 1.09068668 6.47043472 1.9083091 9 5 C2.25 5.125 2.25 5.125 0 4 C0 2.68 0 1.36 0 0 Z " fill="#08A750" transform="translate(120,114)"/>
<path d="M0 0 C0.66 0 1.32 0 2 0 C2.66 2.31 3.32 4.62 4 7 C3.34 6.67 2.68 6.34 2 6 C2 5.34 2 4.68 2 4 C1.01 4 0.02 4 -1 4 C-0.34 6.31 0.32 8.62 1 11 C-0.77624543 9.45543876 -1.9006995 8.21987969 -2.875 6.0625 C-3 4 -3 4 -1.6875 1.75 C-1.130625 1.1725 -0.57375 0.595 0 0 Z " fill="#2C965F" transform="translate(167,103)"/>
<path d="M0 0 C1.32 0.33 2.64 0.66 4 1 C4 1.66 4 2.32 4 3 C4.66 3 5.32 3 6 3 C6.625 4.875 6.625 4.875 7 7 C6.34 7.66 5.68 8.32 5 9 C4.34 8.34 3.68 7.68 3 7 C3 5.68 3 4.36 3 3 C2.01 2.67 1.02 2.34 0 2 C0 1.34 0 0.68 0 0 Z " fill="#03AB52" transform="translate(33,99)"/>
<path d="M0 0 C1.67542976 0.28604898 3.34385343 0.61781233 5 1 C4.67 1.66 4.34 2.32 4 3 C3.34 3 2.68 3 2 3 C2 3.66 2 4.32 2 5 C0.35 5 -1.3 5 -3 5 C-1.125 1.125 -1.125 1.125 0 0 Z " fill="#04A952" transform="translate(122,76)"/>
<path d="M0 0 C0.33 0.99 0.66 1.98 1 3 C-0.98 3.99 -0.98 3.99 -3 5 C-3 5.66 -3 6.32 -3 7 C-3.66 7 -4.32 7 -5 7 C-5.33 6.01 -5.66 5.02 -6 4 C-2.25 0 -2.25 0 0 0 Z " fill="#05A751" transform="translate(36,68)"/>
<path d="M0 0 C1.32 0.33 2.64 0.66 4 1 C3.67 2.32 3.34 3.64 3 5 C3.66 5.33 4.32 5.66 5 6 C3.68 7.32 2.36 8.64 1 10 C0.67 6.7 0.34 3.4 0 0 Z " fill="#10A357" transform="translate(347,116)"/>
<path d="M0 0 C0.33 0 0.66 0 1 0 C1 4.29 1 8.58 1 13 C2.32 13.33 3.64 13.66 5 14 C5 14.33 5 14.66 5 15 C3.35 15 1.7 15 0 15 C-1.47193312 12.05613377 -0.84936173 9.62609964 -0.5625 6.375 C-0.46066406 5.18648438 -0.35882813 3.99796875 -0.25390625 2.7734375 C-0.17011719 1.85820313 -0.08632812 0.94296875 0 0 Z " fill="#349C68" transform="translate(83,106)"/>
<path d="M0 0 C0.33 0.99 0.66 1.98 1 3 C0.525625 3.5775 0.05125 4.155 -0.4375 4.75 C-2.59918279 7.86282322 -2.21340788 10.30093002 -2 14 C-2.99 14.33 -3.98 14.66 -5 15 C-4.7242265 8.7950962 -3.89359206 4.89839001 0 0 Z " fill="#2D9363" transform="translate(163,96)"/>
<path d="M0 0 C0.33 0.66 0.66 1.32 1 2 C-4.0940919 8.70459519 -4.0940919 8.70459519 -7.875 9.9375 C-8.57625 9.958125 -9.2775 9.97875 -10 10 C-5.375 5.125 -5.375 5.125 -2 4 C-0.79117904 1.99983534 -0.79117904 1.99983534 0 0 Z " fill="#2A965F" transform="translate(257,91)"/>
<path d="M0 0 C4.75 0.75 4.75 0.75 7 3 C7.39764263 4.98821313 7.73775349 6.98944339 8 9 C5.525 8.01 5.525 8.01 3 7 C3.66 6.67 4.32 6.34 5 6 C3.86695008 2.60085025 2.87481525 1.94745549 0 0 Z " fill="#2D9661" transform="translate(66,62)"/>
<path d="M0 0 C2.00720923 0.28674418 4.0085944 0.61866701 6 1 C6.33 2.32 6.66 3.64 7 5 C5.35 5 3.7 5 2 5 C2.33 4.34 2.66 3.68 3 3 C1.68 2.34 0.36 1.68 -1 1 C-0.67 0.67 -0.34 0.34 0 0 Z " fill="#0AA755" transform="translate(64,63)"/>
<path d="M0 0 C4.95 0.99 4.95 0.99 10 2 C10 2.66 10 3.32 10 4 C7.25 4.25 7.25 4.25 4 4 C1.625 2 1.625 2 0 0 Z " fill="#179F59" transform="translate(271,117)"/>
<path d="M0 0 C-0.33 0.66 -0.66 1.32 -1 2 C-3.97 2 -6.94 2 -10 2 C-10 1.34 -10 0.68 -10 0 C-6.42355152 -1.2380014 -3.66305234 -0.74926071 0 0 Z " fill="#04A94F" transform="translate(66,96)"/>
<path d="M0 0 C0.66 0.66 1.32 1.32 2 2 C1.34 3.32 0.68 4.64 0 6 C-3.465 4.02 -3.465 4.02 -7 2 C-7 1.67 -7 1.34 -7 1 C-5.5459375 1.0309375 -5.5459375 1.0309375 -4.0625 1.0625 C-1.12534105 1.35618499 -1.12534105 1.35618499 0 0 Z " fill="#189F59" transform="translate(198,78)"/>
<path d="M0 0 C2.24973447 -0.054138 4.49984383 -0.09285491 6.75 -0.125 C8.00296875 -0.14820313 9.2559375 -0.17140625 10.546875 -0.1953125 C13.72820492 -0.01537302 15.36521896 0.31001418 18 2 C13.25 3.125 13.25 3.125 11 2 C9.12943209 1.7724985 7.25314042 1.59037189 5.375 1.4375 C4.37210938 1.35371094 3.36921875 1.26992188 2.3359375 1.18359375 C1.56507812 1.12300781 0.79421875 1.06242187 0 1 C0 0.67 0 0.34 0 0 Z " fill="#2A985F" transform="translate(48,60)"/>
<path d="M0 0 C0.33 0.99 0.66 1.98 1 3 C-0.21484375 4.82421875 -0.21484375 4.82421875 -1.9375 6.6875 C-2.50339844 7.31011719 -3.06929688 7.93273437 -3.65234375 8.57421875 C-4.09707031 9.04472656 -4.54179687 9.51523438 -5 10 C-5.66 9.67 -6.32 9.34 -7 9 C-6.67 8.34 -6.34 7.68 -6 7 C-5.34 7 -4.68 7 -4 7 C-3.71125 6.401875 -3.4225 5.80375 -3.125 5.1875 C-2 3 -2 3 0 0 Z " fill="#25975A" transform="translate(355,128)"/>
<path d="M0 0 C4.21422242 2.88341534 5.76075855 5.04303419 7 10 C1.21538462 5.69230769 1.21538462 5.69230769 0.125 2.1875 C0.08375 1.465625 0.0425 0.74375 0 0 Z " fill="#1C9A58" transform="translate(149,79)"/>
<path d="M0 0 C0.66 1.32 1.32 2.64 2 4 C1.38125 4.598125 0.7625 5.19625 0.125 5.8125 C-2.13676954 8.00811144 -2.13676954 8.00811144 -4 11 C-3.48964169 6.6109185 -2.47785723 3.66291938 0 0 Z " fill="#22A35E" transform="translate(35,76)"/>
<path d="M0 0 C5.75 1.75 5.75 1.75 8 4 C6.35 3.67 4.7 3.34 3 3 C2.67 4.98 2.34 6.96 2 9 C1.67 9 1.34 9 1 9 C0.67 6.03 0.34 3.06 0 0 Z " fill="#2C915C" transform="translate(319,126)"/>
<path d="M0 0 C0.33 0 0.66 0 1 0 C1 1.98 1 3.96 1 6 C-4.75 4.25 -4.75 4.25 -7 2 C-4.69 2.33 -2.38 2.66 0 3 C0 2.01 0 1.02 0 0 Z " fill="#2A985F" transform="translate(72,72)"/>
<path d="M0 0 C0.99 0 1.98 0 3 0 C3 1.32 3 2.64 3 4 C1.35 4.33 -0.3 4.66 -2 5 C-1.125 1.125 -1.125 1.125 0 0 Z " fill="#09A551" transform="translate(165,85)"/>
<path d="M0 0 C1.98 0 3.96 0 6 0 C6.33 0.99 6.66 1.98 7 3 C5.02 3 3.04 3 1 3 C0.67 2.01 0.34 1.02 0 0 Z " fill="#02AA51" transform="translate(102,82)"/>
<path d="M0 0 C1.99097846 2.98646769 2.94124926 5.59687262 4 9 C2.68 8.67 1.36 8.34 0 8 C0 5.36 0 2.72 0 0 Z " fill="#1B9F5A" transform="translate(29,98)"/>
<path d="M0 0 C0 0.33 0 0.66 0 1 C-7.42857143 3.42857143 -7.42857143 3.42857143 -11 2 C-6.89657963 -0.38570952 -4.61380251 -1.49270081 0 0 Z " fill="#1C9D5A" transform="translate(106,81)"/>
<path d="M0 0 C1.32 0.99 2.64 1.98 4 3 C3.34 4.32 2.68 5.64 2 7 C1.34 7 0.68 7 0 7 C0 4.69 0 2.38 0 0 Z " fill="#179F55" transform="translate(39,102)"/>
<path d="M0 0 C0.66 0 1.32 0 2 0 C1.67 1.98 1.34 3.96 1 6 C0.01 6 -0.98 6 -2 6 C-1.125 1.125 -1.125 1.125 0 0 Z " fill="#03AB4E" transform="translate(116,82)"/>
</svg>
