<?xml version="1.0" encoding="UTF-8"?>
<svg version="1.1" xmlns="http://www.w3.org/2000/svg" width="661" height="168">
<path d="M0 0 C1.084021 0.00523682 2.16804199 0.01047363 3.28491211 0.01586914 C5.03964844 0.02070312 5.03964844 0.02070312 6.82983398 0.02563477 C8.67738281 0.03820313 8.67738281 0.03820313 10.56225586 0.05102539 C12.41560547 0.05779297 12.41560547 0.05779297 14.30639648 0.06469727 C17.37089703 0.07652931 20.43530307 0.09301366 23.49975586 0.11352539 C26.42554373 7.18415924 28.99359474 14.32460552 31.39038086 21.59008789 C31.73985779 22.64134857 32.08933472 23.69260925 32.44940186 24.77572632 C33.55236958 28.09572159 34.65113119 31.41709075 35.74975586 34.73852539 C36.50208109 37.00554506 37.25468264 39.27247305 38.00756836 41.53930664 C39.84149157 47.06299096 41.67197429 52.58780597 43.49975586 58.11352539 C46.34245314 51.30522238 48.7469107 44.45828728 50.88256836 37.39868164 C51.49844284 35.39412099 52.11432858 33.3895638 52.73022461 31.38500977 C53.6838594 28.26260895 54.63582018 25.13970289 55.5871582 22.01660156 C56.51494535 18.97604822 57.44853583 15.93732115 58.38256836 12.89868164 C58.66593048 11.96121597 58.9492926 11.02375031 59.24124146 10.05787659 C59.50847015 9.18944626 59.77569885 8.32101593 60.05102539 7.42626953 C60.39932907 6.28237511 60.39932907 6.28237511 60.75466919 5.1153717 C61.49975586 3.11352539 61.49975586 3.11352539 63.49975586 0.11352539 C66.11352539 -0.22705078 66.11352539 -0.22705078 69.38256836 -0.17944336 C70.54916992 -0.16977539 71.71577148 -0.16010742 72.91772461 -0.15014648 C74.14104492 -0.12500977 75.36436523 -0.09987305 76.62475586 -0.07397461 C78.47133789 -0.05367187 78.47133789 -0.05367187 80.35522461 -0.03295898 C83.40383429 0.00248997 86.45158086 0.0519046 89.49975586 0.11352539 C90.71518077 3.00724428 90.46726568 4.21513005 89.49243164 7.26367188 C88.98408038 8.50705403 88.46775816 9.74719619 87.94506836 10.98461914 C79.55068552 31.30214391 79.55068552 31.30214391 83.45141602 52.3203125 C84.39415184 54.28824808 85.43562529 56.20849327 86.49975586 58.11352539 C88.27342959 55.4530148 89.20276318 53.43777648 90.23974609 50.46191406 C90.73552406 49.04980904 90.73552406 49.04980904 91.24131775 47.60917664 C91.59343826 46.59354141 91.94555878 45.57790619 92.30834961 44.53149414 C92.67573746 43.48455887 93.04312531 42.4376236 93.42164612 41.35896301 C94.59750329 38.00769754 95.76798711 34.65459483 96.93725586 31.30102539 C98.47307558 26.89707423 100.01416507 22.49501823 101.55834961 18.09399414 C101.90844589 17.08443161 102.25854218 16.07486908 102.61924744 15.03471375 C106.96627897 2.64700228 106.96627897 2.64700228 109.49975586 0.11352539 C111.35345197 0.02614894 113.21043127 0.00654386 115.06616211 0.01586914 C116.19086914 0.0190918 117.31557617 0.02231445 118.47436523 0.02563477 C119.65836914 0.03401367 120.84237305 0.04239258 122.06225586 0.05102539 C123.25012695 0.05553711 124.43799805 0.06004883 125.66186523 0.06469727 C128.60787812 0.07652864 131.55379267 0.09301252 134.49975586 0.11352539 C135.64961448 3.47365 135.37441378 5.22875251 134.04711914 8.4909668 C133.52780571 9.79089317 133.52780571 9.79089317 132.9980011 11.11708069 C132.60928329 12.05692307 132.22056549 12.99676544 131.82006836 13.96508789 C131.22049568 15.45237648 131.22049568 15.45237648 130.60881042 16.9697113 C129.29137554 20.23038437 127.95823772 23.48438576 126.62475586 26.73852539 C125.71384726 28.98348264 124.80394348 31.22884786 123.89501953 33.47460938 C122.02894067 38.08072998 120.15665732 42.68425549 118.27954102 47.28588867 C115.63984055 53.76116902 113.02512991 60.24627937 110.41772461 66.73461914 C109.2540525 69.62665859 108.0899956 72.51854273 106.92572021 75.41033936 C106.18372699 77.25334429 105.44206815 79.09648388 104.70074463 80.9397583 C103.6741705 83.48965092 102.64416073 86.03812599 101.61303711 88.58618164 C101.30980026 89.34104355 101.00656342 90.09590546 100.69413757 90.87364197 C98.61433911 95.99894214 98.61433911 95.99894214 97.49975586 97.11352539 C95.93802841 97.20038142 94.37246242 97.22054759 92.80834961 97.21118164 C91.86411133 97.20795898 90.91987305 97.20473633 89.94702148 97.20141602 C88.95379883 97.19303711 87.96057617 97.1846582 86.93725586 97.17602539 C85.94016602 97.17151367 84.94307617 97.16700195 83.91577148 97.16235352 C81.44370737 97.15052546 78.97176068 97.13404388 76.49975586 97.11352539 C73.74021675 91.76841812 71.33710409 86.44006052 69.24975586 80.80102539 C68.98163086 80.09913086 68.71350586 79.39723633 68.43725586 78.67407227 C67.32066204 75.68604441 66.49975586 73.32978036 66.49975586 70.11352539 C65.83975586 70.11352539 65.17975586 70.11352539 64.49975586 70.11352539 C64.41725586 70.89083008 64.33475586 71.66813477 64.24975586 72.46899414 C63.2398076 77.37671148 61.39630717 81.80069483 59.49975586 86.42602539 C59.13108398 87.34448242 58.76241211 88.26293945 58.38256836 89.20922852 C55.6449616 95.96831965 55.6449616 95.96831965 54.49975586 97.11352539 C52.93802841 97.20038142 51.37246242 97.22054759 49.80834961 97.21118164 C48.86411133 97.20795898 47.91987305 97.20473633 46.94702148 97.20141602 C45.95379883 97.19303711 44.96057617 97.1846582 43.93725586 97.17602539 C42.94016602 97.17151367 41.94307617 97.16700195 40.91577148 97.16235352 C38.44370448 97.15052544 35.9717692 97.13320497 33.49975586 97.11352539 C29.57308927 89.69404594 26.44771292 82.11713933 23.51538086 74.25805664 C22.81190109 72.39390304 22.10842005 70.52974992 21.40487289 68.66562176 C20.42752823 66.07194671 19.45512421 63.4764307 18.48266602 60.88092041 C16.56921918 55.77717384 14.64622827 50.67701033 12.72392273 45.57659531 C12.01834047 43.70341381 11.31403809 41.82975037 10.60974121 39.95608521 C7.23758002 31.0048654 3.77924992 22.09021961 0.21514893 13.21357727 C-0.1295343 12.34613388 -0.47421753 11.47869049 -0.8293457 10.58496094 C-1.27966156 9.46349922 -1.27966156 9.46349922 -1.73907471 8.31938171 C-2.56575627 5.92367232 -3.13436432 3.62146495 -3.50024414 1.11352539 C-2.50024414 0.11352539 -2.50024414 0.11352539 0 0 Z " fill="#7B1A77" transform="translate(492.500244140625,37.886474609375)"/>
<path d="M0 0 C1.5703125 1.67578125 1.5703125 1.67578125 1.97265625 4.08984375 C1.27339209 8.58414352 -0.90056778 11.83087862 -4.4296875 14.67578125 C-7.64486794 15.14395665 -10.32006402 14.5032115 -13.4296875 13.67578125 C-25.2170081 10.94813681 -35.89222881 12.32921416 -46.30859375 18.3359375 C-55.02845933 24.11358993 -60.55655777 31.59394314 -63.4296875 41.67578125 C-65.62211098 54.22039983 -63.8402384 65.63365172 -56.5 76.16796875 C-49.11704483 85.11109558 -40.28121425 89.87477533 -28.75390625 91.05078125 C-16.71303868 91.44435404 -6.87927032 88.99477129 2.3125 81 C10.41154724 72.66274549 14.42920729 62.69468218 14.9453125 51.11328125 C14.76877282 45.77785986 13.1600242 40.73825601 11.5703125 35.67578125 C7.63224896 39.28331188 4.70784994 43.4690779 1.6328125 47.80078125 C0.48056377 49.41022428 -0.67178298 51.01959714 -1.82421875 52.62890625 C-2.41541504 53.45712891 -3.00661133 54.28535156 -3.61572266 55.13867188 C-6.58116707 59.28630288 -9.56840132 63.41814514 -12.5546875 67.55078125 C-13.09859131 68.30504395 -13.64249512 69.05930664 -14.20288086 69.83642578 C-14.71343018 70.54395996 -15.22397949 71.25149414 -15.75 71.98046875 C-16.19617676 72.59905762 -16.64235352 73.21764648 -17.10205078 73.85498047 C-17.5401709 74.45584473 -17.97829102 75.05670898 -18.4296875 75.67578125 C-18.93113281 76.39958984 -19.43257813 77.12339844 -19.94921875 77.86914062 C-21.4296875 79.67578125 -21.4296875 79.67578125 -23.796875 80.27734375 C-27.60432004 79.4073934 -29.25734923 77.00444174 -31.5546875 74.05078125 C-32.02334229 73.47263672 -32.49199707 72.89449219 -32.97485352 72.29882812 C-34.4763993 70.43708133 -35.95427607 68.55828541 -37.4296875 66.67578125 C-38.43577767 65.40721867 -39.44228539 64.13898714 -40.44921875 62.87109375 C-42.31633978 60.51181562 -44.1732324 58.14513494 -46.01953125 55.76953125 C-47.53622311 53.82265937 -49.08685179 51.90130686 -50.68359375 50.01953125 C-53.35589246 46.43255312 -53.35589246 46.43255312 -53.4296875 43.67578125 C-52.171875 40.9140625 -52.171875 40.9140625 -50.3046875 37.98828125 C-49.70398438 37.01503906 -49.10328125 36.04179688 -48.484375 35.0390625 C-46.4296875 32.67578125 -46.4296875 32.67578125 -44 31.53125 C-41.4296875 31.67578125 -41.4296875 31.67578125 -38.97265625 33.69140625 C-38.13347656 34.67625 -37.29429687 35.66109375 -36.4296875 36.67578125 C-35.97029785 37.21009766 -35.5109082 37.74441406 -35.03759766 38.29492188 C-33.08858147 40.57818802 -31.18027854 42.89402134 -29.27148438 45.2109375 C-26.73169822 48.39386294 -26.73169822 48.39386294 -23.4296875 50.67578125 C-23.18863281 49.96808594 -22.94757813 49.26039062 -22.69921875 48.53125 C-21.23041254 45.22756589 -19.37420712 42.81417325 -17.1171875 39.98828125 C-12.79404114 34.4997157 -8.63944419 28.90643859 -4.5546875 23.23828125 C-4.00772217 22.48135986 -3.46075684 21.72443848 -2.8972168 20.94458008 C-0.59445532 17.74427021 1.66493832 14.54923193 3.76953125 11.21484375 C5.5703125 8.67578125 5.5703125 8.67578125 8.5078125 7.48828125 C11.5703125 7.67578125 11.5703125 7.67578125 14.0078125 9.61328125 C15.27625 11.12921875 15.27625 11.12921875 16.5703125 12.67578125 C17.116875 13.22363281 17.6634375 13.77148438 18.2265625 14.3359375 C28.117201 24.55192595 32.4050729 38.69651116 32.5703125 52.67578125 C31.52459458 69.67838003 25.18475748 83.63511967 12.8828125 95.48828125 C-0.4632062 106.36183035 -16.59543043 110.05370417 -33.4296875 108.67578125 C-47.1213784 106.72484712 -61.11451856 98.94669151 -69.66064453 88.11572266 C-79.5385645 74.8273372 -83.69347443 60.22082832 -81.8046875 43.67578125 C-80.05733704 33.1101355 -75.80228047 24.21232959 -69.4296875 15.67578125 C-68.2540625 14.09796875 -68.2540625 14.09796875 -67.0546875 12.48828125 C-50.71916957 -5.01405939 -21.5751286 -11.75879195 0 0 Z " fill="#8C1675" transform="translate(463.4296875,35.32421875)"/>
<path d="M0 0 C1.69962891 -0.08701172 1.69962891 -0.08701172 3.43359375 -0.17578125 C11.56999222 -0.29978263 11.56999222 -0.29978263 14.68920898 2.14477539 C16.27712964 4.22306442 17.5139785 6.32148312 18.75 8.625 C19.66011937 10.02985595 20.57816659 11.4296064 21.50390625 12.82421875 C22.44382012 14.31798077 23.37987609 15.81417571 24.3125 17.3125 C24.81700684 18.116875 25.32151367 18.92125 25.84130859 19.75 C30.44407329 27.10087351 35.00776757 34.47638783 39.56079102 41.8581543 C40.07955811 42.69902588 40.5983252 43.53989746 41.1328125 44.40625 C41.59059082 45.14939453 42.04836914 45.89253906 42.52001953 46.65820312 C43.56715944 48.3326293 44.65452609 49.98178914 45.75 51.625 C45.76030746 51.0008168 45.77061493 50.37663361 45.78123474 49.73353577 C45.88906533 43.26145448 46.00368147 36.78951907 46.12231445 30.31762695 C46.16573878 27.89936361 46.20740812 25.4810681 46.24731445 23.06274414 C46.30483603 19.59511604 46.36858187 16.12765097 46.43359375 12.66015625 C46.45030624 11.57162857 46.46701874 10.48310089 46.48423767 9.36158752 C46.50418289 8.36062546 46.52412811 7.35966339 46.54467773 6.32836914 C46.56022202 5.44234512 46.5757663 4.55632111 46.59178162 3.64344788 C46.75 1.625 46.75 1.625 47.75 0.625 C49.44558726 0.52567847 51.14525747 0.49419993 52.84375 0.4921875 C53.87371094 0.49089844 54.90367187 0.48960938 55.96484375 0.48828125 C57.59099609 0.49408203 57.59099609 0.49408203 59.25 0.5 C60.33410156 0.49613281 61.41820312 0.49226563 62.53515625 0.48828125 C63.56511719 0.48957031 64.59507812 0.49085937 65.65625 0.4921875 C67.08420898 0.49387939 67.08420898 0.49387939 68.54101562 0.49560547 C70.75 0.625 70.75 0.625 71.75 1.625 C71.85059769 4.57209415 71.8861505 7.49579141 71.87939453 10.44335938 C71.88202301 11.83105278 71.88202301 11.83105278 71.88470459 13.2467804 C71.88912467 16.32078905 71.88618457 19.3947407 71.8828125 22.46875 C71.88348549 24.59484875 71.88445548 26.72094742 71.88571167 28.8470459 C71.88718886 33.3093336 71.88503342 37.77160133 71.88037109 42.23388672 C71.8746738 47.96770569 71.87795269 53.70147785 71.88394356 59.4352951 C71.88754861 63.82745723 71.88641084 68.21960817 71.88381577 72.61177063 C71.88314634 74.72658799 71.88397545 76.84140634 71.88629532 78.95622253 C71.88882093 81.90638946 71.88498254 84.85647946 71.87939453 87.80664062 C71.88141876 88.68979446 71.88344299 89.5729483 71.88552856 90.48286438 C71.86426234 96.51073766 71.86426234 96.51073766 70.75 97.625 C62.66133572 99.13856404 53.73043938 99.89178158 45.75 97.625 C40.26636046 93.64210752 37.66221792 87.24423421 34.95019531 81.21582031 C33.50181628 78.08925434 31.80505208 75.18379872 30.01091003 72.24589539 C28.79268019 70.23602894 27.60354606 68.21270824 26.42407227 66.17993164 C23.65982424 61.44668008 20.80745302 56.769764 17.94140625 52.09765625 C17.43903442 51.27720825 16.9366626 50.45676025 16.41906738 49.6114502 C15.19678303 47.61551293 13.97375097 45.62003826 12.75 43.625 C12.7345388 44.55128204 12.7345388 44.55128204 12.71876526 45.49627686 C12.61063254 51.92015018 12.49603989 58.34388516 12.37768555 64.76757812 C12.33435845 67.16533515 12.29268178 69.5631226 12.25268555 71.9609375 C12.19492937 75.40634326 12.13124994 78.85159625 12.06640625 82.296875 C12.04133751 83.90644073 12.04133751 83.90644073 12.01576233 85.54852295 C11.99581711 86.54925842 11.97587189 87.5499939 11.95532227 88.58105469 C11.93977798 89.46041687 11.9242337 90.33977905 11.90821838 91.24578857 C11.75 93.625 11.75 93.625 10.75 97.625 C2.83 97.625 -5.09 97.625 -13.25 97.625 C-14.91566098 94.29367803 -14.39719552 90.55555466 -14.39526367 86.89257812 C-14.39862228 85.9884166 -14.4019809 85.08425507 -14.40544128 84.1526947 C-14.41496667 81.15386596 -14.41689508 78.15509294 -14.41796875 75.15625 C-14.42117982 73.07881649 -14.42454377 71.00138322 -14.42805481 68.9239502 C-14.43404977 64.56599401 -14.43589429 60.20805767 -14.43530273 55.85009766 C-14.435201 50.25425332 -14.44886351 44.65853555 -14.46607494 39.06272125 C-14.47716886 34.77174286 -14.47922276 30.48079534 -14.47869301 26.18980408 C-14.47987668 24.12604841 -14.48431993 22.06229204 -14.49202538 19.99855042 C-14.50177439 17.11808279 -14.49896766 14.23789356 -14.49291992 11.35742188 C-14.49853943 10.49813583 -14.50415894 9.63884979 -14.50994873 8.75352478 C-14.45497064 -1.50124289 -8.59838934 0.14475403 0 0 Z " fill="#7C1977" transform="translate(301.25,37.375)"/>
<path d="M0 0 C1.29611206 0.0314209 1.29611206 0.0314209 2.6184082 0.06347656 C3.55620117 0.07636719 4.49399414 0.08925781 5.46020508 0.10253906 C6.43666992 0.13605469 7.41313477 0.16957031 8.41918945 0.20410156 C9.40725586 0.22214844 10.39532227 0.24019531 11.41333008 0.25878906 C13.85375788 0.30594709 16.29223715 0.37174114 18.73168945 0.45410156 C23.84436387 9.72613876 27.34345666 19.62745537 31.04418945 29.51660156 C32.4524257 33.26131029 33.86462374 37.00451207 35.27856445 40.74707031 C35.6397084 41.70385681 36.00085236 42.66064331 36.37294006 43.64642334 C38.97638111 50.52064189 41.65511678 57.36241153 44.37231445 64.19238281 C44.745634 65.13398758 45.11895355 66.07559235 45.50358582 67.04573059 C47.68200868 72.54029633 47.68200868 72.54029633 49.88223267 78.02615356 C50.89507511 80.53747661 51.89461374 83.05373515 52.8918457 85.57128906 C53.19620544 86.31417679 53.50056519 87.05706451 53.81414795 87.82246399 C55.35491524 91.74953106 55.78864513 93.22627885 54.73168945 97.45410156 C46.81168945 97.45410156 38.89168945 97.45410156 30.73168945 97.45410156 C29.4621582 94.39420573 28.19262695 91.3343099 26.9230957 88.27441406 C26.23625482 86.64851532 25.52103058 85.03278382 24.73168945 83.45410156 C13.51168945 83.12410156 2.29168945 82.79410156 -9.26831055 82.45410156 C-10.25831055 85.42410156 -11.24831055 88.39410156 -12.26831055 91.45410156 C-13.25831055 93.43410156 -14.24831055 95.41410156 -15.26831055 97.45410156 C-23.18831055 97.45410156 -31.10831055 97.45410156 -39.26831055 97.45410156 C-38.14333414 88.45429032 -38.14333414 88.45429032 -36.6328125 84.61914062 C-36.29719803 83.75370132 -35.96158356 82.88826202 -35.61579895 81.99659729 C-35.06674141 80.62204628 -35.06674141 80.62204628 -34.5065918 79.21972656 C-34.12383591 78.23983261 -33.74108002 77.25993866 -33.34672546 76.25035095 C-32.10013475 73.06476894 -30.8407424 69.88442784 -29.58081055 66.70410156 C-28.71735166 64.50691728 -27.85472758 62.30940474 -26.99291992 60.11157227 C-25.68634639 56.78092433 -24.37871889 53.45071642 -23.06716919 50.12202454 C-20.34477877 43.21254284 -17.65548051 36.29143234 -14.9987793 29.35644531 C-14.35719054 27.68616173 -13.71551064 26.01591316 -13.07373047 24.34570312 C-12.17760318 22.01326875 -11.2830445 19.68031117 -10.39419556 17.34509277 C-9.58715606 15.2268212 -8.77240677 13.11167241 -7.95581055 10.99707031 C-7.28098633 9.23399536 -7.28098633 9.23399536 -6.5925293 7.43530273 C-3.61094423 0.72288842 -3.61094423 0.72288842 0 0 Z M7.73168945 33.45410156 C5.2380936 39.37465037 3.02304343 45.3651975 0.98168945 51.45410156 C0.64778198 52.44228882 0.64778198 52.44228882 0.30712891 53.45043945 C-0.8741724 56.87878258 -0.8741724 56.87878258 -1.26831055 60.45410156 C4.67168945 60.45410156 10.61168945 60.45410156 16.73168945 60.45410156 C15.41933094 54.08979982 13.7194953 48.03289129 11.60668945 41.89160156 C11.32954102 41.07369141 11.05239258 40.25578125 10.7668457 39.41308594 C10.09263808 37.42533588 9.41276741 35.43950807 8.73168945 33.45410156 C8.40168945 33.45410156 8.07168945 33.45410156 7.73168945 33.45410156 Z " fill="#7B1A77" transform="translate(150.268310546875,37.5458984375)"/>
<path d="M0 0 C1.48305885 -0.02409439 1.48305885 -0.02409439 2.99607849 -0.04867554 C7.55711274 -0.09316014 12.1179982 -0.13425448 16.67919922 -0.15722656 C19.07773589 -0.17371802 21.47622481 -0.20091668 23.87451172 -0.23925781 C27.3385562 -0.29436053 30.80144379 -0.31595973 34.26586914 -0.33056641 C35.85708839 -0.36457047 35.85708839 -0.36457047 37.48045349 -0.39926147 C46.39804037 -0.37427272 52.26388564 2.51233741 59.61352539 7.31787109 C67.59253922 15.65956737 69.75299715 24.39779366 69.63696289 35.58349609 C68.96047631 44.51311898 64.90123927 51.21439139 58.36352539 57.19287109 C49.89828008 63.85988794 41.30424479 64.4959936 30.86352539 64.31787109 C29.3437207 64.30433594 29.3437207 64.30433594 27.79321289 64.29052734 C25.31639738 64.26716116 22.8400916 64.23440278 20.36352539 64.19287109 C20.37138062 65.63907837 20.37138062 65.63907837 20.37939453 67.11450195 C20.39744657 70.67959674 20.40895813 74.24468746 20.41845703 77.80981445 C20.42349679 79.35506875 20.43032859 80.90031826 20.43896484 82.44555664 C20.45104615 84.66212138 20.45675712 86.87862328 20.46118164 89.09521484 C20.46634293 89.7900145 20.47150421 90.48481415 20.4768219 91.20066833 C20.47701816 92.86516439 20.42541668 94.52952608 20.36352539 96.19287109 C18.64784747 97.90854902 16.38979804 97.32302934 14.05102539 97.32568359 C12.97594727 97.32697266 11.90086914 97.32826172 10.79321289 97.32958984 C9.66141602 97.32572266 8.52961914 97.32185547 7.36352539 97.31787109 C6.23172852 97.32173828 5.09993164 97.32560547 3.93383789 97.32958984 C2.85875977 97.32830078 1.78368164 97.32701172 0.67602539 97.32568359 C-0.3178418 97.32455566 -1.31170898 97.32342773 -2.33569336 97.32226562 C-4.63647461 97.19287109 -4.63647461 97.19287109 -5.63647461 96.19287109 C-5.7370723 93.24577694 -5.77262511 90.32207968 -5.76586914 87.37451172 C-5.76762146 86.44938278 -5.76937378 85.52425385 -5.7711792 84.5710907 C-5.77559928 81.49708204 -5.77265918 78.42313039 -5.76928711 75.34912109 C-5.7699601 73.22302235 -5.77093009 71.09692368 -5.77218628 68.9708252 C-5.77366346 64.50853749 -5.77150803 60.04626976 -5.7668457 55.58398438 C-5.76114841 49.85016541 -5.7644273 44.11639324 -5.77041817 38.38257599 C-5.77402322 33.99041386 -5.77288545 29.59826292 -5.77029037 25.20610046 C-5.76962095 23.09128311 -5.77045006 20.97646475 -5.77276993 18.86164856 C-5.77529554 15.91148164 -5.77145714 12.96139163 -5.76586914 10.01123047 C-5.76789337 9.12807663 -5.7699176 8.24492279 -5.77200317 7.33500671 C-5.74642384 0.08459147 -5.74642384 0.08459147 0 0 Z M20.36352539 21.19287109 C20.36352539 28.12287109 20.36352539 35.05287109 20.36352539 42.19287109 C24.41633789 42.34755859 24.41633789 42.34755859 28.55102539 42.50537109 C29.81402466 42.57365112 29.81402466 42.57365112 31.10253906 42.64331055 C35.35771207 42.72170729 36.89962933 42.56459434 40.35180664 39.79833984 C43.58235273 35.61431218 43.50738006 33.49452826 42.87524414 28.38818359 C42.16488722 25.34069816 40.89283326 23.97826488 38.36352539 22.19287109 C34.74271076 20.98593288 31.43845349 21.0850503 27.67602539 21.13037109 C25.26290039 21.15099609 22.84977539 21.17162109 20.36352539 21.19287109 Z " fill="#7C1977" transform="translate(38.636474609375,37.80712890625)"/>
<path d="M0 0 C9.24 0 18.48 0 28 0 C33.51067084 10.92293685 38.83846624 21.90819341 44 33 C44.81310221 31.37379557 45.62618859 29.74758322 46.43920898 28.12133789 C47.15200249 26.69591494 47.86505995 25.27062395 48.57836914 23.84545898 C50.48419893 20.03672566 52.38545398 16.22583535 54.27734375 12.41015625 C54.82068359 11.31670898 54.82068359 11.31670898 55.375 10.20117188 C56.07582241 8.79050911 56.77507684 7.37906613 57.47265625 5.96679688 C59.88756759 1.11243241 59.88756759 1.11243241 61 0 C63.07262076 -0.08767112 65.14820294 -0.10695873 67.22265625 -0.09765625 C68.48271484 -0.09443359 69.74277344 -0.09121094 71.04101562 -0.08789062 C72.38151109 -0.07953403 73.72200588 -0.07106907 75.0625 -0.0625 C76.40689942 -0.0574866 77.7513006 -0.05292342 79.09570312 -0.04882812 C82.39717941 -0.03699488 85.69856803 -0.02050971 89 0 C88.3164414 3.54886497 86.8681737 6.30707855 85.11328125 9.453125 C84.51080566 10.5366626 83.90833008 11.6202002 83.28759766 12.73657227 C82.62947481 13.90785144 81.97110335 15.07899094 81.3125 16.25 C80.64096591 17.45165919 79.96958093 18.65340172 79.29833984 19.85522461 C73.06490383 30.98782811 66.64559387 42.01044236 60.16064453 52.99829102 C57.7085821 57.22724766 57.79642352 60.88743134 57.71875 65.69140625 C57.70034058 66.55185043 57.68193115 67.41229462 57.66296387 68.29881287 C57.58411805 71.98968831 57.51639825 75.68074912 57.44775391 79.37182617 C57.39615599 82.06178174 57.33886371 84.75157392 57.28125 87.44140625 C57.26767456 88.28304825 57.25409912 89.12469025 57.2401123 89.99183655 C57.11282542 95.88717458 57.11282542 95.88717458 56 97 C54.21928754 97.08726223 52.4351686 97.10699041 50.65234375 97.09765625 C49.57275391 97.09443359 48.49316406 97.09121094 47.38085938 97.08789062 C46.24455078 97.07951172 45.10824219 97.07113281 43.9375 97.0625 C42.79732422 97.05798828 41.65714844 97.05347656 40.48242188 97.04882812 C37.65489649 97.03699747 34.8274736 97.0205141 32 97 C30.42106086 93.84212171 31.00973298 90.4706166 31.10546875 87.01171875 C31.40228672 68.05220452 31.48004691 53.32852308 19.80712891 37.5859375 C16.27237394 32.52782825 13.45216545 27.03593712 10.5 21.625 C9.34627931 19.55327693 8.19017019 17.48288147 7.03125 15.4140625 C6.50917969 14.47594727 5.98710937 13.53783203 5.44921875 12.57128906 C4.19552759 10.34691654 2.90171925 8.15350701 1.59375 5.9609375 C0 3 0 3 0 0 Z " fill="#7C1977" transform="translate(190,38)"/>
<path d="M0 0 C2.4375 2.125 2.4375 2.125 5 5 C5.474375 5.47179688 5.94875 5.94359375 6.4375 6.4296875 C15.89491716 16.33042109 19.84166019 30.60445223 20 44 C19.02468198 59.8579486 13.60662848 73.66784662 2.0859375 84.859375 C0.4375 86.25 0.4375 86.25 -2 88 C-2 85 -2 85 -0.625 83.3125 C1 82 1 82 3 82 C3.103125 81.236875 3.20625 80.47375 3.3125 79.6875 C4.05068244 76.80187774 4.76004289 75.86663092 7 74 C7.33 73.67 7.66 73.34 8 73 C7.34 72.01 6.68 71.02 6 70 C4.02 70.99 4.02 70.99 2 72 C1.03606169 68.251351 1.15697297 65.74678682 2 62 C2.0370279 60.3337447 2.04759962 58.66598681 2 57 C1.71125 57.804375 1.4225 58.60875 1.125 59.4375 C0 62 0 62 -2 63 C-1.71125 61.94941406 -1.4225 60.89882812 -1.125 59.81640625 C2.14557171 47.60598076 2.85072748 39.26273333 -1 27 C-4.93806354 30.60753063 -7.86246256 34.79329665 -10.9375 39.125 C-12.08974873 40.73444303 -13.24209548 42.34381589 -14.39453125 43.953125 C-14.98572754 44.78134766 -15.57692383 45.60957031 -16.18603516 46.46289062 C-19.15147957 50.61052163 -22.13871382 54.74236389 -25.125 58.875 C-25.66890381 59.6292627 -26.21280762 60.38352539 -26.77319336 61.16064453 C-27.28374268 61.86817871 -27.79429199 62.57571289 -28.3203125 63.3046875 C-28.76648926 63.92327637 -29.21266602 64.54186523 -29.67236328 65.17919922 C-30.32954346 66.08049561 -30.32954346 66.08049561 -31 67 C-31.50144531 67.72380859 -32.00289063 68.44761719 -32.51953125 69.19335938 C-34 71 -34 71 -36.3671875 71.6015625 C-40.17463254 70.73161215 -41.82766173 68.32866049 -44.125 65.375 C-44.59365479 64.79685547 -45.06230957 64.21871094 -45.54516602 63.62304688 C-47.0467118 61.76130008 -48.52458857 59.88250416 -50 58 C-51.00609017 56.73143742 -52.01259789 55.46320589 -53.01953125 54.1953125 C-54.88665228 51.83603437 -56.7435449 49.46935369 -58.58984375 47.09375 C-60.10653561 45.14687812 -61.65716429 43.22552561 -63.25390625 41.34375 C-65.92620496 37.75677187 -65.92620496 37.75677187 -66 35 C-64.7421875 32.23828125 -64.7421875 32.23828125 -62.875 29.3125 C-61.97394531 27.85263672 -61.97394531 27.85263672 -61.0546875 26.36328125 C-59 24 -59 24 -56.5703125 22.85546875 C-54 23 -54 23 -51.54296875 25.015625 C-50.70378906 26.00046875 -49.86460937 26.9853125 -49 28 C-48.54061035 28.53431641 -48.0812207 29.06863281 -47.60791016 29.61914062 C-45.65889397 31.90240677 -43.75059104 34.21824009 -41.84179688 36.53515625 C-39.30201072 39.71808169 -39.30201072 39.71808169 -36 42 C-35.75894531 41.29230469 -35.51789063 40.58460937 -35.26953125 39.85546875 C-33.80072504 36.55178464 -31.94451962 34.138392 -29.6875 31.3125 C-25.36435364 25.82393445 -21.20975669 20.23065734 -17.125 14.5625 C-16.57803467 13.80557861 -16.03106934 13.04865723 -15.4675293 12.26879883 C-13.15874167 9.06011401 -10.88462354 5.84980112 -8.7421875 2.52734375 C-6.04849366 -1.38032422 -4.38403122 -1.427359 0 0 Z " fill="#A51F6D" transform="translate(476,44)"/>
<path d="M0 0 C3.50459395 1.33508341 5.13028714 3.20105387 7.625 6 C8.099375 6.47179688 8.57375 6.94359375 9.0625 7.4296875 C18.51991716 17.33042109 22.46666019 31.60445223 22.625 45 C21.64968198 60.8579486 16.23162848 74.66784662 4.7109375 85.859375 C3.0625 87.25 3.0625 87.25 0.625 89 C0.625 86 0.625 86 2 84.3125 C3.625 83 3.625 83 5.625 83 C5.728125 82.236875 5.83125 81.47375 5.9375 80.6875 C6.67568244 77.80187774 7.38504289 76.86663092 9.625 75 C9.955 74.67 10.285 74.34 10.625 74 C9.965 73.01 9.305 72.02 8.625 71 C6.645 71.99 6.645 71.99 4.625 73 C3.66106169 69.251351 3.78197297 66.74678682 4.625 63 C4.6620279 61.3337447 4.67259962 59.66598681 4.625 58 C4.191875 59.2065625 4.191875 59.2065625 3.75 60.4375 C2.625 63 2.625 63 0.625 64 C0.91375 62.94941406 1.2025 61.89882812 1.5 60.81640625 C4.77057171 48.60598076 5.47572748 40.26273333 1.625 28 C-0.025 29.32 -1.675 30.64 -3.375 32 C-3.705 31.34 -4.035 30.68 -4.375 30 C-3.715 30 -3.055 30 -2.375 30 C-2.25125 29.05125 -2.1275 28.1025 -2 27.125 C-1.375 24 -1.375 24 0.625 22 C1.615 22 2.605 22 3.625 22 C6.14207157 20.73637301 6.14207157 20.73637301 7.625 18 C7.50101357 14.50583706 6.89177735 11.26067353 5.625 8 C2.85754916 5.69924738 2.85754916 5.69924738 0 6.25 C-0.78375 6.4975 -1.5675 6.745 -2.375 7 C-3.5240712 8.9254644 -3.5240712 8.9254644 -3.375 11 C-4.365 11.33 -5.355 11.66 -6.375 12 C-7.035 11.34 -7.695 10.68 -8.375 10 C-4.41273585 0 -4.41273585 0 0 0 Z " fill="#AD2568" transform="translate(473.375,43)"/>
<path d="M0 0 C1.5703125 1.67578125 1.5703125 1.67578125 1.97265625 4.08984375 C1.27339209 8.58414352 -0.90056778 11.83087862 -4.4296875 14.67578125 C-7.64486794 15.14395665 -10.32006402 14.5032115 -13.4296875 13.67578125 C-24.9924674 11.00009665 -35.91579254 12.18496939 -46.109375 18.27734375 C-48.26097129 19.6916329 -50.36105285 21.14345929 -52.4296875 22.67578125 C-52.4296875 19.67578125 -52.4296875 19.67578125 -50.4296875 16.67578125 C-51.326875 17.01609375 -51.326875 17.01609375 -52.2421875 17.36328125 C-54.4296875 17.67578125 -54.4296875 17.67578125 -56.2421875 16.55078125 C-57.4296875 14.67578125 -57.4296875 14.67578125 -57.1171875 11.98828125 C-56.776875 10.84359375 -56.776875 10.84359375 -56.4296875 9.67578125 C-56.7596875 10.66578125 -57.0896875 11.65578125 -57.4296875 12.67578125 C-58.1928125 12.65515625 -58.9559375 12.63453125 -59.7421875 12.61328125 C-62.53154536 12.54635284 -62.53154536 12.54635284 -65.4296875 13.67578125 C-65.5534375 14.31515625 -65.6771875 14.95453125 -65.8046875 15.61328125 C-66.0109375 16.29390625 -66.2171875 16.97453125 -66.4296875 17.67578125 C-68.9921875 18.92578125 -68.9921875 18.92578125 -71.4296875 19.67578125 C-66.67532336 8.43819328 -55.16894911 2.12097012 -44.4296875 -2.32421875 C-30.21406575 -7.00433097 -13.46675341 -7.33959712 0 0 Z " fill="#A82469" transform="translate(463.4296875,35.32421875)"/>
<path d="M0 0 C0.99 0.33 1.98 0.66 3 1 C2.67 2.65 2.34 4.3 2 6 C4.8424854 7.57273568 4.8424854 7.57273568 8 8 C5.16332086 13.90974822 1.76884638 19.456483 -1.8515625 24.91015625 C-4.43767287 29.61617341 -5.28346481 34.18723043 -5.625 39.5 C-5.69976562 40.5828125 -5.77453125 41.665625 -5.8515625 42.78125 C-5.99353679 45.85985039 -6.02784334 48.91867023 -6 52 C-6.66 52 -7.32 52 -8 52 C-8 46.39 -8 40.78 -8 35 C-14.59529756 36.2715356 -14.59529756 36.2715356 -17 39 C-17 38.34 -17 37.68 -17 37 C-19.475 37.495 -19.475 37.495 -22 38 C-22.33 39.32 -22.66 40.64 -23 42 C-23.72059268 31.37125793 -20.69813475 19.49706237 -14 11 C-10.75 9.125 -10.75 9.125 -8 8 C-7.67 7.01 -7.34 6.02 -7 5 C-5.0625 3.875 -5.0625 3.875 -3 3 C-0.83333333 2.16666667 -0.83333333 2.16666667 0 0 Z " fill="#8E1C70" transform="translate(405,44)"/>
<path d="M0 0 C1.48305885 -0.02409439 1.48305885 -0.02409439 2.99607849 -0.04867554 C7.55711274 -0.09316014 12.1179982 -0.13425448 16.67919922 -0.15722656 C19.07773589 -0.17371802 21.47622481 -0.20091668 23.87451172 -0.23925781 C27.3385562 -0.29436053 30.80144379 -0.31595973 34.26586914 -0.33056641 C35.85708839 -0.36457047 35.85708839 -0.36457047 37.48045349 -0.39926147 C44.89793725 -0.37847629 50.03865271 1.33322388 56.36352539 5.19287109 C56.03352539 5.85287109 55.70352539 6.51287109 55.36352539 7.19287109 C54.37352539 6.86287109 53.38352539 6.53287109 52.36352539 6.19287109 C52.36352539 5.53287109 52.36352539 4.87287109 52.36352539 4.19287109 C33.93909977 1.12213349 15.04209303 2.19287109 -3.63647461 2.19287109 C-3.30647461 33.54287109 -2.97647461 64.89287109 -2.63647461 97.19287109 C-3.62647461 96.86287109 -4.61647461 96.53287109 -5.63647461 96.19287109 C-5.65959615 83.82368395 -5.67738873 71.4545019 -5.68828678 59.08529758 C-5.69351602 53.34242047 -5.70061441 47.59955809 -5.71191406 41.85668945 C-5.72274148 36.31947115 -5.72875113 30.78226706 -5.73135185 25.24503899 C-5.73320637 23.12742832 -5.73682747 21.00981847 -5.74220467 18.89221382 C-5.74941317 15.93715835 -5.75046563 12.98216239 -5.75 10.02709961 C-5.75359528 9.14237473 -5.75719055 8.25764984 -5.76089478 7.34611511 C-5.74842834 0.08462098 -5.74842834 0.08462098 0 0 Z " fill="#721E6C" transform="translate(38.636474609375,37.80712890625)"/>
<path d="M0 0 C0.99 0.33 1.98 0.66 3 1 C2.67 2.65 2.34 4.3 2 6 C4.8424854 7.57273568 4.8424854 7.57273568 8 8 C7.33333333 9.33333333 6.66666667 10.66666667 6 12 C5.731875 12.721875 5.46375 13.44375 5.1875 14.1875 C4 16 4 16 1.5 16.8125 C-1 17 -1 17 -3 16 C-2.67 17.65 -2.34 19.3 -2 21 C-2.99 21.33 -3.98 21.66 -5 22 C-5.66 21.34 -6.32 20.68 -7 20 C-8.32 20 -9.64 20 -11 20 C-12.20628008 17.66785852 -13.1654738 15.50357861 -14 13 C-10.25 9.125 -10.25 9.125 -8 8 C-7.67 7.01 -7.34 6.02 -7 5 C-5.0625 3.875 -5.0625 3.875 -3 3 C-0.83333333 2.16666667 -0.83333333 2.16666667 0 0 Z " fill="#9E1C70" transform="translate(405,44)"/>
<path d="M0 0 C5.36482009 -0.40236151 9.15311198 1.0054384 14 3 C14.99 3.33 15.98 3.66 17 4 C17.34498357 9.0420676 15.99721944 11.57057744 12.91015625 15.453125 C10.54287682 17.37018564 9.49477212 17.42903778 6.5 17.125 C2.91263264 16.36625056 -0.576499 15.31673115 -4 14 C-3.34 12.68 -2.68 11.36 -2 10 C-0.68 10.33 0.64 10.66 2 11 C1.34 7.37 0.68 3.74 0 0 Z " fill="#B22865" transform="translate(448,33)"/>
<path d="M0 0 C0.33 0 0.66 0 1 0 C1 30.03 1 60.06 1 91 C2.65 91.33 4.3 91.66 6 92 C6 92.66 6 93.32 6 94 C7.65 94.33 9.3 94.66 11 95 C11 95.33 11 95.66 11 96 C7.37 96 3.74 96 0 96 C-1.66770923 92.66458155 -1.13801746 88.91883401 -1.12939453 85.25170898 C-1.13114685 84.34594116 -1.13289917 83.44017334 -1.13470459 82.50695801 C-1.13911758 79.50331729 -1.13618729 76.4997351 -1.1328125 73.49609375 C-1.13348564 71.41626474 -1.13445575 69.3364358 -1.13571167 67.25660706 C-1.13718784 62.89445243 -1.13503643 58.53231826 -1.13037109 54.17016602 C-1.12467032 48.56529077 -1.12795553 42.96046336 -1.13394356 37.35558987 C-1.13754832 33.06036515 -1.13641104 28.76515188 -1.13381577 24.46992683 C-1.13314644 22.40255795 -1.1339751 20.33518805 -1.13629532 18.26782036 C-1.13882083 15.38481753 -1.13498285 12.50189342 -1.12939453 9.61889648 C-1.13141876 8.75601517 -1.13344299 7.89313385 -1.13552856 7.00410461 C-1.11426313 1.11426313 -1.11426313 1.11426313 0 0 Z " fill="#661E63" transform="translate(288,39)"/>
<path d="M0 0 C1.12256131 2.24512262 1.13413762 3.51456649 1.125 6 C1.12757813 6.70125 1.13015625 7.4025 1.1328125 8.125 C1 10 1 10 0 12 C0.33 12.99 0.66 13.98 1 15 C2.32 14.34 3.64 13.68 5 13 C5.66 14.65 6.32 16.3 7 18 C3.25 21.875 3.25 21.875 1 23 C1 23.99 1 24.98 1 26 C-0.62935241 27.37868281 -2.29749607 28.71274093 -4 30 C-4.33 30.66 -4.66 31.32 -5 32 C-7.5625 32.625 -7.5625 32.625 -10 33 C-10 33.66 -10 34.32 -10 35 C-10.66 35 -11.32 35 -12 35 C-12.75 33.25 -12.75 33.25 -13 31 C-11.3125 28.6875 -11.3125 28.6875 -9 27 C-6.75 27.25 -6.75 27.25 -5 28 C-5.33 26.35 -5.66 24.7 -6 23 C-5.34 23 -4.68 23 -4 23 C-4.66 21.02 -5.32 19.04 -6 17 C-6.99 17.99 -7.98 18.98 -9 20 C-9.66 19.67 -10.32 19.34 -11 19 C-7.25 12.125 -7.25 12.125 -5 11 C-4.29289322 9.35008418 -3.63437344 7.6792238 -3 6 C-2.01517978 3.99248185 -1.01847486 1.99065541 0 0 Z " fill="#A11C6F" transform="translate(478,100)"/>
<path d="M0 0 C5.39970886 3.59980591 6.72600361 6.40933394 8.28515625 12.63671875 C9.2140916 15.70778916 10.89136779 17.61928622 13 20 C13.67966676 21.66140763 14.34938905 23.32700041 15 25 C15.66 25.33 16.32 25.66 17 26 C16.99476318 27.20648193 16.98952637 28.41296387 16.98413086 29.65600586 C16.96608389 34.11563378 16.95456911 38.57525846 16.94506836 43.03491211 C16.94002744 44.96818585 16.93319481 46.90145576 16.92456055 48.8347168 C16.91248435 51.60726872 16.90676943 54.37977041 16.90234375 57.15234375 C16.89718246 58.02213364 16.89202118 58.89192352 16.88670349 59.78807068 C16.88650815 61.85905814 16.93791832 63.92994324 17 66 C18.01636977 67.23921211 18.01636977 67.23921211 20.13305664 67.11352539 C21.04949951 67.10828857 21.96594238 67.10305176 22.91015625 67.09765625 C23.800979 67.09515869 24.69180176 67.09266113 25.60961914 67.09008789 C26.74906982 67.08098389 27.88852051 67.07187988 29.0625 67.0625 C32.671875 67.041875 36.28125 67.02125 40 67 C40 53.47 40 39.94 40 26 C40.66 26 41.32 26 42 26 C42.33 24.35 42.66 22.7 43 21 C43.66 21.33 44.32 21.66 45 22 C43.125 26.75 43.125 26.75 42 29 C41.85492215 31.90323951 41.76572214 34.78625973 41.71875 37.69140625 C41.70034058 38.55185043 41.68193115 39.41229462 41.66296387 40.29881287 C41.58411805 43.98968831 41.51639825 47.68074912 41.44775391 51.37182617 C41.39615599 54.06178174 41.33886371 56.75157392 41.28125 59.44140625 C41.26767456 60.28304825 41.25409912 61.12469025 41.2401123 61.99183655 C41.11282542 67.88717458 41.11282542 67.88717458 40 69 C38.21928754 69.08726223 36.4351686 69.10699041 34.65234375 69.09765625 C33.57275391 69.09443359 32.49316406 69.09121094 31.38085938 69.08789062 C30.24455078 69.07951172 29.10824219 69.07113281 27.9375 69.0625 C26.79732422 69.05798828 25.65714844 69.05347656 24.48242188 69.04882812 C21.65489649 69.03699747 18.8274736 69.0205141 16 69 C14.42101249 65.84202498 15.00998963 62.47068846 15.10546875 59.01171875 C15.39249451 39.9032203 15.55638705 24.60639118 3.35644531 8.83544922 C1.54610413 6.38581909 0.2512141 3.76929555 -1 1 C-0.67 0.67 -0.34 0.34 0 0 Z " fill="#672861" transform="translate(206,66)"/>
<path d="M0 0 C3.81248426 -0.02887236 7.6249407 -0.04675492 11.4375 -0.0625 C12.52611328 -0.07087891 13.61472656 -0.07925781 14.73632812 -0.08789062 C15.77080078 -0.09111328 16.80527344 -0.09433594 17.87109375 -0.09765625 C18.82943115 -0.10289307 19.78776855 -0.10812988 20.77514648 -0.11352539 C23 0 23 0 24 1 C24.10059769 3.94709415 24.1361505 6.87079141 24.12939453 9.81835938 C24.13114685 10.74348831 24.13289917 11.66861725 24.13470459 12.6217804 C24.13912467 15.69578905 24.13618457 18.7697407 24.1328125 21.84375 C24.13348549 23.96984875 24.13445548 26.09594742 24.13571167 28.2220459 C24.13718886 32.6843336 24.13503342 37.14660133 24.13037109 41.60888672 C24.1246738 47.34270569 24.12795269 53.07647785 24.13394356 58.8102951 C24.13754861 63.20245723 24.13641084 67.59460817 24.13381577 71.98677063 C24.13314634 74.10158799 24.13397545 76.21640634 24.13629532 78.33122253 C24.13882093 81.28138946 24.13498254 84.23147946 24.12939453 87.18164062 C24.13141876 88.06479446 24.13344299 88.9479483 24.13552856 89.85786438 C24.11426234 95.88573766 24.11426234 95.88573766 23 97 C18.90501551 97.3645197 14.79651543 97.37162855 10.6875 97.4375 C8.9559668 97.50614258 8.9559668 97.50614258 7.18945312 97.57617188 C-1.15232311 97.68752466 -1.15232311 97.68752466 -3.68505859 95.63330078 C-4.79296875 93.97265625 -4.79296875 93.97265625 -6 91 C-5.505 90.01 -5.505 90.01 -5 89 C-4.38511719 89.98097656 -3.77023437 90.96195312 -3.13671875 91.97265625 C-1.38203291 94.07617636 -0.4420947 94.89978932 2.25537109 95.51123047 C4.92094872 95.62663454 7.52297851 95.57253285 10.1875 95.4375 C11.55938477 95.40946289 11.55938477 95.40946289 12.95898438 95.38085938 C17.63693962 95.38266242 17.63693962 95.38266242 22 94 C22 63.64 22 33.28 22 2 C15.07 2 8.14 2 1 2 C0.67 1.34 0.34 0.68 0 0 Z " fill="#6D3069" transform="translate(349,38)"/>
<path d="M0 0 C3.50459395 1.33508341 5.13028714 3.20105387 7.625 6 C8.14578125 6.55300781 8.6665625 7.10601562 9.203125 7.67578125 C12.47364439 11.25588864 14.44986905 14.1819631 15.625 19 C13.315 19.33 11.005 19.66 8.625 20 C8.1092599 17.98227998 7.61857883 15.96906163 7.1953125 13.9296875 C7.04835938 13.25164063 6.90140625 12.57359375 6.75 11.875 C6.60820312 11.19179688 6.46640625 10.50859375 6.3203125 9.8046875 C5.67715269 7.61805269 5.67715269 7.61805269 2.625 6 C0.00584878 6.15701426 0.00584878 6.15701426 -2.375 7 C-3.5240712 8.9254644 -3.5240712 8.9254644 -3.375 11 C-4.365 11.33 -5.355 11.66 -6.375 12 C-7.035 11.34 -7.695 10.68 -8.375 10 C-4.41273585 0 -4.41273585 0 0 0 Z " fill="#AC3361" transform="translate(473.375,43)"/>
<path d="M0 0 C0.598125 0.309375 1.19625 0.61875 1.8125 0.9375 C4.08956772 2.10209704 4.08956772 2.10209704 7 3 C7.33 2.34 7.66 1.68 8 1 C8 2.98 8 4.96 8 7 C10.97 7.99 13.94 8.98 17 10 C16.608125 10.7425 16.21625 11.485 15.8125 12.25 C14.65678147 14.98398135 14.65678147 14.98398135 16.1875 17.25 C17.98079696 19.23329649 17.98079696 19.23329649 21 20 C21 21.65 21 23.3 21 25 C22.32 25 23.64 25 25 25 C25 24.34 25 23.68 25 23 C26.29233607 21.62689293 27.62437146 20.28965176 29 19 C29.66 19.33 30.32 19.66 31 20 C30.29260517 21.17999478 29.55809085 22.34376065 28.8125 23.5 C28.20341797 24.47453125 28.20341797 24.47453125 27.58203125 25.46875 C26 27 26 27 23.6484375 27.57421875 C19.7954943 26.73884611 18.13137595 24.2885524 15.8125 21.3125 C15.34416748 20.73467773 14.87583496 20.15685547 14.39331055 19.56152344 C12.91106769 17.72108639 11.45376054 15.8629922 10 14 C9.51144531 13.38108887 9.02289063 12.76217773 8.51953125 12.12451172 C0 1.3237789 0 1.3237789 0 0 Z " fill="#921E6F" transform="translate(416,88)"/>
<path d="M0 0 C9.57 0 19.14 0 29 0 C29 0.33 29 0.66 29 1 C25.50007304 1.79706768 22.2857769 2.11863027 18.69921875 2.09765625 C17.81838623 2.09515869 16.93755371 2.09266113 16.0300293 2.09008789 C14.92699463 2.08098389 13.82395996 2.07187988 12.6875 2.0625 C7.3971875 2.0315625 7.3971875 2.0315625 2 2 C2 12.56 2 23.12 2 34 C0.515 34.495 0.515 34.495 -1 35 C-0.83701416 34.48791992 -0.67402832 33.97583984 -0.50610352 33.44824219 C0.164081 30.20626906 0.11122389 27.13862937 0.09765625 23.828125 C0.0962413 23.1457074 0.09482635 22.46328979 0.09336853 21.76019287 C0.08779084 19.59008316 0.07524254 17.4200783 0.0625 15.25 C0.05748211 13.77474108 0.05291971 12.29948053 0.04882812 10.82421875 C0.03868148 7.21607337 0.01910199 3.60815345 0 0 Z " fill="#6B1D66" transform="translate(57,100)"/>
<path d="M0 0 C0.33 0 0.66 0 1 0 C1.01030746 1.15844925 1.02061493 2.3168985 1.03123474 3.51045227 C1.1288835 14.4142346 1.23160948 25.31795878 1.33933926 36.22164631 C1.39456343 41.82767571 1.4479827 47.43371033 1.49731445 53.03979492 C1.54496535 58.44739067 1.59730854 63.85492231 1.65294075 69.26244164 C1.67336099 71.32814124 1.69207462 73.39385842 1.70907402 75.459589 C1.73312524 78.34722896 1.76317898 81.2347475 1.79467773 84.12231445 C1.8004332 84.98114731 1.80618866 85.83998016 1.81211853 86.72483826 C1.85360986 90.05912727 1.93850408 92.81551223 3 96 C2.01 95.67 1.02 95.34 0 95 C0 63.65 0 32.3 0 0 Z " fill="#6B3064" transform="translate(33,39)"/>
<path d="M0 0 C0.33 0 0.66 0 1 0 C1.28358209 7.37313433 1.28358209 7.37313433 -1 11 C-1.33 11.66 -1.66 12.32 -2 13 C-2.66 13 -3.32 13 -4 13 C-4.93786082 18.05009595 -4.93786082 18.05009595 -4 23 C-4.99 23.33 -5.98 23.66 -7 24 C-8.03485877 26.31808364 -9.0355414 28.65175298 -10 31 C-10.66 31.33 -11.32 31.66 -12 32 C-12.66 31.67 -13.32 31.34 -14 31 C-12.70577974 26.93443983 -11.21247538 23.0762188 -9.43359375 19.19921875 C-8.94826172 18.14025391 -8.46292969 17.08128906 -7.96289062 15.99023438 C-7.20782227 14.35538086 -7.20782227 14.35538086 -6.4375 12.6875 C-5.93025391 11.57826172 -5.42300781 10.46902344 -4.90039062 9.32617188 C-1.1319533 1.1319533 -1.1319533 1.1319533 0 0 Z " fill="#761F70" transform="translate(250,39)"/>
<path d="M0 0 C9.24 0 18.48 0 28 0 C29.65 3.3 31.3 6.6 33 10 C32.67 10.66 32.34 11.32 32 12 C31.67 11.01 31.34 10.02 31 9 C28.98491642 8.26676204 28.98491642 8.26676204 27 8 C27 5.69 27 3.38 27 1 C19.08 1 11.16 1 3 1 C3.33 2.65 3.66 4.3 4 6 C4.99 6.66 5.98 7.32 7 8 C8.53412575 10.55687624 9.52469385 13.05310188 10 16 C9.67 16.99 9.34 17.98 9 19 C7.49212623 16.40011448 5.99354539 13.79559803 4.5 11.1875 C4.07074219 10.44951172 3.64148438 9.71152344 3.19921875 8.95117188 C2.79316406 8.23896484 2.38710937 7.52675781 1.96875 6.79296875 C1.40317383 5.81106567 1.40317383 5.81106567 0.82617188 4.80932617 C0 3 0 3 0 0 Z " fill="#75326D" transform="translate(190,38)"/>
<path d="M0 0 C0.99 0 1.98 0 3 0 C1.52038532 17.20328109 -2.73796356 32.58759485 -16.5625 44.25 C-17.366875 44.8275 -18.17125 45.405 -19 46 C-19 43 -19 43 -17.625 41.3125 C-16 40 -16 40 -14 40 C-13.896875 39.236875 -13.79375 38.47375 -13.6875 37.6875 C-12.95288806 34.81583516 -12.3283935 33.76957906 -10 32 C-9.34 32 -8.68 32 -8 32 C-2.83859847 22.09195243 0.487907 11.2218611 0 0 Z " fill="#8C2363" transform="translate(493,86)"/>
<path d="M0 0 C1.98 0 3.96 0 6 0 C6.33 0.66 6.66 1.32 7 2 C6.67 2.66 6.34 3.32 6 4 C6.99 4.33 7.98 4.66 9 5 C8.01 5.495 8.01 5.495 7 6 C7.66 6.66 8.32 7.32 9 8 C3.83076923 13.78461538 3.83076923 13.78461538 -0.375 14.875 C-1.674375 14.936875 -1.674375 14.936875 -3 15 C-3 12 -3 12 -2 10 C-0.68 10.33 0.64 10.66 2 11 C1.34 7.37 0.68 3.74 0 0 Z " fill="#B72766" transform="translate(448,33)"/>
<path d="M0 0 C0 0.99 0 1.98 0 3 C-2.64738916 4.4606285 -3.89448334 5 -7 5 C-7 5.66 -7 6.32 -7 7 C-8.32 7.33 -9.64 7.66 -11 8 C-10.67 9.65 -10.34 11.3 -10 13 C-10.763125 12.979375 -11.52625 12.95875 -12.3125 12.9375 C-15.10185786 12.87057159 -15.10185786 12.87057159 -18 14 C-18.12375 14.639375 -18.2475 15.27875 -18.375 15.9375 C-18.58125 16.618125 -18.7875 17.29875 -19 18 C-21.5625 19.25 -21.5625 19.25 -24 20 C-20.72399976 12.2567267 -9.07506779 0 0 0 Z " fill="#9A226C" transform="translate(416,35)"/>
<path d="M0 0 C1.21236328 0.04060547 1.21236328 0.04060547 2.44921875 0.08203125 C3.06410156 0.11683594 3.67898438 0.15164062 4.3125 0.1875 C4.3125 1.8375 4.3125 3.4875 4.3125 5.1875 C8.16091348 6.36781238 12.070779 6.51985351 16.0625 6.75 C16.75988281 6.79318359 17.45726562 6.83636719 18.17578125 6.88085938 C19.88781922 6.98639596 21.60013561 7.0873991 23.3125 7.1875 C23.3125 7.5175 23.3125 7.8475 23.3125 8.1875 C0.87769306 8.89762871 0.87769306 8.89762871 -7.6875 3.1875 C-5.26849268 0.20484049 -3.789448 -0.16475861 0 0 Z " fill="#7E196F" transform="translate(423.6875,135.8125)"/>
<path d="M0 0 C2.67901932 2.31881505 3.66204403 4.31814468 4.6875 7.6875 C4.93886719 8.49574219 5.19023438 9.30398437 5.44921875 10.13671875 C5.63097656 10.75160156 5.81273437 11.36648437 6 12 C6.66 12 7.32 12 8 12 C8.99 14.97 9.98 17.94 11 21 C16.61 21 22.22 21 28 21 C28.33 20.34 28.66 19.68 29 19 C29.66 19 30.32 19 31 19 C31.66 17.68 32.32 16.36 33 15 C32.45276317 18.37462715 31.9451 20.08235 30 23 C27.84521484 23.34057617 27.84521484 23.34057617 25.2109375 23.29296875 C24.26992188 23.28330078 23.32890625 23.27363281 22.359375 23.26367188 C20.88210938 23.2259668 20.88210938 23.2259668 19.375 23.1875 C17.88613281 23.16719727 17.88613281 23.16719727 16.3671875 23.14648438 C13.91091928 23.11105743 11.45572715 23.06166196 9 23 C0 5.80972516 0 5.80972516 0 0 Z " fill="#6D2B69" transform="translate(517,112)"/>
<path d="M0 0 C1.92274929 0.03978102 3.84505219 0.1112007 5.765625 0.2109375 C7.24095703 0.25154297 7.24095703 0.25154297 8.74609375 0.29296875 C11.17149923 0.36361163 13.59244445 0.46217631 16.015625 0.5859375 C19.16819508 6.53605536 21.6672953 11.96686442 23.015625 18.5859375 C22.025625 18.2559375 21.035625 17.9259375 20.015625 17.5859375 C19.171875 15.44140625 19.171875 15.44140625 18.515625 12.7734375 C17.57662004 8.98947108 16.40688091 6.64807354 14.015625 3.5859375 C14.015625 2.9259375 14.015625 2.2659375 14.015625 1.5859375 C8.075625 1.9159375 2.135625 2.2459375 -3.984375 2.5859375 C-6.56762171 7.55167508 -6.56762171 7.55167508 -7.984375 12.5859375 C-8.644375 12.5859375 -9.304375 12.5859375 -9.984375 12.5859375 C-9.32424721 5.65459574 -7.59960896 0.29399141 0 0 Z " fill="#6C2866" transform="translate(152.984375,37.4140625)"/>
<path d="M0 0 C4.04068739 -0.23320282 8.07964201 -0.3747013 12.125 -0.5 C13.83816406 -0.60054687 13.83816406 -0.60054687 15.5859375 -0.703125 C23.90913339 -0.8966877 23.90913339 -0.8966877 27.06005859 1.69335938 C28.59551439 3.731866 29.81280368 5.74453938 31 8 C31.78007939 9.17444599 32.57053535 10.34212097 33.375 11.5 C33.91125 12.325 34.4475 13.15 35 14 C34.67 14.66 34.34 15.32 34 16 C33 15 32 14 31 13 C30.443125 12.505 29.88625 12.01 29.3125 11.5 C28 10 28 10 28 7 C27.34 7 26.68 7 26 7 C26 6.34 26 5.68 26 5 C25.01 4.67 24.02 4.34 23 4 C23 3.34 23 2.68 23 2 C11.615 1.505 11.615 1.505 0 1 C0 0.67 0 0.34 0 0 Z " fill="#72256B" transform="translate(289,38)"/>
<path d="M0 0 C7.07988112 -0.12746075 14.15946305 -0.21462725 21.24023438 -0.2746582 C23.6456203 -0.29970084 26.05093089 -0.333745 28.45605469 -0.37719727 C31.92662206 -0.4382988 35.39617772 -0.46631363 38.8671875 -0.48828125 C39.93113739 -0.51408768 40.99508728 -0.5398941 42.09127808 -0.56648254 C49.52651135 -0.56923462 54.66256404 1.12552385 61 5 C60.67 5.66 60.34 6.32 60 7 C59.01 6.67 58.02 6.34 57 6 C57 5.34 57 4.68 57 4 C45.39327256 1.33189491 33.59396827 1.55302113 21.75 1.375 C19.63670394 1.33674736 17.52342225 1.29769161 15.41015625 1.2578125 C10.27355652 1.16261028 5.13688412 1.07829452 0 1 C0 0.67 0 0.34 0 0 Z " fill="#79326F" transform="translate(34,38)"/>
<path d="M0 0 C3.85182865 0.16723626 5.54411161 0.55402223 8.3359375 3.28515625 C9.00882812 4.20167969 9.68171875 5.11820312 10.375 6.0625 C11.06335938 6.98160156 11.75171875 7.90070313 12.4609375 8.84765625 C12.96882813 9.55792969 13.47671875 10.26820312 14 11 C13.01 11 12.02 11 11 11 C11 10.34 11 9.68 11 9 C8.525 8.505 8.525 8.505 6 8 C6.33 6.68 6.66 5.36 7 4 C4.64632287 3.3121764 4.64632287 3.3121764 2 3 C-1.38336604 5.25557736 -1.60072512 6.36188532 -3 10 C-3.99 10.495 -3.99 10.495 -5 11 C-4.47731534 13.76276177 -3.89130413 16.3260876 -3 19 C-6 18 -6 18 -7.39453125 15.30078125 C-8 12 -8 12 -6.69921875 9.04296875 C-6.03535156 8.10066406 -5.37148438 7.15835938 -4.6875 6.1875 C-3.70330078 4.75470703 -3.70330078 4.75470703 -2.69921875 3.29296875 C-1 1 -1 1 0 0 Z " fill="#842161" transform="translate(418,67)"/>
<path d="M0 0 C1.71987972 2.57981959 2.8028204 4.74936391 3.9453125 7.59765625 C4.29980469 8.48130859 4.65429688 9.36496094 5.01953125 10.27539062 C5.38433594 11.19513672 5.74914062 12.11488281 6.125 13.0625 C6.49753906 13.98611328 6.87007812 14.90972656 7.25390625 15.86132812 C7.60582031 16.74369141 7.95773438 17.62605469 8.3203125 18.53515625 C8.64273926 19.343479 8.96516602 20.15180176 9.29736328 20.98461914 C10 23 10 23 10 25 C9.01 25 8.02 25 7 25 C5.25 23.25 5.25 23.25 4 21 C4.3125 18.75 4.3125 18.75 5 17 C4.01 17 3.02 17 2 17 C1.93941406 16.27554688 1.87882813 15.55109375 1.81640625 14.8046875 C1.38516567 9.82883467 0.92952359 4.91319609 0 0 Z " fill="#711F6B" transform="translate(176,56)"/>
<path d="M0 0 C5.39887942 3.59925295 6.73266836 6.40942747 8.28125 12.640625 C9.2090846 15.68634294 10.98062897 17.57675476 13 20 C13.75 23.3125 13.75 23.3125 14 26 C9.8573012 22.2240546 7.49858094 17.25714953 4.75 12.4375 C4.1828125 11.46619141 3.615625 10.49488281 3.03125 9.49414062 C2.50015625 8.56666016 1.9690625 7.63917969 1.421875 6.68359375 C0.93299805 5.83337646 0.44412109 4.98315918 -0.05957031 4.10717773 C-0.52508301 3.06412476 -0.52508301 3.06412476 -1 2 C-0.67 1.34 -0.34 0.68 0 0 Z " fill="#70266B" transform="translate(206,66)"/>
<path d="M0 0 C0.66 0 1.32 0 2 0 C1.56856647 1.37691552 1.12948836 2.75143619 0.6875 4.125 C0.44386719 4.89070313 0.20023438 5.65640625 -0.05078125 6.4453125 C-1.14468847 9.38940847 -2.59541222 12.19082445 -4 15 C-11.92 15 -19.84 15 -28 15 C-28 13.35 -28 11.7 -28 10 C-27.59676514 10.48895752 -27.19353027 10.97791504 -26.77807617 11.48168945 C-24.53597554 13.39623344 -23.46150215 13.35157387 -20.55078125 13.29296875 C-19.27944336 13.2784668 -19.27944336 13.2784668 -17.98242188 13.26367188 C-17.10134766 13.23853516 -16.22027344 13.21339844 -15.3125 13.1875 C-14.41982422 13.17396484 -13.52714844 13.16042969 -12.60742188 13.14648438 C-10.40433834 13.11114079 -8.20247418 13.06180493 -6 13 C-4.54599367 10.11329147 -3.1797769 7.2074943 -1.875 4.25 C-1.34519531 3.05117187 -1.34519531 3.05117187 -0.8046875 1.828125 C-0.53914063 1.22484375 -0.27359375 0.6215625 0 0 Z " fill="#732B6E" transform="translate(139,120)"/>
<path d="M0 0 C0.33 1.32 0.66 2.64 1 4 C0.01 4.33 -0.98 4.66 -2 5 C-3.16666667 6.91666667 -3.16666667 6.91666667 -4 9 C-4.33 9.66 -4.66 10.32 -5 11 C-5.66 11 -6.32 11 -7 11 C-7.309375 11.78375 -7.61875 12.5675 -7.9375 13.375 C-9 16 -9 16 -10 18 C-10.66 18 -11.32 18 -12 18 C-12.33 17.34 -12.66 16.68 -13 16 C-13.99 16.66 -14.98 17.32 -16 18 C-18.1875 17.625 -18.1875 17.625 -20 17 C-18.845 16.484375 -17.69 15.96875 -16.5 15.4375 C-9.39679507 11.8733032 -4.00296897 6.83840533 0 0 Z " fill="#8D2E68" transform="translate(473,107)"/>
<path d="M0 0 C1.32 0 2.64 0 4 0 C4.66 0.66 5.32 1.32 6 2 C8.60280568 1.67958603 8.60280568 1.67958603 11 1 C11 1.66 11 2.32 11 3 C11.66 3.33 12.32 3.66 13 4 C12.01 5.485 12.01 5.485 11 7 C10.34 7 9.68 7 9 7 C9 7.66 9 8.32 9 9 C7.68 9 6.36 9 5 9 C4.67 7.35 4.34 5.7 4 4 C3.01 4 2.02 4 1 4 C0.67 2.68 0.34 1.36 0 0 Z " fill="#971A73" transform="translate(432,104)"/>
<path d="M0 0 C1.10960573 3.32881718 0.9412896 3.87364252 -0.21484375 7.01171875 C-0.48876953 7.76904297 -0.76269531 8.52636719 -1.04492188 9.30664062 C-1.33947266 10.09232422 -1.63402344 10.87800781 -1.9375 11.6875 C-2.22818359 12.48478516 -2.51886719 13.28207031 -2.81835938 14.10351562 C-3.53739302 16.07201757 -4.26763703 18.03641812 -5 20 C-5.66 19.67 -6.32 19.34 -7 19 C-7 15.37 -7 11.74 -7 8 C-6.34 8 -5.68 8 -5 8 C-4.731875 7.4225 -4.46375 6.845 -4.1875 6.25 C-2.98280141 3.9674132 -1.59201885 2.0262058 0 0 Z " fill="#711E69" transform="translate(577,54)"/>
<path d="M0 0 C0.33 0 0.66 0 1 0 C1.34489815 5.04081918 -0.00558997 7.5655555 -3.08203125 11.453125 C-5.48079527 13.38776971 -6.59434145 13.42556118 -9.625 13.125 C-12.7061296 12.53039604 -15.2418426 11.48516168 -18 10 C-16.700625 10.020625 -15.40125 10.04125 -14.0625 10.0625 C-12.70834367 10.08399454 -11.35243917 10.07148199 -10 10 C-9.67 9.67 -9.34 9.34 -9 9 C-7.02805885 7.02805885 -5.49095467 6.167635 -3 5 C-2.34 4.67 -1.68 4.34 -1 4 C-0.34786708 1.97536745 -0.34786708 1.97536745 0 0 Z " fill="#A23262" transform="translate(464,37)"/>
<path d="M0 0 C2.66666667 1.33333333 5.33333333 2.66666667 8 4 C8 5.65 8 7.3 8 9 C9.32 9 10.64 9 12 9 C12 8.34 12 7.68 12 7 C13.29233607 5.62689293 14.62437146 4.28965176 16 3 C16.66 3.33 17.32 3.66 18 4 C17.29260517 5.17999478 16.55809085 6.34376065 15.8125 7.5 C15.40644531 8.1496875 15.00039063 8.799375 14.58203125 9.46875 C13 11 13 11 10.59375 11.52734375 C6.91780815 10.77997606 5.89684799 9.02910098 3.6875 6.0625 C2.64142578 4.68771484 2.64142578 4.68771484 1.57421875 3.28515625 C0 1 0 1 0 0 Z " fill="#7A235E" transform="translate(429,104)"/>
<path d="M0 0 C0.33 0 0.66 0 1 0 C1 13.86 1 27.72 1 42 C-0.32 41.67 -1.64 41.34 -3 41 C-2.67854004 40.51499023 -2.35708008 40.02998047 -2.02587891 39.53027344 C-0.56100454 35.91724204 -0.64222816 32.35899649 -0.5859375 28.515625 C-0.56657135 27.70003113 -0.5472052 26.88443726 -0.5272522 26.04412842 C-0.46760425 23.44619108 -0.42113058 20.84820907 -0.375 18.25 C-0.33680658 16.48565806 -0.29775405 14.72133449 -0.2578125 12.95703125 C-0.16191495 8.63817054 -0.07782953 4.31922256 0 0 Z " fill="#6E1F6B" transform="translate(311,93)"/>
<path d="M0 0 C0.99 0.66 1.98 1.32 3 2 C-4.83334588 7.09762205 -13.34998314 12.45044962 -23 12 C-23 11.34 -23 10.68 -23 10 C-20.69 10 -18.38 10 -16 10 C-16 9.34 -16 8.68 -16 8 C-14.41701974 7.5196682 -12.83360022 7.04078388 -11.25 6.5625 C-9.92742187 6.16224609 -9.92742187 6.16224609 -8.578125 5.75390625 C-6.39434165 5.11531506 -4.21164502 4.53224167 -2 4 C-2 3.34 -2 2.68 -2 2 C-1.34 2 -0.68 2 0 2 C0 1.34 0 0.68 0 0 Z " fill="#7F2363" transform="translate(470,131)"/>
<path d="M0 0 C0.33 0 0.66 0 1 0 C1.28358209 7.37313433 1.28358209 7.37313433 -1 11 C-1.33 11.66 -1.66 12.32 -2 13 C-2.66 13 -3.32 13 -4 13 C-4.66 14.98 -5.32 16.96 -6 19 C-6.66 19 -7.32 19 -8 19 C-7.38188466 14.44684052 -5.53234107 10.71540233 -3.4375 6.6875 C-2.9434668 5.71973633 -2.9434668 5.71973633 -2.43945312 4.73242188 C-1.63175745 3.15214772 -0.81662387 1.57567895 0 0 Z " fill="#71256D" transform="translate(250,39)"/>
<path d="M0 0 C0.99 0 1.98 0 3 0 C1.20353663 18.83922772 1.20353663 18.83922772 -3 27 C-3.66 27.33 -4.32 27.66 -5 28 C-4.71517632 26.58194169 -4.42181856 25.16559621 -4.125 23.75 C-3.96257812 22.96109375 -3.80015625 22.1721875 -3.6328125 21.359375 C-3 19 -3 19 -1.96875 17.1875 C-0.54609169 13.97504576 -0.53197983 10.71009706 -0.375 7.25 C-0.33632813 6.55261719 -0.29765625 5.85523437 -0.2578125 5.13671875 C-0.16401376 3.42489182 -0.08093826 1.71248318 0 0 Z " fill="#972E63" transform="translate(493,86)"/>
<path d="M0 0 C0.99 0 1.98 0 3 0 C3 6.6 3 13.2 3 20 C2.34 20 1.68 20 1 20 C0.67 13.4 0.34 6.8 0 0 Z " fill="#651E61" transform="translate(56,60)"/>
<path d="M0 0 C1.32 0 2.64 0 4 0 C2.45730076 4.72065967 0.92205381 9.41664092 -1 14 C-2.20628008 11.66785852 -3.1654738 9.50357861 -4 7 C-3 6 -2 5 -1 4 C-0.63837971 2.67405895 -0.30271961 1.34061543 0 0 Z " fill="#6E2569" transform="translate(604,90)"/>
<path d="M0 0 C0.680625 0.804375 1.36125 1.60875 2.0625 2.4375 C7.07350565 6.75354866 14.71134157 5.91199079 21 6 C21 5.34 21 4.68 21 4 C22.32 4 23.64 4 25 4 C24.67 4.99 24.34 5.98 24 7 C20.56294295 7.14505175 17.12666967 7.23398014 13.6875 7.3125 C12.71103516 7.35439453 11.73457031 7.39628906 10.72851562 7.43945312 C8.06461527 7.48522461 5.62179084 7.47884217 3 7 C0.77363859 4.54097379 0 3.30130725 0 0 Z " fill="#682D68" transform="translate(566,128)"/>
<path d="M0 0 C0.66 0 1.32 0 2 0 C2.433125 0.9590625 2.433125 0.9590625 2.875 1.9375 C3.82823451 4.15206079 3.82823451 4.15206079 6 5 C7.05771739 6.63064764 8.05273046 8.30280873 9 10 C9.4125 10.680625 9.825 11.36125 10.25 12.0625 C11.17856905 14.46130339 10.70346132 15.5831079 10 18 C8.32605999 15.37957157 6.6621165 12.75294095 5 10.125 C4.52304687 9.37863281 4.04609375 8.63226563 3.5546875 7.86328125 C3.10351562 7.14785156 2.65234375 6.43242188 2.1875 5.6953125 C1.76855469 5.03547363 1.34960938 4.37563477 0.91796875 3.69580078 C0 2 0 2 0 0 Z " fill="#682262" transform="translate(318,86)"/>
<path d="M0 0 C2.57781906 2.57781906 2.62129616 4.4401839 3 8 C2 9 2 9 -0.06640625 9.09765625 C-0.89011719 9.08605469 -1.71382812 9.07445312 -2.5625 9.0625 C-3.38878906 9.05347656 -4.21507812 9.04445312 -5.06640625 9.03515625 C-5.70449219 9.02355469 -6.34257812 9.01195312 -7 9 C-6.01 8.67 -5.02 8.34 -4 8 C-2.89363605 5.60931266 -2.89363605 5.60931266 -2 3 C-1.34 2.01 -0.68 1.02 0 0 Z " fill="#73256C" transform="translate(203,126)"/>
<path d="M0 0 C0.66 0 1.32 0 2 0 C2.08097324 2.27024968 2.13917704 4.54132075 2.1875 6.8125 C2.22230469 8.07707031 2.25710938 9.34164062 2.29296875 10.64453125 C2 14 2 14 0.48828125 15.94921875 C-0.00285156 16.29597656 -0.49398438 16.64273438 -1 17 C-1.38063221 14.6739143 -1.71269945 12.33944736 -2 10 C-1.67 9.67 -1.34 9.34 -1 9 C-0.76807135 7.48530552 -0.58784762 5.96245438 -0.4375 4.4375 C-0.35371094 3.61121094 -0.26992188 2.78492187 -0.18359375 1.93359375 C-0.12300781 1.29550781 -0.06242187 0.65742187 0 0 Z " fill="#8F127B" transform="translate(386,81)"/>
<path d="M0 0 C0.99 0.66 1.98 1.32 3 2 C2.34 2.66 1.68 3.32 1 4 C0.27094862 6.27258985 -0.38623885 8.56860068 -1 10.875 C-3.04429302 18.52512777 -3.04429302 18.52512777 -5 22 C-5.66 22 -6.32 22 -7 22 C-5.0827282 14.49068545 -2.75950985 7.24196241 0 0 Z " fill="#682063" transform="translate(596,51)"/>
<path d="M0 0 C0.66 1.32 1.32 2.64 2 4 C3.65 3.01 5.3 2.02 7 1 C7.1875 3.375 7.1875 3.375 7 6 C6.01 6.66 5.02 7.32 4 8 C4 7.01 4 6.02 4 5 C3.34 5.66 2.68 6.32 2 7 C0.34738161 8.02304948 -1.31791365 9.02616054 -3 10 C-2.01 6.7 -1.02 3.4 0 0 Z " fill="#721C6D" transform="translate(136,65)"/>
<path d="M0 0 C0.33 0.99 0.66 1.98 1 3 C0.67 3.66 0.34 4.32 0 5 C-2.0625 5.625 -2.0625 5.625 -4 6 C-4.061875 6.61875 -4.12375 7.2375 -4.1875 7.875 C-5 10 -5 10 -7.5625 11.25 C-8.366875 11.4975 -9.17125 11.745 -10 12 C-7.87880087 6.98625661 -4.506805 3.00453667 0 0 Z " fill="#892464" transform="translate(402,43)"/>
<path d="M0 0 C0.33 0 0.66 0 1 0 C1 10.23 1 20.46 1 31 C0.01 31.33 -0.98 31.66 -2 32 C-1.505 30.515 -1.505 30.515 -1 29 C-0.84890907 26.79040747 -0.75126199 24.57699953 -0.68359375 22.36328125 C-0.62075195 20.41518555 -0.62075195 20.41518555 -0.55664062 18.42773438 C-0.51683013 17.05599239 -0.47711784 15.68424756 -0.4375 14.3125 C-0.39429165 12.92902355 -0.35067661 11.54555973 -0.30664062 10.16210938 C-0.20041972 6.77484281 -0.09837642 3.38750201 0 0 Z " fill="#5C2256" transform="translate(58,103)"/>
<path d="M0 0 C-0.65784963 3.29680965 -1.89420573 5.84117922 -3.5625 8.75 C-4.01753906 9.54921875 -4.47257812 10.3484375 -4.94140625 11.171875 C-5.29074219 11.77515625 -5.64007813 12.3784375 -6 13 C-6.625 11.1875 -6.625 11.1875 -7 9 C-6.34 8.01 -5.68 7.02 -5 6 C-5.66 5.34 -6.32 4.68 -7 4 C-4.83989616 0.75984424 -3.8842653 0 0 0 Z " fill="#6B2166" transform="translate(279,38)"/>
<path d="M0 0 C8.25 0 16.5 0 25 0 C25.33 1.32 25.66 2.64 26 4 C25.01 3.34 24.02 2.68 23 2 C20.63018188 1.69238239 20.63018188 1.69238239 18 1.734375 C17.030625 1.73179688 16.06125 1.72921875 15.0625 1.7265625 C14.051875 1.73429687 13.04125 1.74203125 12 1.75 C10.989375 1.74226563 9.97875 1.73453125 8.9375 1.7265625 C7.4834375 1.73042969 7.4834375 1.73042969 6 1.734375 C5.113125 1.73663086 4.22625 1.73888672 3.3125 1.74121094 C0.72549055 1.85170638 0.72549055 1.85170638 -2 4 C-1.34 2.68 -0.68 1.36 0 0 Z " fill="#722F6A" transform="translate(602,38)"/>
<path d="M0 0 C0.99 0.495 0.99 0.495 2 1 C2.625 4.0625 2.625 4.0625 3 7 C3.66 7 4.32 7 5 7 C6.59138085 11.17737474 7.21278058 14.53160785 7 19 C4.92782515 15.89173772 3.71574645 12.98123641 2.375 9.5 C1.92898438 8.3553125 1.48296875 7.210625 1.0234375 6.03125 C0 3 0 3 0 0 Z " fill="#682265" transform="translate(559,108)"/>
<path d="M0 0 C0.66 0.33 1.32 0.66 2 1 C1.34 3.31 0.68 5.62 0 8 C0.66 8.33 1.32 8.66 2 9 C-2.75 13.875 -2.75 13.875 -5 15 C-1.92482916 4.44191344 -1.92482916 4.44191344 0 0 Z " fill="#6F216A" transform="translate(142,50)"/>
<path d="M0 0 C0.433125 0.45375 0.86625 0.9075 1.3125 1.375 C3.10798342 3.20024334 3.10798342 3.20024334 6 5 C7.53412575 7.55687624 8.52469385 10.05310188 9 13 C8.67 13.99 8.34 14.98 8 16 C6.66141476 13.71125827 5.32898986 11.41930344 4 9.125 C3.6184375 8.47402344 3.236875 7.82304688 2.84375 7.15234375 C0 2.2265625 0 2.2265625 0 0 Z " fill="#6A2364" transform="translate(191,41)"/>
<path d="M0 0 C3.12557301 2.73117894 5.07807514 6.16670588 7.1875 9.6875 C7.55552734 10.29400391 7.92355469 10.90050781 8.30273438 11.52539062 C9.20564926 13.01461388 10.10334696 14.50699815 11 16 C10.34 16.33 9.68 16.66 9 17 C8.566875 16.236875 8.13375 15.47375 7.6875 14.6875 C6.17814379 12.0620892 6.17814379 12.0620892 4.4375 10.4375 C2.74937331 8.74937331 1.89640063 7.20652463 1 5 C1 4.01 1 3.02 1 2 C0.34 1.67 -0.32 1.34 -1 1 C-0.67 0.67 -0.34 0.34 0 0 Z " fill="#702167" transform="translate(337,75)"/>
<path d="M0 0 C1.44977894 2.34112451 2.04314411 3.5796929 1.7578125 6.359375 C1.54898438 7.14828125 1.34015625 7.9371875 1.125 8.75 C0.92132812 9.54921875 0.71765625 10.3484375 0.5078125 11.171875 C0.34023438 11.77515625 0.17265625 12.3784375 0 13 C-0.66 13 -1.32 13 -2 13 C-2 13.99 -2 14.98 -2 16 C-2.66 16 -3.32 16 -4 16 C-2.84941444 10.60204011 -1.57578241 5.29012667 0 0 Z " fill="#6B2167" transform="translate(547,63)"/>
<path d="M0 0 C2.30874711 2.16614803 4.05290181 4.39206608 5.75 7.0625 C6.19859375 7.75472656 6.6471875 8.44695312 7.109375 9.16015625 C7.40328125 9.76730469 7.6971875 10.37445313 8 11 C7.67 11.66 7.34 12.32 7 13 C6.401875 12.175 5.80375 11.35 5.1875 10.5 C4.465625 9.675 3.74375 8.85 3 8 C2.01 8 1.02 8 0 8 C-0.98120464 4.94736336 -0.98120464 3.05263664 0 0 Z " fill="#671D62" transform="translate(329,62)"/>
<path d="M0 0 C1.10601562 -0.00580078 1.10601562 -0.00580078 2.234375 -0.01171875 C7.7466804 -0.0016598 7.7466804 -0.0016598 10 1.125 C10 1.785 10 2.445 10 3.125 C3.4 3.125 -3.2 3.125 -10 3.125 C-10 2.465 -10 1.805 -10 1.125 C-6.84150315 -0.45424842 -3.4634872 -0.01816514 0 0 Z " fill="#73226D" transform="translate(67,56.875)"/>
<path d="M0 0 C0.66 0.33 1.32 0.66 2 1 C-0.97 5.29 -3.94 9.58 -7 14 C-8.32 13.67 -9.64 13.34 -11 13 C-10.34 13 -9.68 13 -9 13 C-9 12.34 -9 11.68 -9 11 C-8.34 11 -7.68 11 -7 11 C-5.47700477 8.06279492 -4.19899698 5.0831351 -3 2 C-2.01 2 -1.02 2 0 2 C0 1.34 0 0.68 0 0 Z " fill="#8F2968" transform="translate(455,93)"/>
<path d="M0 0 C1.32 0 2.64 0 4 0 C4.33 4.95 4.66 9.9 5 15 C3.25050228 12.37575342 2.34610019 10.44272784 1.375 7.5 C0.98441406 6.33984375 0.98441406 6.33984375 0.5859375 5.15625 C0 3 0 3 0 0 Z " fill="#6E236B" transform="translate(160,74)"/>
<path d="M0 0 C3.2531655 3.74114033 5.44374911 8.31315138 7 13 C6.67 13.66 6.34 14.32 6 15 C5.5875 14.195625 5.175 13.39125 4.75 12.5625 C3.11418753 9.55795583 3.11418753 9.55795583 -1 9 C-0.67 6.03 -0.34 3.06 0 0 Z " fill="#6F2069" transform="translate(225,54)"/>
<path d="M0 0 C0.33 0 0.66 0 1 0 C1.144375 1.134375 1.28875 2.26875 1.4375 3.4375 C1.61171478 6.80777201 1.61171478 6.80777201 3 8 C3.28221172 10.58022142 3.44820197 13.16030185 3.62109375 15.75 C3.74613281 16.4925 3.87117188 17.235 4 18 C4.66 18.33 5.32 18.66 6 19 C5.01 19.33 4.02 19.66 3 20 C0.55833216 13.16914355 -0.41640288 7.2484945 0 0 Z " fill="#77206A" transform="translate(382,88)"/>
<path d="M0 0 C0.66 0 1.32 0 2 0 C2.185625 1.7015625 2.185625 1.7015625 2.375 3.4375 C2.684375 5.2009375 2.684375 5.2009375 3 7 C3.66 7.33 4.32 7.66 5 8 C6.34839851 10.9347497 7.3001048 13.85047161 8 17 C7.34 17.33 6.68 17.66 6 18 C4.9936345 15.56495491 3.99473587 13.12729136 3 10.6875 C2.71382813 9.99720703 2.42765625 9.30691406 2.1328125 8.59570312 C0.91089256 5.58454326 0 3.28113016 0 0 Z " fill="#662262" transform="translate(506,83)"/>
<path d="M0 0 C1.94921875 0.1640625 1.94921875 0.1640625 4 1 C5.08203125 2.9609375 5.08203125 2.9609375 5.8125 5.375 C6.06644531 6.16648437 6.32039062 6.95796875 6.58203125 7.7734375 C7 10 7 10 6 13 C4 10 4 10 4 7 C3.01 6.67 2.02 6.34 1 6 C1.33 4.68 1.66 3.36 2 2 C1.01 1.67 0.02 1.34 -1 1 C-0.67 0.67 -0.34 0.34 0 0 Z " fill="#6B2468" transform="translate(513,38)"/>
<path d="M0 0 C0.598125 0.309375 1.19625 0.61875 1.8125 0.9375 C4.08956772 2.10209704 4.08956772 2.10209704 7 3 C7.33 2.34 7.66 1.68 8 1 C8 3.97 8 6.94 8 10 C4.71211176 6.88983545 2.16264012 3.98381075 0 0 Z " fill="#852165" transform="translate(416,88)"/>
<path d="M0 0 C0.99 0.33 1.98 0.66 3 1 C3.33 1.99 3.66 2.98 4 4 C3.01 4.495 3.01 4.495 2 5 C1.67 4.34 1.34 3.68 1 3 C0.01 5.97 -0.98 8.94 -2 12 C-2.33 12 -2.66 12 -3 12 C-3.08131463 10.56344146 -3.13933559 9.1255517 -3.1875 7.6875 C-3.22230469 6.88699219 -3.25710937 6.08648437 -3.29296875 5.26171875 C-2.93801608 2.52148416 -2.10633718 1.70828921 0 0 Z " fill="#6D2166" transform="translate(157,69)"/>
<path d="M0 0 C1.32 0 2.64 0 4 0 C6.36486077 4.58191774 6.40579751 8.96056114 6 14 C5.67 14.99 5.34 15.98 5 17 C4.34 17 3.68 17 3 17 C3.10699219 16.33613281 3.21398437 15.67226562 3.32421875 14.98828125 C4.1651153 9.35540923 4.1651153 9.35540923 2.625 4 C2.08875 3.34 1.5525 2.68 1 2 C0.67 1.34 0.34 0.68 0 0 Z " fill="#6B2665" transform="translate(77,60)"/>
<path d="M0 0 C0.639375 0.680625 1.27875 1.36125 1.9375 2.0625 C5.62709757 5.77342473 9.83346374 8.8501349 14 12 C13.01 12.33 12.02 12.66 11 13 C9.53184611 11.78258021 8.07583153 10.55051239 6.625 9.3125 C5.81289063 8.62800781 5.00078125 7.94351563 4.1640625 7.23828125 C1.90465677 4.90138687 0.97844147 3.0697257 0 0 Z " fill="#6D2360" transform="translate(405,110)"/>
<path d="M0 0 C0.66 1.32 1.32 2.64 2 4 C1.01 4 0.02 4 -1 4 C-1 5.32 -1 6.64 -1 8 C-4 10 -4 10 -7 11 C-5.5140084 6.40693504 -3.14985318 3.56430755 0 0 Z " fill="#8D2762" transform="translate(447,75)"/>
<path d="M0 0 C0.66 0 1.32 0 2 0 C0.36041242 5.23272633 -1.38952035 10.15196636 -4 15 C-4.66 15 -5.32 15 -6 15 C-4.40109514 9.80355921 -2.25861997 4.93387858 0 0 Z " fill="#662561" transform="translate(139,120)"/>
<path d="M0 0 C-0.45196245 1.60597325 -0.91182327 3.20972508 -1.375 4.8125 C-1.63023437 5.70582031 -1.88546875 6.59914063 -2.1484375 7.51953125 C-3 10 -3 10 -5 13 C-5.08086147 11.20906809 -5.13912702 9.41710372 -5.1875 7.625 C-5.22230469 6.62726563 -5.25710938 5.62953125 -5.29296875 4.6015625 C-5.14794922 3.31378906 -5.14794922 3.31378906 -5 2 C-2 0 -2 0 0 0 Z " fill="#6B2266" transform="translate(557,109)"/>
<path d="M0 0 C2.67901932 2.31881505 3.66204403 4.31814468 4.6875 7.6875 C4.93886719 8.49574219 5.19023437 9.30398437 5.44921875 10.13671875 C5.63097656 10.75160156 5.81273437 11.36648437 6 12 C5.34 11.67 4.68 11.34 4 11 C4 10.34 4 9.68 4 9 C2.68 8.67 1.36 8.34 0 8 C0 5.36 0 2.72 0 0 Z " fill="#6F2169" transform="translate(217,38)"/>
<path d="M0 0 C5.72448621 0.22448966 9.28480453 2.01691715 14 5 C13.67 5.66 13.34 6.32 13 7 C12.01 6.67 11.02 6.34 10 6 C10 5.34 10 4.68 10 4 C4.06 3.01 4.06 3.01 -2 2 C-1.34 1.34 -0.68 0.68 0 0 Z " fill="#682460" transform="translate(81,38)"/>
<path d="M0 0 C0.66 0 1.32 0 2 0 C2.433125 1.2065625 2.433125 1.2065625 2.875 2.4375 C3.73262568 5.1326468 3.73262568 5.1326468 6 6 C6 6.66 6 7.32 6 8 C7.32 8.33 8.64 8.66 10 9 C7.69 9 5.38 9 3 9 C0 3.375 0 3.375 0 0 Z " fill="#63255F" transform="translate(178,126)"/>
<path d="M0 0 C4.455 0.99 4.455 0.99 9 2 C9 2.33 9 2.66 9 3 C6.69 3 4.38 3 2 3 C2 3.66 2 4.32 2 5 C-0.35171131 4.40138258 -2.6859378 3.73075648 -5 3 C-5.33 2.34 -5.66 1.68 -6 1 C-3.525 1.495 -3.525 1.495 -1 2 C-0.67 1.34 -0.34 0.68 0 0 Z " fill="#761667" transform="translate(422,124)"/>
<path d="M0 0 C1.57169068 2.45183745 2.0542179 3.61213349 1.64453125 6.54296875 C1.36996094 7.41566406 1.09539063 8.28835937 0.8125 9.1875 C0.55082031 10.06792969 0.28914062 10.94835937 0.01953125 11.85546875 C-0.31691406 12.56316406 -0.65335938 13.27085938 -1 14 C-1.99 14.33 -2.98 14.66 -4 15 C-3.79503906 14.25234375 -3.59007812 13.5046875 -3.37890625 12.734375 C-3.10949219 11.74953125 -2.84007812 10.7646875 -2.5625 9.75 C-2.29566406 8.77546875 -2.02882813 7.8009375 -1.75390625 6.796875 C-1.14455416 4.53627347 -0.55761745 2.27377991 0 0 Z " fill="#642163" transform="translate(542,79)"/>
<path d="M0 0 C1 4 1 4 1 8 C1.66 8.33 2.32 8.66 3 9 C1.68 9.99 0.36 10.98 -1 12 C-1.66 11.67 -2.32 11.34 -3 11 C-2.01 7.37 -1.02 3.74 0 0 Z " fill="#6C1D68" transform="translate(587,76)"/>
<path d="M0 0 C0.66 0.33 1.32 0.66 2 1 C0.24277009 5.31320068 -2.8062168 8.9031084 -7 11 C-5.22054913 6.95579349 -2.60470327 3.53921513 0 0 Z " fill="#932D5F" transform="translate(455,64)"/>
<path d="M0 0 C0.66 0.33 1.32 0.66 2 1 C-0.31 4.3 -2.62 7.6 -5 11 C-6 8 -6 8 -5 5 C-4.01 5 -3.02 5 -2 5 C-2.33 3.68 -2.66 2.36 -3 1 C-2.01 0.67 -1.02 0.34 0 0 Z " fill="#952A61" transform="translate(463,82)"/>
<path d="M0 0 C0.99 0.33 1.98 0.66 3 1 C1.37625868 5.22172742 0.79824091 6.46783939 -3 9 C-3.66 8.34 -4.32 7.68 -5 7 C-4.67 6.01 -4.34 5.02 -4 4 C-3.34 4 -2.68 4 -2 4 C-2 3.34 -2 2.68 -2 2 C-1.34 2 -0.68 2 0 2 C0 1.34 0 0.68 0 0 Z " fill="#B82B66" transform="translate(470,46)"/>
<path d="M0 0 C0.99 0 1.98 0 3 0 C3 2.31 3 4.62 3 7 C2.01 6.01 1.02 5.02 0 4 C-1.32 5.32 -2.64 6.64 -4 8 C-4.33 7.34 -4.66 6.68 -5 6 C-4.34 6 -3.68 6 -3 6 C-2.67 4.68 -2.34 3.36 -2 2 C-1.34 2 -0.68 2 0 2 C0 1.34 0 0.68 0 0 Z " fill="#9D2C60" transform="translate(474,67)"/>
<path d="M0 0 C-2.85410334 1.50560497 -5.68124642 2.63216796 -8.75 3.625 C-9.54921875 3.88539062 -10.3484375 4.14578125 -11.171875 4.4140625 C-11.77515625 4.60742188 -12.3784375 4.80078125 -13 5 C-13.66 4.34 -14.32 3.68 -15 3 C-9.63999211 0.74315457 -5.8022175 -0.36263859 0 0 Z " fill="#912860" transform="translate(431,47)"/>
<path d="M0 0 C2.97 0.33 5.94 0.66 9 1 C9 2.32 9 3.64 9 5 C4.89198233 3.81323934 3.10551666 3.10551666 0 0 Z " fill="#76226D" transform="translate(407,134)"/>
<path d="M0 0 C2.45823172 3.68734758 3.01242616 6.69699971 4 11 C1.03 10.505 1.03 10.505 -2 10 C-1.01 9.67 -0.02 9.34 1 9 C0.67 6.03 0.34 3.06 0 0 Z " fill="#6D2369" transform="translate(571,75)"/>
<path d="M0 0 C1.98 0 3.96 0 6 0 C4.62845496 2.95409701 3.01136276 5.44008376 1 8 C0 2.25 0 2.25 0 0 Z " fill="#872263" transform="translate(402,60)"/>
<path d="M0 0 C-0.66 1.32 -1.32 2.64 -2 4 C-2.66 4 -3.32 4 -4 4 C-4.33 3.34 -4.66 2.68 -5 2 C-5.99 2.66 -6.98 3.32 -8 4 C-10.1875 3.625 -10.1875 3.625 -12 3 C-7.77050005 0.58314288 -4.87664009 -0.34833144 0 0 Z " fill="#882263" transform="translate(465,121)"/>
<path d="M0 0 C0.33 0.99 0.66 1.98 1 3 C1.99 4.485 1.99 4.485 3 6 C2.625 8.1875 2.625 8.1875 2 10 C-0.0625 7.75 -0.0625 7.75 -2 5 C-1.81190541 2.74286486 -1.60454441 1.60454441 0 0 Z " fill="#781C6E" transform="translate(392,113)"/>
<path d="M0 0 C1.60031344 3.20062687 0.03173691 5.72271806 -1 9 C-2.65 9.33 -4.3 9.66 -6 10 C-4.34832443 6.4213696 -2.21713508 3.25179812 0 0 Z " fill="#9C3162" transform="translate(462,54)"/>
<path d="M0 0 C1.9375 0.3125 1.9375 0.3125 4 1 C4.33 1.99 4.66 2.98 5 4 C3.02 4.33 1.04 4.66 -1 5 C-1.33 4.34 -1.66 3.68 -2 3 C-1.34 2.01 -0.68 1.02 0 0 Z " fill="#B82A63" transform="translate(483,58)"/>
<path d="M0 0 C2.95183101 2.95183101 3.08663988 5.95511947 4 10 C3.01 10.495 3.01 10.495 2 11 C1.01 7.7 0.02 4.4 -1 1 C-0.67 0.67 -0.34 0.34 0 0 Z " fill="#6F216C" transform="translate(186,82)"/>
<path d="M0 0 C0 0.99 0 1.98 0 3 C-3.13498292 4.85776765 -5.37471432 5.20140476 -9 5 C-2.87096774 0 -2.87096774 0 0 0 Z " fill="#942863" transform="translate(416,35)"/>
<path d="M0 0 C4.875 4.625 4.875 4.625 6 8 C6.66 8.33 7.32 8.66 8 9 C6.35 8.67 4.7 8.34 3 8 C3 7.01 3 6.02 3 5 C2.34 5 1.68 5 1 5 C0.67 3.35 0.34 1.7 0 0 Z " fill="#8D2365" transform="translate(432,79)"/>
<path d="M0 0 C0.99 0 1.98 0 3 0 C1.43358249 4.30764815 -0.68336156 8.06171464 -3 12 C-3.33 11.01 -3.66 10.02 -4 9 C-3.04504326 7.30712215 -2.0409066 5.64142963 -1 4 C-0.30420546 1.80869466 -0.30420546 1.80869466 0 0 Z " fill="#661F63" transform="translate(255,76)"/>
<path d="M0 0 C0.33 0.66 0.66 1.32 1 2 C0.67 2.99 0.34 3.98 0 5 C-0.66 5 -1.32 5 -2 5 C-2.66 6.32 -3.32 7.64 -4 9 C-5.125 4.25 -5.125 4.25 -4 2 C-1.9375 0.875 -1.9375 0.875 0 0 Z " fill="#732071" transform="translate(551,122)"/>
<path d="M0 0 C1.98 0 3.96 0 6 0 C5.67 1.98 5.34 3.96 5 6 C3.2925002 4.71937515 1.62626404 3.38232443 0 2 C0 1.34 0 0.68 0 0 Z " fill="#6F1968" transform="translate(395,123)"/>
<path d="M0 0 C2.95183101 2.95183101 3.08663988 5.95511947 4 10 C3.34 10 2.68 10 2 10 C-0.4294516 6.3558226 -0.16179575 4.28758728 0 0 Z " fill="#6B2567" transform="translate(191,95)"/>
<path d="M0 0 C0.99 0.33 1.98 0.66 3 1 C3.125 3.875 3.125 3.875 3 7 C2.34 7.66 1.68 8.32 1 9 C-1.125 2.25 -1.125 2.25 0 0 Z " fill="#76206E" transform="translate(601,95)"/>
<path d="M0 0 C1.39195915 4.17587745 -0.17676781 6.13474776 -2 10 C-2.33 10 -2.66 10 -3 10 C-3 7.03 -3 4.06 -3 1 C-2.01 0.67 -1.02 0.34 0 0 Z " fill="#712167" transform="translate(620,57)"/>
<path d="M0 0 C2.125 0.9375 2.125 0.9375 4 2 C3.34 4.31 2.68 6.62 2 9 C1.67 9 1.34 9 1 9 C0.87625 7.865625 0.7525 6.73125 0.625 5.5625 C0.41875 4.386875 0.2125 3.21125 0 2 C-0.66 1.67 -1.32 1.34 -2 1 C-1.34 0.67 -0.68 0.34 0 0 Z " fill="#701E6B" transform="translate(620,48)"/>
<path d="M0 0 C0.33 0 0.66 0 1 0 C1.06058594 0.83144531 1.12117188 1.66289063 1.18359375 2.51953125 C1.26738281 3.60621094 1.35117187 4.69289063 1.4375 5.8125 C1.51871094 6.89144531 1.59992187 7.97039062 1.68359375 9.08203125 C1.90212461 12.05989905 1.90212461 12.05989905 3 15 C2.01 14.67 1.02 14.34 0 14 C0 9.38 0 4.76 0 0 Z " fill="#652C62" transform="translate(33,120)"/>
<path d="M0 0 C2 1.5625 2 1.5625 4 4 C4.25 7.75 4.25 7.75 4 11 C1.55160412 7.32740617 0 4.45351799 0 0 Z " fill="#6E2669" transform="translate(513,101)"/>
<path d="M0 0 C0.99 0.33 1.98 0.66 3 1 C3.73046875 2.84765625 3.73046875 2.84765625 4.1875 5.0625 C4.34605469 5.79597656 4.50460938 6.52945313 4.66796875 7.28515625 C4.83232422 8.13400391 4.83232422 8.13400391 5 9 C4.01 9 3.02 9 2 9 C1.34 6.03 0.68 3.06 0 0 Z " fill="#6C2565" transform="translate(165,89)"/>
<path d="M0 0 C0.89310101 2.67930304 1.44761501 5.23807505 2 8 C2.33 8.99 2.66 9.98 3 11 C2.01 10.67 1.02 10.34 0 10 C-1.3125 7.1875 -1.3125 7.1875 -2 4 C-1.125 1.625 -1.125 1.625 0 0 Z " fill="#702254" transform="translate(412,75)"/>
<path d="M0 0 C3.24299151 2.38957269 5.50902342 4.2047869 7 8 C6.01 7.67 5.02 7.34 4 7 C4 6.34 4 5.68 4 5 C2.35 4.67 0.7 4.34 -1 4 C-0.67 2.68 -0.34 1.36 0 0 Z " fill="#8E2565" transform="translate(425,71)"/>
<path d="M0 0 C0.66 0.66 1.32 1.32 2 2 C1.875 4 1.875 4 1 6 C-1.0625 7.25 -1.0625 7.25 -3 8 C-1.125 1.125 -1.125 1.125 0 0 Z " fill="#A62560" transform="translate(465,50)"/>
<path d="M0 0 C1 3 1 3 -0.125 5.6875 C-2 8 -2 8 -4.6875 8.3125 C-5.450625 8.209375 -6.21375 8.10625 -7 8 C-5.71034824 6.62437146 -4.37310707 5.29233607 -3 4 C-2.34 4 -1.68 4 -1 4 C-0.67 2.68 -0.34 1.36 0 0 Z " fill="#662A60" transform="translate(549,127)"/>
<path d="M0 0 C7.75 0.75 7.75 0.75 10 3 C8.72125 3.061875 7.4425 3.12375 6.125 3.1875 C5.40570313 3.22230469 4.68640625 3.25710937 3.9453125 3.29296875 C3.30335938 3.19628906 2.66140625 3.09960938 2 3 C1.34 2.01 0.68 1.02 0 0 Z " fill="#782477" transform="translate(289,132)"/>
<path d="M0 0 C4.8 3.44615385 4.8 3.44615385 5.8125 6.25 C5.874375 6.8275 5.93625 7.405 6 8 C2.24623848 6.74874616 1.75926711 5.4347596 0 2 C0 1.34 0 0.68 0 0 Z " fill="#612360" transform="translate(343,127)"/>
<path d="M0 0 C1.39195915 4.17587745 -0.17676781 6.13474776 -2 10 C-2.33 10 -2.66 10 -3 10 C-2.25 2.25 -2.25 2.25 0 0 Z " fill="#6B2A64" transform="translate(601,104)"/>
<path d="M0 0 C1.485 0.99 1.485 0.99 3 2 C3.6875 5.625 3.6875 5.625 4 9 C0 4.5 0 4.5 0 0 Z " fill="#701E69" transform="translate(325,95)"/>
<path d="M0 0 C0.99 0.33 1.98 0.66 3 1 C-1.39453125 5.00390625 -1.39453125 5.00390625 -3 6 C-3.99 5.67 -4.98 5.34 -6 5 C-4 3 -4 3 -1 2 C-0.67 1.34 -0.34 0.68 0 0 Z " fill="#70236C" transform="translate(96,92)"/>
<path d="M0 0 C1.32 0.33 2.64 0.66 4 1 C4.33 3.64 4.66 6.28 5 9 C0.57142857 3.85714286 0.57142857 3.85714286 0 0 Z " fill="#62195B" transform="translate(313,77)"/>
<path d="M0 0 C0.99 0.33 1.98 0.66 3 1 C2.34 3.97 1.68 6.94 1 10 C0.67 10 0.34 10 0 10 C0 6.7 0 3.4 0 0 Z " fill="#6C1F69" transform="translate(151,80)"/>
<path d="M0 0 C2.18975773 3.28463659 2.99806563 6.20696275 4 10 C3.01 10 2.02 10 1 10 C0.37542727 6.56484998 0 3.50935186 0 0 Z " fill="#652060" transform="translate(182,71)"/>
<path d="M0 0 C2 0.66666667 4 1.33333333 6 2 C5.34 2.66 4.68 3.32 4 4 C1.375 3.625 1.375 3.625 -1 3 C-0.67 2.01 -0.34 1.02 0 0 Z " fill="#891780" transform="translate(407,130)"/>
<path d="M0 0 C1 2 1 2 0.44140625 3.9453125 C0.15136719 4.66460937 -0.13867188 5.38390625 -0.4375 6.125 C-0.72496094 6.84945312 -1.01242187 7.57390625 -1.30859375 8.3203125 C-1.53675781 8.87460938 -1.76492188 9.42890625 -2 10 C-2.33 10 -2.66 10 -3 10 C-3 7.69 -3 5.38 -3 3 C-2.34 3 -1.68 3 -1 3 C-0.67 2.01 -0.34 1.02 0 0 Z " fill="#6D2466" transform="translate(594,122)"/>
<path d="M0 0 C0.99 0.33 1.98 0.66 3 1 C3 3.31 3 5.62 3 8 C2.34 7.67 1.68 7.34 1 7 C0.59270772 4.67843403 0.25561323 2.3431213 0 0 Z " fill="#9C3362" transform="translate(492,76)"/>
<path d="M0 0 C3 1 3 1 4 3 C4.039992 4.99960012 4.04346799 7.00047242 4 9 C1.3144406 6.3144406 0.93950026 3.62378672 0 0 Z " fill="#692360" transform="translate(496,58)"/>
<path d="M0 0 C0.33 0 0.66 0 1 0 C1 2.31 1 4.62 1 7 C-0.32 6.67 -1.64 6.34 -3 6 C-2.01 4.02 -1.02 2.04 0 0 Z " fill="#662362" transform="translate(250,39)"/>
</svg>
