<?xml version="1.0" encoding="UTF-8"?>
<svg version="1.1" xmlns="http://www.w3.org/2000/svg" width="2560" height="682">
<path d="M0 0 C1.39278366 -0.00573832 1.39278366 -0.00573832 2.81370437 -0.01159257 C5.92752665 -0.02191683 9.04116431 -0.01793119 12.15499878 -0.01396179 C14.38776317 -0.01830919 16.62052607 -0.02349243 18.85328674 -0.02944946 C24.92694065 -0.04286348 31.0005324 -0.0434143 37.07419825 -0.04088616 C42.15937609 -0.03981576 47.2445414 -0.0447028 52.32971656 -0.04949158 C65.04050993 -0.06123549 77.75125855 -0.06035757 90.4620515 -0.05393478 C101.43985732 -0.04879267 112.41757366 -0.05994765 123.3953618 -0.07903299 C134.70595553 -0.09854316 146.01649503 -0.10635375 157.32711017 -0.10290974 C163.66097749 -0.10111027 169.99476333 -0.10359565 176.3286171 -0.11762428 C228.06510359 -0.22228607 228.06510359 -0.22228607 248.8107605 3.26069641 C249.90515568 3.44441992 250.99955086 3.62814342 252.12710953 3.81743431 C284.05089214 9.29616642 312.97104344 19.81848001 336.8107605 42.26069641 C337.71568237 43.0689386 337.71568237 43.0689386 338.6388855 43.89350891 C357.74803228 61.66322951 368.90399079 89.90346042 369.94699097 115.61958313 C370.42047349 137.52623725 370.42047349 137.52623725 369.1545105 146.62007141 C368.6022687 150.61330154 368.15585439 154.2397655 368.8107605 158.26069641 C372.2182322 162.0701058 376.30183983 163.96732134 380.8107605 166.26069641 C401.20510433 180.33919297 412.80898299 203.16616468 417.5607605 227.01069641 C426.56376172 276.94587632 411.72336181 336.00876124 383.396698 377.59663391 C380.07999345 382.34274363 376.61368554 386.89198779 372.8107605 391.26069641 C371.99220581 392.21202454 371.17365112 393.16335266 370.33029175 394.14350891 C340.57422164 428.05298499 297.82570986 444.21185457 253.8107605 449.26069641 C253.05367798 449.35350891 252.29659546 449.44632141 251.51657104 449.54194641 C245.38585287 450.20427275 239.2793814 450.37404712 233.11935425 450.47163391 C232.24242416 450.48600998 231.36549408 450.50038605 230.46199036 450.51519775 C226.80070774 450.57257349 223.13957133 450.62721297 219.47799683 450.6620636 C203.80003502 450.18665546 203.80003502 450.18665546 189.68746948 455.86372375 C187.8107605 457.26069641 187.8107605 457.26069641 185.8107605 457.26069641 C185.5426355 457.79694641 185.2745105 458.33319641 184.9982605 458.88569641 C184.13840809 460.60540122 183.24017497 462.3060909 182.31903076 463.99375916 C180.75516435 467.38111855 180.07980905 470.23085616 179.49093628 473.9066925 C179.38430538 474.55554539 179.27767448 475.20439827 179.16781235 475.87291336 C178.81266555 478.05022526 178.47188914 480.22953638 178.131073 482.40913391 C177.87624324 483.99091388 177.62061332 485.5725651 177.36425781 487.15409851 C176.65280861 491.5641479 175.95531009 495.97629538 175.26194763 500.38922119 C174.79904774 503.33523956 174.33433198 506.28096698 173.86923218 509.22663879 C172.86589074 515.58401863 171.86550209 521.94186126 170.865448 528.29975891 C170.52139335 530.48609933 170.17733817 532.67243966 169.83328247 534.85877991 C169.48592881 537.06697042 169.13857774 539.27516134 168.79122925 541.48335266 C168.61838284 542.58139347 168.44553642 543.67943428 168.26745224 544.81074905 C167.37893887 550.459378 166.49494987 556.10866067 165.61886597 561.75923157 C164.75334694 567.33963661 163.87630488 572.91812376 162.99155045 578.4955101 C162.66125715 580.59105877 162.33511531 582.6872666 162.01342392 584.78415298 C161.56602512 587.6969596 161.10388042 590.60708044 160.63839722 593.51704407 C160.51259277 594.35960754 160.38678833 595.20217102 160.25717163 596.07026672 C158.54193752 606.54971244 155.46759724 614.18777396 146.6857605 620.51069641 C143.01478978 622.74520032 140.41380012 623.38598251 136.20045471 623.40786743 C134.78107605 623.41860039 134.78107605 623.41860039 133.33302307 623.42955017 C131.77839104 623.43358353 131.77839104 623.43358353 130.19235229 623.43769836 C128.5529216 623.44755516 128.5529216 623.44755516 126.88037109 623.45761108 C123.25690648 623.47735152 119.6334833 623.48900762 116.00997925 623.49897766 C114.77353983 623.50305319 113.53710041 623.50712872 112.26319313 623.51132774 C106.39523726 623.53003897 100.5272977 623.54460492 94.65931767 623.55293971 C87.89232956 623.56271098 81.12566865 623.58903028 74.35879582 623.62944061 C68.49244867 623.6632676 62.62621108 623.67508696 56.75977516 623.67914391 C54.26668896 623.68401982 51.77360651 623.6956622 49.28058434 623.7141819 C45.79257413 623.73848492 42.30542094 623.73762412 38.81735229 623.73066711 C37.78700363 623.74347717 36.75665497 623.75628723 35.69508362 623.76948547 C29.73556193 623.72614064 26.3651283 623.20320777 21.8107605 619.26069641 C19.24111794 616.3366204 17.81371803 613.92439519 17.80661011 609.92597961 C18.64892391 598.66789694 20.55134778 587.58131089 22.3732605 576.44819641 C22.70643083 574.38772839 23.03911697 572.32718202 23.37130737 570.26655579 C24.17888041 565.26368206 24.99299349 560.26191351 25.8107605 555.26069641 C24.86322781 555.25987926 24.86322781 555.25987926 23.89655304 555.2590456 C8.5050179 555.24405888 -6.88616004 555.20153609 -22.27751923 555.12860584 C-29.72078203 555.09399637 -37.16386041 555.06860566 -44.60720825 555.06513977 C-51.09710577 555.06209421 -57.58667451 555.04152478 -64.0764451 555.00017184 C-67.5107984 554.97889316 -70.9446849 554.96621435 -74.37910461 554.97454262 C-78.21931916 554.97944341 -82.05817624 554.95337446 -85.89822388 554.92012024 C-87.59431793 554.9330587 -87.59431793 554.9330587 -89.32467651 554.94625854 C-95.90652919 554.85082564 -101.41657724 554.16858644 -106.1892395 549.26069641 C-112.07461768 539.65966328 -109.19852355 527.24084901 -107.44412231 516.66011047 C-107.25343925 515.45475616 -107.0627562 514.24940184 -106.86629486 513.00752163 C-106.44457407 510.35238663 -106.01891878 507.69824716 -105.58641815 505.04488182 C-104.85863414 500.57918352 -104.14711352 496.11096251 -103.43661499 491.64248657 C-102.36126981 484.89012327 -101.27832184 478.13901423 -100.19046021 471.38865662 C-97.40762612 454.11859559 -94.65559211 436.84360482 -91.90054321 419.5690937 C-91.19947342 415.17369869 -90.49776274 410.77840665 -89.79556274 406.38319206 C-83.29609378 365.69743923 -76.90144683 324.99563093 -70.53057933 284.28957522 C-68.47795457 271.17472276 -66.42319847 258.06020568 -64.36703491 244.94590759 C-64.07187008 243.06323855 -63.77670606 241.18056938 -63.48154283 239.29790008 C-62.296777 231.74112954 -61.1119505 224.18436852 -59.92693186 216.62763762 C-59.03550871 210.94304928 -58.14422404 205.25843923 -57.25308228 199.57380676 C-57.10606525 198.63598012 -56.95904823 197.69815349 -56.80757615 196.73190786 C-54.42580474 181.53694018 -52.05151393 166.34081184 -49.67967686 151.14429072 C-47.26157768 135.65264522 -44.83461248 120.16240753 -42.39928365 104.67346114 C-40.92542465 95.29766001 -39.45853833 85.92082559 -38.00111835 76.54245476 C-37.0145062 70.19794094 -36.01925718 63.85482054 -35.01712473 57.5127398 C-34.44292171 53.87717895 -33.87251781 50.24113205 -33.31256723 46.60334635 C-32.70655451 42.66691884 -32.08212492 38.73353791 -31.45596313 34.80026245 C-31.28438792 33.66613476 -31.11281271 32.53200706 -30.93603826 31.36351186 C-29.15139076 20.3515589 -26.39120872 10.91217333 -17.1892395 4.01069641 C-11.22606122 0.53217575 -6.78551006 -0.02961864 0 0 Z " fill="#243A7F" transform="translate(109.18923950195313,-0.2606964111328125)"/>
<path d="M0 0 C0.98662005 -0.00573832 0.98662005 -0.00573832 1.99317181 -0.01159257 C4.1904457 -0.02188488 6.38745639 -0.01793735 8.58474731 -0.01396179 C10.16391236 -0.01831106 11.7430753 -0.02349493 13.32223511 -0.02944946 C17.61262646 -0.0428458 21.90292972 -0.0434161 26.19333792 -0.04088616 C29.79018326 -0.03981421 33.38701095 -0.04470695 36.98385251 -0.04949158 C45.49243246 -0.06059468 54.0009683 -0.06102344 62.509552 -0.05497742 C71.23260995 -0.04897286 79.95550516 -0.06115652 88.67853534 -0.08254749 C96.20081212 -0.10030317 103.72303784 -0.10614204 111.24533474 -0.10290974 C115.72237696 -0.10111454 120.19930383 -0.10355089 124.67632675 -0.11762428 C156.24607294 -0.20824838 187.55636612 0.74772138 216.3274231 15.26069641 C217.39476685 15.79436829 218.4621106 16.32804016 219.5617981 16.87788391 C227.59653838 21.22830028 233.90997763 26.8525922 240.3274231 33.26069641 C240.99644653 33.91811829 241.66546997 34.57554016 242.35476685 35.25288391 C259.93602886 53.8308161 264.1908379 80.76198528 263.6086731 105.34272766 C261.94051907 147.63738276 248.26104675 190.61963114 218.3274231 221.26069641 C217.58879028 222.06120422 216.85015747 222.86171204 216.08914185 223.68647766 C198.0452129 242.78599295 171.82558593 253.08225863 146.6399231 258.57319641 C145.96574341 258.72063293 145.29156372 258.86806946 144.59695435 259.01997375 C142.18101259 259.50057038 139.76279607 259.88990194 137.3274231 260.26069641 C136.20916138 260.43657288 135.09089966 260.61244934 133.93875122 260.7936554 C123.7177616 262.23299664 113.50153771 262.47025366 103.1946106 262.56929016 C102.4711186 262.57630762 101.74762661 262.58332508 101.00221062 262.59055519 C94.19079725 262.65245804 87.37928913 262.68973939 80.56765747 262.71699524 C76.80552241 262.73293239 73.04370943 262.76317666 69.2817421 262.80175972 C67.86493481 262.81331391 66.44807006 262.81933922 65.03121567 262.81944084 C53.08111625 262.81224558 53.08111625 262.81224558 42.33914185 267.59272766 C34.02787053 276.88467996 34.14199323 294.22930343 32.32398987 306.15113831 C31.84876021 309.2631095 31.36733586 312.37406668 30.88418579 315.4848175 C29.51291914 324.31806175 28.14932667 333.15246168 26.79763794 341.98872375 C25.96632857 347.42026212 25.12524307 352.85021175 24.27796936 358.27928162 C23.95849032 360.33914486 23.64274408 362.39959075 23.33085632 364.46061707 C22.89554594 367.33559017 22.44784367 370.20838239 21.99734497 373.08100891 C21.8102018 374.34813972 21.8102018 374.34813972 21.61927795 375.64086914 C20.67133995 381.56439256 19.3764155 386.36537844 14.8274231 390.57319641 C10.53916933 393.4677677 6.72965611 393.41925871 1.73831177 393.43769836 C0.9672258 393.44426956 0.19613983 393.45084076 -0.59831238 393.45761108 C-3.15041198 393.47732356 -5.7024528 393.4890018 -8.25460815 393.49897766 C-9.56315545 393.50509095 -9.56315545 393.50509095 -10.89813805 393.51132774 C-15.51508726 393.53217927 -20.13200682 393.54648522 -24.74899292 393.55586243 C-29.51390953 393.56692781 -34.27835928 393.60133167 -39.04311085 393.64103413 C-42.71060547 393.66719604 -46.37798874 393.67555385 -50.04556847 393.67914391 C-51.80181724 393.6840106 -53.55806102 393.695627 -55.31421852 393.7141819 C-57.77494817 393.73856598 -60.23446816 393.73761013 -62.69528198 393.73066711 C-63.77794342 393.7498822 -63.77794342 393.7498822 -64.88247681 393.76948547 C-69.93208341 393.71769637 -72.83142867 392.5083719 -76.6725769 389.26069641 C-80.79827734 382.64813261 -78.6446221 373.60373147 -77.44718933 366.29736328 C-77.31502258 365.45175876 -77.18285583 364.60615423 -77.04668403 363.73492533 C-76.60546827 360.92419411 -76.15332201 358.11533707 -75.70114136 355.30635071 C-75.37948508 353.27208356 -75.05850985 351.23770863 -74.73815823 349.20323563 C-73.86330331 343.65976881 -72.97892656 338.11785776 -72.09296131 332.57615733 C-71.15099223 326.67304562 -70.21811565 320.76849699 -69.28421021 314.86410522 C-67.48266421 303.48331482 -65.67318265 292.10380115 -63.86050355 280.72477919 C-61.57369141 266.36868077 -59.29371955 252.01149782 -57.01412964 237.6542511 C-56.39364176 233.7464108 -55.77315136 229.83857091 -55.15265244 225.93073237 C-54.74012256 223.33264045 -54.3276082 220.73454608 -53.91510946 218.13644922 C-52.68015426 210.35873569 -51.44414152 202.58119104 -50.20741802 194.8037585 C-45.59739598 165.80937708 -41.02472684 136.80989571 -36.54877663 107.79450417 C-35.79907558 102.93564811 -35.04639989 98.07725645 -34.29286194 93.21899414 C-34.17363497 92.45010461 -34.054408 91.68121508 -33.93156809 90.88902587 C-33.46507025 87.8806028 -32.99856139 84.87218147 -32.53179586 81.86379993 C-31.22883584 73.46443254 -29.93653622 65.06359257 -28.66227305 56.65982217 C-27.79739374 50.96255937 -26.91437568 45.26823146 -26.02419281 39.57487297 C-25.67439277 37.31689853 -25.33091439 35.05793327 -24.9945755 32.79791451 C-24.54528543 29.78231805 -24.0738546 26.77100505 -23.59664917 23.75971985 C-23.41377586 22.4738852 -23.41377586 22.4738852 -23.22720814 21.16207409 C-22.07490706 14.14936467 -19.34632084 8.80075315 -14.1725769 3.88569641 C-9.41769413 0.79502261 -5.66004095 0.00988954 0 0 Z M67.5329895 84.05683899 C65.99069566 86.87625707 65.54230755 89.3455463 65.0383606 92.52241516 C64.88146759 93.48091118 64.88146759 93.48091118 64.72140503 94.45877075 C64.37062215 96.62028565 64.03651106 98.78404293 63.7024231 100.94819641 C63.45579102 102.49261549 63.2082022 104.03688203 62.95974731 105.58100891 C62.39769629 109.089558 61.84366383 112.59927256 61.29421997 116.1098175 C60.39607739 121.8408394 59.47939939 127.56880558 58.56054688 133.29653931 C57.52029986 139.78392157 56.48629284 146.27229532 55.4524231 152.76069641 C55.24752258 154.04350494 55.04262207 155.32631348 54.83151245 156.647995 C54.24607835 160.32045843 53.66499675 163.99358366 53.0852356 167.66694641 C52.9074054 168.77898941 52.7295752 169.89103241 52.5463562 171.03677368 C52.3853241 172.06264084 52.22429199 173.088508 52.05838013 174.14546204 C51.91659332 175.04059509 51.77480652 175.93572815 51.62872314 176.85798645 C51.2444727 179.51859441 51.2444727 179.51859441 51.3274231 183.26069641 C98.96662428 185.92545084 98.96662428 185.92545084 140.5774231 166.51069641 C153.5003161 152.65173873 156.81924442 133.81471605 156.54226685 115.43257141 C156.18779391 105.61301063 152.39333579 96.88941585 145.2649231 90.07319641 C130.89898504 78.61167627 110.48171198 79.06876696 93.0798645 79.02046204 C90.93414541 79.01061251 88.78933117 78.97939662 86.64382935 78.94819641 C85.25972032 78.94167637 83.87560462 78.93642199 82.4914856 78.93257141 C81.25865845 78.92322571 80.0258313 78.91388 78.75564575 78.9042511 C74.09763008 79.38856266 70.85974907 80.72691108 67.5329895 84.05683899 Z " fill="#169BD7" transform="translate(1821.6725769042969,138.7393035888672)"/>
<path d="M0 0 C0.66268467 -0.00467997 1.32536935 -0.00935994 2.00813538 -0.01418173 C4.21624773 -0.02609273 6.42373486 -0.01668952 8.6318512 -0.00723267 C10.22101705 -0.01130078 11.81018008 -0.01664401 13.39933777 -0.02316284 C17.71244329 -0.03683265 22.0253333 -0.03153418 26.33844256 -0.02202559 C30.87473279 -0.01440479 35.41100515 -0.02148338 39.94729614 -0.02618408 C47.58290388 -0.03164407 55.21842465 -0.02445354 62.85401917 -0.01016235 C71.62425347 0.00606525 80.39427743 0.00094922 89.16450638 -0.01564157 C96.7292735 -0.02936916 104.29397815 -0.03111875 111.85875374 -0.02332556 C116.36036323 -0.01869747 120.86187489 -0.01788534 125.36347771 -0.02793503 C156.9791917 -0.08874552 188.35538725 0.84640624 217.16920471 15.38095093 C218.23654846 15.9146228 219.30389221 16.44829468 220.40357971 16.99813843 C228.43832 21.3485548 234.75175924 26.97284672 241.16920471 33.38095093 C241.83822815 34.0383728 242.50725159 34.69579468 243.19654846 35.37313843 C260.71663949 53.8864319 264.98393575 80.75734063 264.38795471 105.27157593 C263.30956064 134.06469774 256.28293156 162.70244395 243.16920471 188.38095093 C242.67678284 189.36321655 242.18436096 190.34548218 241.67701721 191.35751343 C236.00870441 202.2345461 228.5639046 211.49414795 220.16920471 220.38095093 C219.14053284 221.50630249 219.14053284 221.50630249 218.09107971 222.65438843 C197.07624047 244.83671874 166.77819272 255.8913062 137.16920471 260.38095093 C136.11483215 260.55682739 135.06045959 260.73270386 133.97413635 260.91390991 C124.04327112 262.34413384 114.15375533 262.59329093 104.13404846 262.68954468 C103.41031918 262.69656214 102.68658989 262.7035796 101.94092941 262.71080971 C95.11551469 262.77279104 88.2900038 262.80997737 81.46437073 262.83724976 C77.69690491 262.85318796 73.92976062 262.88343639 70.16246223 262.92201424 C68.74286381 262.93357086 67.32320801 262.93959376 65.90356255 262.93969536 C53.91942179 262.90553801 53.91942179 262.90553801 43.18092346 267.74813843 C35.20983925 276.8243582 35.10390667 292.4214955 33.35096741 303.96279144 C32.90967226 306.86552817 32.46168676 309.76716511 32.01197815 312.66860962 C30.73608821 320.9080527 29.47192167 329.14927969 28.21217346 337.39120483 C27.43723514 342.45818903 26.65465072 347.52394661 25.86756897 352.58905792 C25.57116805 354.50700409 25.27774001 356.4254123 24.98744202 358.34429169 C24.58120017 361.0292135 24.1652742 363.71247789 23.74732971 366.39559937 C23.63191833 367.17503403 23.51650696 367.95446869 23.39759827 368.75752258 C21.02134174 383.76125435 21.02134174 383.76125435 15.29420471 388.31845093 C14.3080719 389.13636108 14.3080719 389.13636108 13.30201721 389.97079468 C8.56227217 393.10458215 4.30656717 393.67888884 -1.2797699 393.67147827 C-2.01213364 393.6781955 -2.74449738 393.68491272 -3.49905396 393.6918335 C-5.91048539 393.71076995 -8.32163796 393.71473521 -10.73313904 393.71688843 C-12.41555901 393.72331854 -14.09797787 393.73004706 -15.78039551 393.73706055 C-19.30332532 393.74902179 -22.82615715 393.75274247 -26.34910583 393.7515564 C-30.85618327 393.75135308 -35.36263109 393.7786734 -39.86955929 393.81310081 C-43.34319935 393.83537054 -46.81668778 393.83939395 -50.29039192 393.83833694 C-51.95173376 393.84069209 -53.61307983 393.84951082 -55.27435112 393.86500168 C-57.60082148 393.88466743 -59.92593243 393.8788229 -62.25242615 393.86679077 C-62.9336554 393.87802979 -63.61488464 393.8892688 -64.3167572 393.90084839 C-69.24477 393.83630331 -72.07616875 392.52421547 -75.83079529 389.38095093 C-80.81626021 381.28068659 -77.12109673 369.49493701 -75.70481873 360.7305603 C-75.47316067 359.26073458 -75.24218438 357.79080127 -75.01182652 356.32077122 C-74.38019714 352.30260294 -73.73905528 348.28600287 -73.09634995 344.26959348 C-72.40365532 339.92955982 -71.72007911 335.58808929 -71.03543091 331.2467804 C-69.69416028 322.750705 -68.34497266 314.25590559 -66.99310786 305.76151019 C-65.25844298 294.85967214 -63.53290467 283.95639299 -61.80760193 273.05307007 C-61.16367538 268.98417028 -60.51969871 264.91527844 -59.8757019 260.84638977 C-59.71479177 259.82966629 -59.55388164 258.81294281 -59.38809544 257.76540953 C-58.39810166 251.51078016 -57.40708622 245.25631356 -56.41531783 239.00196534 C-51.84793858 210.19825898 -47.32016681 181.38858035 -42.82425308 152.5736351 C-41.85170201 146.34103731 -40.87774791 140.10865935 -39.90339661 133.87634277 C-39.66565669 132.35557265 -39.66565669 132.35557265 -39.42311394 130.80407989 C-38.78944692 126.75073702 -38.15575135 122.69739863 -37.5219481 118.64407706 C-35.81994674 107.75898104 -34.12038764 96.87351649 -32.42808533 85.98690796 C-31.12028376 77.57380659 -29.80726105 69.16154071 -28.48755246 60.75029856 C-27.81465262 56.4602634 -27.14435844 52.16986287 -26.48100853 47.87833977 C-25.87329073 43.94686328 -25.25841321 40.01657526 -24.63791513 36.08709621 C-24.41518482 34.66839076 -24.19506548 33.24927231 -23.97788191 31.82970715 C-20.9320214 11.94759803 -20.9320214 11.94759803 -16.01829529 6.50595093 C-15.55809998 5.97227905 -15.09790466 5.43860718 -14.62376404 4.88876343 C-10.07250879 1.06134616 -5.85176646 0.00560268 0 0 Z M69.16920471 83.38095093 C66.54720327 88.56402685 65.41220652 93.46230563 64.54347229 99.17440796 C64.40648422 100.02571289 64.26949615 100.87701782 64.12835693 101.75411987 C63.68120502 104.54766266 63.24723938 107.34307291 62.81373596 110.13876343 C62.50483316 112.0898722 62.19522656 114.04086967 61.88494873 115.99176025 C61.23811875 120.07098046 60.59738832 124.15109443 59.96144104 128.23202515 C59.14659259 133.4600162 58.32028453 138.68611192 57.48988819 143.91165352 C56.8509688 147.93629537 56.21622574 151.96158637 55.58293724 155.98711777 C55.2795707 157.91455313 54.97534846 159.84185401 54.67025185 161.76901627 C54.24512621 164.46083688 53.82517142 167.15341261 53.40675354 169.84628296 C53.28055634 170.64017426 53.15435913 171.43406555 53.02433777 172.25201416 C52.44848765 175.99349378 52.02021821 179.59289057 52.16920471 183.38095093 C99.89687809 186.07671756 99.89687809 186.07671756 141.48170471 166.50595093 C154.10254348 152.99810542 157.72822625 134.015191 157.41529846 115.99423218 C156.74041942 106.08529382 153.59491474 97.60830167 146.35279846 90.63095093 C131.6699667 78.76603638 111.40865113 79.18397264 93.49440002 79.08578491 C92.0167645 79.07414353 90.53917481 79.05350556 89.06178284 79.02426147 C86.89158 78.9815541 84.72258791 78.9654312 82.55201721 78.95516968 C81.27729553 78.94058716 80.00257385 78.92600464 78.68922424 78.91098022 C74.41045782 79.48225401 72.39851316 80.52501138 69.16920471 83.38095093 Z " fill="#243A7F" transform="translate(813.8307952880859,138.61904907226563)"/>
<path d="M0 0 C4.23599801 1.48023722 7.73644289 3.67619176 11.375 6.25 C11.9529834 6.65839111 12.5309668 7.06678223 13.12646484 7.48754883 C14.75712894 8.64978181 16.37888231 9.82448805 18 11 C18.66515625 11.47308594 19.3303125 11.94617188 20.015625 12.43359375 C38.63885983 26.94344419 48.50770823 52.27362007 51.734375 74.85498047 C58.2061077 127.11660134 42.32889649 186.74677594 10 228.3125 C8.68291843 229.88872338 7.34865115 231.45070206 6 233 C4.77216797 234.42699219 4.77216797 234.42699219 3.51953125 235.8828125 C-26.23653886 269.79228858 -68.98505064 285.95115815 -113 291 C-113.75708252 291.0928125 -114.51416504 291.185625 -115.29418945 291.28125 C-121.42490763 291.94357634 -127.5313791 292.11335071 -133.69140625 292.2109375 C-134.56833633 292.22531357 -135.44526642 292.23968964 -136.34877014 292.25450134 C-140.01005276 292.31187708 -143.67118917 292.36651656 -147.33276367 292.40136719 C-163.01072548 291.92595905 -163.01072548 291.92595905 -177.12329102 297.60302734 C-179 299 -179 299 -181 299 C-181.268125 299.53625 -181.53625 300.0725 -181.8125 300.625 C-182.6723524 302.34470481 -183.57058553 304.04539449 -184.49172974 305.73306274 C-186.05559615 309.12042214 -186.73095145 311.97015975 -187.31982422 315.64599609 C-187.42645512 316.29484898 -187.53308601 316.94370186 -187.64294815 317.61221695 C-187.99809495 319.78952885 -188.33887136 321.96883997 -188.6796875 324.1484375 C-188.93451726 325.73021746 -189.19014717 327.31186869 -189.44650269 328.8934021 C-190.15795189 333.30345148 -190.8554504 337.71559897 -191.54881287 342.12852478 C-192.01171276 345.07454315 -192.47642852 348.02027057 -192.94152832 350.96594238 C-193.94486976 357.32332221 -194.94525841 363.68116485 -195.9453125 370.0390625 C-196.28936715 372.22540292 -196.63342233 374.41174325 -196.97747803 376.5980835 C-197.32483169 378.80627401 -197.67218275 381.01446493 -198.01953125 383.22265625 C-198.19237766 384.32069706 -198.36522408 385.41873787 -198.54330826 386.55005264 C-199.43182163 392.19868159 -200.31581063 397.84796426 -201.19189453 403.49853516 C-202.05741356 409.0789402 -202.93445562 414.65742735 -203.81921005 420.23481369 C-204.14950335 422.33036236 -204.47564519 424.42657019 -204.79733658 426.52345657 C-205.24473538 429.43626318 -205.70688008 432.34638403 -206.17236328 435.25634766 C-206.29816772 436.09891113 -206.42397217 436.94147461 -206.55358887 437.80957031 C-208.26882298 448.28901603 -211.34316326 455.92707754 -220.125 462.25 C-223.79597071 464.48450391 -226.39696038 465.1252861 -230.61030579 465.14717102 C-232.02968445 465.15790398 -232.02968445 465.15790398 -233.47773743 465.16885376 C-234.51415878 465.17154266 -235.55058014 465.17423157 -236.6184082 465.17700195 C-237.711362 465.18357315 -238.8043158 465.19014435 -239.9303894 465.19691467 C-243.55385402 465.21665511 -247.1772772 465.22831121 -250.80078125 465.23828125 C-252.03722067 465.24235678 -253.27366009 465.2464323 -254.54756737 465.25063133 C-260.41552324 465.26934256 -266.2834628 465.28390851 -272.15144283 465.2922433 C-278.91843094 465.30201457 -285.68509184 465.32833386 -292.45196468 465.36874419 C-298.31831183 465.40257119 -304.18454941 465.41439055 -310.05098534 465.41844749 C-312.54407153 465.42332341 -315.03715398 465.43496579 -317.53017616 465.45348549 C-321.01818637 465.4777885 -324.50533955 465.47692771 -327.9934082 465.4699707 C-329.5389312 465.48918579 -329.5389312 465.48918579 -331.11567688 465.50878906 C-337.07519857 465.46544423 -340.4456322 464.94251136 -345 461 C-347.57601961 458.06866734 -349.00017185 455.65580627 -348.99975586 451.64770508 C-348.23722089 441.56567022 -346.66063909 431.63502274 -345.04370117 421.65991211 C-344.5608488 418.67730044 -344.08747076 415.69329334 -343.61523438 412.70898438 C-343.3078481 410.78897333 -342.99992423 408.86904827 -342.69140625 406.94921875 C-342.55174942 406.06884445 -342.41209259 405.18847015 -342.26820374 404.28141785 C-342.13143723 403.443069 -341.99467072 402.60472015 -341.85375977 401.7409668 C-341.67841454 400.65394722 -341.67841454 400.65394722 -341.49952698 399.54496765 C-341.08033291 397.40927652 -340.56484306 395.29279964 -340.02726746 393.18379211 C-339.03018428 389.25571014 -338.33363424 385.32476556 -337.70996094 381.31835938 C-337.59532092 380.58870972 -337.4806809 379.85906006 -337.36256695 379.1072998 C-336.98308597 376.68663687 -336.60875072 374.26520732 -336.234375 371.84375 C-335.96185309 370.09910851 -335.68898111 368.35452167 -335.41578674 366.60998535 C-334.83006398 362.86594199 -334.24646609 359.12157589 -333.66445923 355.37695312 C-332.74352485 349.45368278 -331.81614304 343.5314334 -330.88745117 337.609375 C-329.58754731 329.31791448 -328.28879182 321.0262758 -326.99169922 312.734375 C-326.82756562 311.68519897 -326.66343203 310.63602295 -326.49432468 309.55505371 C-325.66494415 304.25292356 -324.83598476 298.95072792 -324.00762939 293.6484375 C-322.24246773 282.35113595 -320.4729655 271.05454333 -318.69157219 259.75978851 C-317.77777049 253.96421942 -316.87074699 248.16764462 -315.96881962 242.37021637 C-315.40541145 238.75955815 -314.8354968 235.14994931 -314.26374626 231.54060364 C-314.0010375 229.87394408 -313.74094403 228.20686974 -313.48373604 226.53935242 C-309.47504357 200.5805987 -309.47504357 200.5805987 -299.70857239 193.15560913 C-290.43697075 186.88467347 -280.87608375 187.42940242 -270.08203125 187.4609375 C-268.21944537 187.45100743 -266.35686928 187.43905752 -264.49430847 187.42520142 C-259.59550818 187.39291639 -254.69693082 187.38245928 -249.79803467 187.37835693 C-241.08011014 187.3685545 -232.3622819 187.32790715 -223.64453125 187.2734375 C-222.71601727 187.2678545 -221.78750328 187.2622715 -220.83085251 187.25651932 C-207.47427377 187.16486215 -194.25350312 186.80617038 -181 185 C-179.72938721 184.83387207 -178.45877441 184.66774414 -177.1496582 184.49658203 C-173.83429482 184.02002594 -170.54513191 183.47471249 -167.25 182.875 C-166.085896 182.66327148 -164.92179199 182.45154297 -163.72241211 182.23339844 C-112.5288021 172.40588397 -67.66541628 146.32875788 -38.0625 103.0625 C-18.46154518 73.51766532 -6.61514994 38.73046346 -1.35375977 3.81811523 C-1 2 -1 2 0 0 Z " fill="#169AD6" transform="translate(476,158)"/>
<path d="M0 0 C3.82550776 3.47561376 6.80401162 7.40003073 9.75 11.625 C9.84498779 11.07561768 9.93997559 10.52623535 10.0378418 9.96020508 C10.48403825 7.44852949 10.96043028 4.94348693 11.4375 2.4375 C11.58638672 1.57318359 11.73527344 0.70886719 11.88867188 -0.18164062 C12.95704632 -5.64920395 14.0726536 -8.92888642 18.75 -12.375 C23.16844723 -14.16319701 26.90490997 -14.63129136 31.65405273 -14.6496582 C32.64799545 -14.6573246 32.64799545 -14.6573246 33.66201782 -14.66514587 C35.83597028 -14.67895994 38.00960282 -14.67809144 40.18359375 -14.67578125 C41.70524715 -14.67967254 43.22689948 -14.6840081 44.74855042 -14.68876648 C47.93176806 -14.69621097 51.11487476 -14.69595021 54.2980957 -14.69067383 C58.36440902 -14.68487991 62.43026675 -14.70181659 66.49650478 -14.7250185 C69.63734056 -14.73979527 72.77806758 -14.74062223 75.91893196 -14.73750877 C77.41755132 -14.73801995 78.91617709 -14.74321931 80.4147625 -14.75332069 C82.51565514 -14.76574584 84.61567266 -14.75885845 86.71655273 -14.74731445 C87.90868881 -14.74794388 89.10082489 -14.7485733 90.3290863 -14.7492218 C95.33857066 -14.20122252 99.19988531 -12.60714245 103.1875 -9.4375 C108.41277189 0.80403291 103.23963584 16.91759488 101.50878906 27.79003906 C101.15985319 30.02498873 100.81168869 32.26005894 100.4642334 34.49523926 C99.52236522 40.53759769 98.56877852 46.57805028 97.61227894 52.6181078 C96.81366659 57.66756548 96.02062227 62.71789139 95.22749496 67.76821303 C93.24966688 80.36105716 91.26033954 92.95204585 89.26579782 105.54224989 C87.53616933 116.46260952 85.82139838 127.38524126 84.1136165 138.30903676 C82.35644124 149.54791585 80.58909856 160.78514477 78.81154037 172.02082229 C77.8150704 178.32005846 76.82253421 184.61985016 75.83997345 190.92127228 C74.9161894 196.84282225 73.97949844 202.76218838 73.03288269 208.68013 C72.68803768 210.84977109 72.34772936 213.02013893 72.01233673 215.19126129 C71.55314805 218.1589436 71.0775047 221.12354021 70.59771729 224.08795166 C70.46929451 224.9435997 70.34087174 225.79924775 70.20855737 226.68082452 C69.15076495 233.04775343 67.34232217 239.00282383 62.71484375 243.68359375 C62.04582031 244.13863281 61.37679687 244.59367187 60.6875 245.0625 C60.01589844 245.53558594 59.34429688 246.00867188 58.65234375 246.49609375 C54.78902017 248.78870261 51.47956807 248.76645707 47.07885742 248.80200195 C46.40530716 248.80857315 45.7317569 248.81514435 45.03779602 248.82191467 C42.81035241 248.84161339 40.58297611 248.8533025 38.35546875 248.86328125 C37.59342951 248.86735678 36.83139027 248.8714323 36.04625893 248.87563133 C32.01285703 248.89647739 27.97948901 248.91078546 23.94604492 248.92016602 C19.78643905 248.93122799 15.6273685 248.96562906 11.46795177 249.00533772 C8.26368739 249.03151844 5.0595503 249.0398591 1.85518837 249.04344749 C0.32222185 249.04830966 -1.21073912 249.05991323 -2.74360085 249.07848549 C-4.89305344 249.10290985 -7.04112412 249.10190695 -9.19067383 249.0949707 C-11.02242912 249.10377007 -11.02242912 249.10377007 -12.89118958 249.11274719 C-16.92010441 248.52769128 -19.08265652 247.13279786 -22.25 244.625 C-26.82147767 238.03630869 -24.04671037 227.10838669 -23.25 219.625 C-23.72566406 220.08648437 -24.20132813 220.54796875 -24.69140625 221.0234375 C-49.03102889 243.70455915 -81.38420499 255.08116132 -114.375 254.9375 C-115.05186859 254.93534485 -115.72873718 254.9331897 -116.42611694 254.93096924 C-147.18595266 254.77441221 -175.00933773 246.7020186 -197.25 224.625 C-220.1880289 200.09720672 -228.31972763 167.004834 -227.59765625 134.328125 C-225.93603013 93.32943611 -209.29775272 55.27548145 -181.25 25.625 C-180.43144531 24.74199219 -179.61289063 23.85898437 -178.76953125 22.94921875 C-167.87069365 11.56741936 -155.16808746 2.91764337 -141.25 -4.375 C-140.10402344 -4.98085938 -138.95804688 -5.58671875 -137.77734375 -6.2109375 C-98.63690866 -26.09862626 -35.54765373 -29.62304477 0 0 Z M-117.21875 80.05859375 C-120.35921331 84.02644836 -122.89375331 88.15364298 -125.25 92.625 C-125.69085937 93.43066406 -126.13171875 94.23632812 -126.5859375 95.06640625 C-135.01147519 111.78982196 -136.89351417 131.34102616 -131.50390625 149.21875 C-126.26188406 163.45876044 -116.58006305 171.66938231 -103.21484375 177.99609375 C-85.85255922 185.54863403 -65.15335774 183.3217145 -47.8125 177.08984375 C-29.14350466 169.41344764 -14.42857318 154.5909313 -6.53515625 136.01171875 C0.057401 118.63862714 1.91835647 99.9450488 -5.57421875 82.55078125 C-12.01311628 68.81108652 -21.09341728 61.42286639 -35.09765625 55.66796875 C-65.10275395 45.74063159 -96.93250755 56.66512754 -117.21875 80.05859375 Z " fill="#169BD7" transform="translate(2290.25,283.375)"/>
<path d="M0 0 C4.07113229 3.87837034 7.04464613 8.27089357 9.9375 13.0625 C10.08783691 12.19298706 10.08783691 12.19298706 10.24121094 11.3059082 C10.7078434 8.65927682 11.19742417 6.01738648 11.6875 3.375 C11.84476563 2.46298828 12.00203125 1.55097656 12.1640625 0.61132812 C13.87448739 -8.4341881 13.87448739 -8.4341881 17.9375 -11.9375 C22.71640295 -13.58756846 26.91514517 -14.19263036 31.95507812 -14.2121582 C32.94923988 -14.2198246 32.94923988 -14.2198246 33.96348572 -14.22764587 C36.13200162 -14.24142978 38.30019578 -14.24059402 40.46875 -14.23828125 C41.98897416 -14.24217366 43.50919724 -14.24650945 45.02941895 -14.25126648 C48.20666032 -14.25870408 51.38379051 -14.25845486 54.56103516 -14.25317383 C58.61947278 -14.24737504 62.67745465 -14.2643317 66.73581696 -14.2875185 C69.87236156 -14.30229342 73.00879724 -14.30312258 76.14537048 -14.30000877 C77.64119877 -14.30051985 79.1370335 -14.30571734 80.63282776 -14.31582069 C82.72882242 -14.32824494 84.82393984 -14.32135945 86.91992188 -14.30981445 C88.10904175 -14.31044388 89.29816162 -14.3110733 90.52331543 -14.3117218 C95.5481027 -13.76096513 99.42084125 -12.18193795 103.375 -8.9375 C107.01172302 -1.95499181 104.81558898 7.4526361 103.59771729 14.98049927 C103.45353166 15.91459779 103.30934604 16.84869631 103.16079116 17.81110084 C102.6806183 20.90808795 102.1885119 24.00305161 101.69628906 27.09814453 C101.34741624 29.33133393 100.99924976 31.56463378 100.6517334 33.79803467 C99.709155 39.84040451 98.75580678 45.88102756 97.79977894 51.92128229 C97.00150133 56.97064776 96.20829123 62.02080413 95.41499496 67.0709542 C93.43641818 79.6654466 91.44723625 92.25823118 89.45329782 104.85029756 C87.72450076 115.77017306 86.0095541 126.69217085 84.3011165 137.61524846 C82.54335231 148.85287642 80.77598995 160.0889495 78.99904037 171.32356346 C78.00289008 177.62233541 77.01045966 183.92163596 76.02747345 190.22247696 C75.10300129 196.14554366 74.16635215 202.06655877 73.22038269 207.98622894 C72.87580746 210.15549187 72.53549938 212.32543768 72.19983673 214.49609756 C71.73995055 217.46554317 71.26451639 220.43210307 70.78521729 223.39846802 C70.65679451 224.25188534 70.52837174 225.10530266 70.39605737 225.98458111 C69.30984345 232.54382009 67.55022096 239.24566021 62.9375 244.21875 C61.9475 244.88390625 61.9475 244.88390625 60.9375 245.5625 C60.2775 246.0265625 59.6175 246.490625 58.9375 246.96875 C54.81316728 249.22424446 50.89225968 249.20133685 46.24462891 249.23950195 C45.58068619 249.24607315 44.91674347 249.25264435 44.23268127 249.25941467 C42.0431404 249.27906924 39.85366778 249.29079125 37.6640625 249.30078125 C36.91397289 249.30485678 36.16388329 249.3089323 35.39106369 249.31313133 C31.42249582 249.33395638 27.45396218 249.34827472 23.48535156 249.35766602 C19.39415212 249.36873676 15.3034956 249.40315392 11.21248817 249.44283772 C8.05883798 249.46901735 4.90531713 249.47735889 1.75156784 249.48094749 C0.24372049 249.48580822 -1.26412129 249.49740768 -2.77186203 249.51598549 C-4.88529009 249.54041269 -6.99731297 249.53940678 -9.11083984 249.5324707 C-10.31122894 249.53833694 -11.51161804 249.54420319 -12.74838257 249.55024719 C-16.77185287 248.95810271 -18.91092826 247.59044567 -22.0625 245.0625 C-26.51172247 238.3886663 -24.01553828 227.75488042 -23.0625 220.0625 C-23.53816406 220.52398437 -24.01382812 220.98546875 -24.50390625 221.4609375 C-40.5586964 236.42175484 -60.79445581 246.82414296 -82.0625 252.0625 C-82.70316406 252.22476074 -83.34382813 252.38702148 -84.00390625 252.55419922 C-114.21439128 259.82904017 -150.14661269 256.35698371 -177.2421875 240.83984375 C-181.44972161 238.1882814 -185.28354108 235.28993519 -189.0625 232.0625 C-189.85011719 231.43085937 -190.63773438 230.79921875 -191.44921875 230.1484375 C-212.24767617 212.71299596 -224.17674576 184.49700715 -226.8515625 157.87548828 C-230.06416298 115.03337862 -218.95722429 69.62657492 -190.63378906 36.38574219 C-185.97840178 31.08076598 -181.06729221 26.03736819 -176.0625 21.0625 C-175.54026855 20.5152124 -175.01803711 19.9679248 -174.47998047 19.40405273 C-170.28024505 15.05573333 -165.84839368 11.48819945 -160.875 8.0625 C-159.74928589 7.28277832 -159.74928589 7.28277832 -158.60083008 6.48730469 C-116.45381385 -22.44393052 -42.68016845 -35.76868875 0 0 Z M-109.0625 72.0625 C-109.7225 72.63097656 -110.3825 73.19945312 -111.0625 73.78515625 C-125.16638335 86.75962707 -133.32411351 106.349875 -134.34765625 125.3046875 C-134.79688181 139.61755738 -132.13982643 153.5625954 -122.73046875 164.86328125 C-110.50083772 177.54377425 -95.67562455 182.80507383 -78.22265625 183.12890625 C-57.2970309 183.01726408 -38.52294379 175.84139967 -23.33203125 161.38671875 C-7.98972434 145.67471769 -0.34459011 126.23625875 -0.59155273 104.36450195 C-1.15775136 88.83383895 -7.09583397 75.88099429 -18.421875 65.1328125 C-44.84527869 44.4162386 -85.10095944 50.37150864 -109.0625 72.0625 Z " fill="#243A7F" transform="translate(1283.0625,282.9375)"/>
<path d="M0 0 C0.6578096 -0.00511093 1.3156192 -0.01022186 1.99336243 -0.01548767 C4.15289595 -0.02930672 6.31210738 -0.02843214 8.47167969 -0.02612305 C9.9861462 -0.03001547 11.50061164 -0.03435126 13.01507568 -0.03910828 C16.18570496 -0.04655492 19.35622287 -0.04629147 22.52685547 -0.04101562 C26.56597108 -0.03523662 30.60462578 -0.05212119 34.64366531 -0.0753603 C37.77175509 -0.09018364 40.89973623 -0.0909575 44.02785492 -0.08785057 C45.51562153 -0.08835992 47.00339486 -0.0935242 48.49112701 -0.10366249 C68.69773921 -0.22442876 68.69773921 -0.22442876 75.89355469 6.3371582 C78.80230214 10.11333868 80.31598076 14.10919684 81.75292969 18.6027832 C82.00320923 19.36988113 82.25348877 20.13697906 82.51135254 20.92732239 C86.55389643 33.47248217 90.24411824 46.13119776 93.99193954 58.76683426 C95.09263535 62.47513337 96.19700479 66.1823381 97.30102539 69.88964844 C99.91908025 78.6835005 102.53198333 87.47887883 105.14355469 96.2746582 C105.53204315 97.58304859 105.92053191 98.8914389 106.309021 100.1998291 C107.03800516 102.65498032 107.76697895 105.11013462 108.49594116 107.56529236 C109.80510253 111.97350013 111.11538719 116.38137362 112.42578125 120.78921509 C113.31645938 123.78801762 114.2047398 126.78752284 115.09277344 129.78710938 C115.62394133 131.57595212 116.15518617 133.36477201 116.68652344 135.15356445 C116.92408859 135.95857391 117.16165375 136.76358337 117.40641785 137.59298706 C118.55020586 141.51907849 118.55020586 141.51907849 120.14355469 145.2746582 C120.46815674 144.78513672 120.79275879 144.29561523 121.12719727 143.79125977 C130.47558883 129.7047753 139.93858918 115.69820201 149.44395447 101.71748352 C152.29283655 97.52723065 155.13908037 93.33519783 157.98339844 89.1418457 C158.37949814 88.55788528 158.77559784 87.97392487 159.18370056 87.37226868 C159.98092149 86.19692325 160.77813729 85.02157435 161.5753479 83.84622192 C168.61169184 73.47301797 175.65341591 63.10348194 182.70800781 52.74267578 C186.11277936 47.7404218 189.51121152 42.73407248 192.89398193 37.71691895 C194.60189663 35.18412829 196.31204383 32.65284823 198.0222168 30.12158203 C198.83896402 28.91126024 199.65459795 27.70018625 200.46899414 26.48828125 C216.36513 2.83501706 216.36513 2.83501706 225.47283936 0.68273926 C231.59572712 -0.25282825 237.84519156 -0.01004634 244.02636719 0.0090332 C245.56997743 0.0076838 247.11358725 0.00574098 248.65719604 0.00323486 C251.87974119 0.00029831 255.10217491 0.0045349 258.32470703 0.01391602 C262.44478246 0.02532897 266.56459779 0.0187302 270.68466377 0.00677109 C273.86748194 -0.00047092 277.05023887 0.00185082 280.23305893 0.00702667 C281.75203355 0.0083557 283.27101383 0.00674176 284.78998184 0.00206757 C286.91466171 -0.0030385 289.03892519 0.00476837 291.16357422 0.01586914 C292.36966339 0.01746033 293.57575256 0.01905151 294.81838989 0.02069092 C299.44330617 0.37392978 302.92176669 1.21797669 306.45605469 4.2746582 C309.39098647 7.75309587 309.92336357 10.65335437 309.84667969 15.14575195 C308.40623136 21.55574702 303.80234565 26.66842389 299.93261719 31.84643555 C296.56594276 36.4158875 293.37106933 41.10645255 290.14355469 45.7746582 C288.758675 47.76461534 287.37326679 49.75420479 285.98730469 51.7434082 C282.85703415 56.24317209 279.74291861 60.75356772 276.64355469 65.2746582 C271.48157005 72.8045257 266.26359571 80.29504623 261.04589844 87.78637695 C257.22783944 93.2707615 253.42203186 98.76293463 249.64355469 104.2746582 C244.48157005 111.8045257 239.26359571 119.29504623 234.04589844 126.78637695 C230.22783884 132.27076238 226.4221309 137.76300197 222.64355469 143.2746582 C214.83790304 154.6569757 206.92935943 165.96814522 199.04101562 177.29321289 C192.12397422 187.22496109 185.20861621 197.15712814 178.36499023 207.13964844 C173.62550428 214.04520353 168.83275912 220.91362167 164.04589844 227.78637695 C160.22783944 233.2707615 156.42203186 238.76293463 152.64355469 244.2746582 C147.48157005 251.8045257 142.26359571 259.29504623 137.04589844 266.78637695 C133.22783944 272.2707615 129.42203186 277.76293463 125.64355469 283.2746582 C120.48455699 290.80016861 115.27002764 298.28665671 110.0546875 305.77319336 C106.59329643 310.74451538 103.14046096 315.72111932 99.71679688 320.71850586 C97.98373003 323.24776024 96.24337999 325.77196541 94.50292969 328.29614258 C93.54107965 329.69607661 92.5831256 331.09869117 91.62792969 332.50317383 C90.0588041 334.80831254 88.47716942 337.10445673 86.89355469 339.3996582 C86.42208008 340.09881348 85.95060547 340.79796875 85.46484375 341.51831055 C81.72243767 346.90471149 77.52514735 352.14746065 71.14355469 354.2746582 C68.63583761 354.3909209 66.15479865 354.45265611 63.64624023 354.4675293 C62.88490784 354.47570679 62.12357544 354.48388428 61.33917236 354.49230957 C58.81954733 354.51712285 56.29997847 354.53366862 53.78027344 354.5480957 C52.91894114 354.55341938 52.05760883 354.55874306 51.17017555 354.56422806 C46.61158768 354.59094126 42.05302703 354.61032247 37.49438477 354.62475586 C33.7239559 354.63809905 29.95406773 354.66596078 26.18383789 354.70678711 C21.62860729 354.75611193 17.07386738 354.78087647 12.51838112 354.78798294 C10.78443864 354.79469332 9.05050701 354.80990996 7.31671715 354.83387375 C4.88691676 354.86554301 2.45900587 354.86556035 0.02905273 354.8581543 C-0.68337082 354.87455963 -1.39579437 354.89096497 -2.12980652 354.90786743 C-7.75974817 354.83782493 -10.04326076 353.11585207 -13.85644531 349.2746582 C-15.75502109 345.47750665 -15.48069227 341.40011636 -14.85644531 337.2746582 C-13.23588471 333.75760563 -11.02754139 330.83255355 -8.66894531 327.7746582 C-8.03545166 326.91300049 -7.40195801 326.05134277 -6.74926758 325.16357422 C-5.43880776 323.38375433 -4.1186757 321.61101627 -2.7890625 319.84545898 C0.09683012 316.00659474 2.89879525 312.1086602 5.70605469 308.2121582 C6.50088257 307.11810669 6.50088257 307.11810669 7.31176758 306.00195312 C11.23067239 300.59658768 15.01904856 295.1110535 18.76855469 289.5871582 C23.02509415 283.31682652 27.38071979 277.14696625 31.89868164 271.06274414 C36.45642002 264.90421895 40.831689 258.62087927 45.19799805 252.32568359 C45.75366455 251.52638428 46.30933105 250.72708496 46.88183594 249.90356445 C47.41631348 249.11868652 47.95079102 248.33380859 48.50146484 247.52514648 C50.14355469 245.2746582 50.14355469 245.2746582 52.00048828 243.28588867 C53.7989508 241.30963902 55.02480707 239.70268389 56.14355469 237.2746582 C55.97240707 234.94812581 55.97240707 234.94812581 55.12255859 232.5078125 C54.82473984 231.53346756 54.52692108 230.55912262 54.22007751 229.55525208 C53.86482498 228.4726561 53.50957245 227.39006012 53.14355469 226.2746582 C52.76344742 225.10041794 52.38334015 223.92617767 51.99171448 222.71635437 C50.65025545 218.618401 49.26255977 214.53653482 47.87402344 210.4543457 C47.35578913 208.92305977 46.83783082 207.39168041 46.32012939 205.86021423 C44.94485634 201.79461127 43.56556608 197.73038236 42.18537521 193.66644669 C41.038603 190.28810914 39.89423585 186.90895912 38.74991703 183.52978992 C31.40079607 161.82787717 24.0234908 140.13559875 16.60073853 118.45875549 C13.46439144 109.2963817 10.34567658 100.12800617 7.22613525 90.9598999 C6.21952604 88.00174689 5.21260161 85.04370138 4.20556641 82.08569336 C1.1043257 72.97598234 -1.99574104 63.86587625 -5.0922699 54.75456238 C-6.49045877 50.64131783 -7.88978303 46.52846011 -9.28933716 42.41567993 C-9.95544505 40.45734012 -10.62103917 38.49882548 -11.28610229 36.54013062 C-12.20278804 33.84052087 -13.12120837 31.14150726 -14.04003906 28.44262695 C-14.3121521 27.639823 -14.58426514 26.83701904 -14.86462402 26.0098877 C-16.18608891 22.07157144 -16.18608891 22.07157144 -17.85644531 18.2746582 C-18.46835283 13.41436421 -18.84445019 8.80560041 -15.73144531 4.7746582 C-10.89664414 0.57048327 -6.27008955 0.02443454 0 0 Z " fill="#243A7F" transform="translate(1438.8564453125,268.725341796875)"/>
<path d="M0 0 C0.7280225 -0.00241442 1.45604499 -0.00482883 2.20612878 -0.00731641 C4.64086285 -0.01294297 7.07533333 -0.0042978 9.51005554 0.00431824 C11.25820995 0.00324499 13.00636401 0.00130568 14.7545166 -0.00143433 C19.50311237 -0.00628294 24.25161418 0.00137647 29.0001986 0.01151872 C33.98152573 0.02031495 38.96285004 0.01854136 43.94418335 0.01815796 C52.3212999 0.01909492 60.69838026 0.02777756 69.07548523 0.04142761 C78.72680112 0.05709703 88.37807724 0.06242763 98.02940494 0.06169206 C108.33428035 0.061013 118.63914064 0.06798055 128.94401145 0.07713866 C131.89560044 0.07925822 134.84718695 0.07997827 137.79877663 0.08037758 C142.46665938 0.08139257 147.13450956 0.08758197 151.80238152 0.09754372 C153.50336126 0.1004313 155.20434475 0.10170182 156.90532684 0.10111618 C172.24247375 0.09783796 187.29471266 0.64568259 202.42289734 3.43473816 C203.62591492 3.65468445 204.8289325 3.87463074 206.06840515 4.10124207 C222.46401061 7.21662542 237.59606094 12.12996064 252.67289734 19.24723816 C246.30676475 66.65817295 228.06222939 111.73673151 195.67289734 147.24723816 C194.49533875 148.55048035 194.49533875 148.55048035 193.29399109 149.88005066 C156.81811991 188.2692078 101.14221554 204.50431708 49.67289734 207.24723816 C44.0292195 207.388938 38.38339156 207.36396581 32.73834038 207.35477257 C28.00748709 207.35118718 23.27674326 207.37710603 18.54594421 207.39762878 C12.56626789 207.42192557 6.58694248 207.43762491 0.60722351 207.42228699 C-4.26455357 207.41056775 -9.13547962 207.42815959 -14.00712395 207.46473122 C-15.84767771 207.47328316 -17.68831427 207.47136454 -19.52884102 207.45822716 C-34.16283169 207.36149301 -44.40480028 209.82140407 -55.32710266 220.24723816 C-56.46770224 216.82543942 -56.17701168 215.22234072 -55.58955383 211.69596863 C-55.40112411 210.54197067 -55.2126944 209.38797272 -55.01855469 208.19900513 C-54.80455521 206.9335939 -54.59055573 205.66818268 -54.37007141 204.36442566 C-54.14892615 203.02372763 -53.92850969 201.68290922 -53.70877075 200.34197998 C-53.23440899 197.45443043 -52.75588819 194.56761338 -52.27412415 191.68128967 C-51.10961236 184.70129646 -49.96741477 177.71763812 -48.82481766 170.73402977 C-48.56207251 169.12844036 -48.2990773 167.52289184 -48.03583908 165.91738319 C-45.56473778 150.84133784 -43.22290052 135.74765105 -40.92912292 120.64375305 C-37.4343421 97.64270553 -33.87099158 74.65165432 -30.17329407 51.68232727 C-29.69526905 48.71000087 -29.22346513 45.73679412 -28.75727844 42.7625885 C-28.1106067 38.63908916 -27.44257881 34.5193288 -26.77241516 30.39958191 C-26.58422211 29.18186096 -26.39602905 27.96414001 -26.20213318 26.70951843 C-24.83353058 18.45935068 -23.12791176 10.94969004 -16.38960266 5.37223816 C-15.74120422 4.81794128 -15.09280579 4.26364441 -14.42475891 3.69255066 C-9.70240526 0.43878743 -5.6812742 -0.00237711 0 0 Z " fill="#212D65" transform="translate(223.3271026611328,138.7527618408203)"/>
<path d="M0 0 C1.07169434 -0.00810448 1.07169434 -0.00810448 2.16503906 -0.01637268 C4.516703 -0.02883655 6.86713697 -0.012386 9.21875 0.00561523 C10.85872461 0.00546019 12.49869959 0.00397031 14.13867188 0.00120544 C17.57177984 -0.00017749 21.0044695 0.01236147 24.4375 0.03515625 C28.83253054 0.06354082 33.22686628 0.06080228 37.62194824 0.04806614 C41.00722156 0.04110275 44.39233499 0.04890573 47.77758789 0.06132317 C49.3978616 0.06583127 51.0181525 0.06618007 52.63842773 0.06225777 C54.90514151 0.05933899 57.17090632 0.07588297 59.4375 0.09765625 C61.37012695 0.10576073 61.37012695 0.10576073 63.34179688 0.11402893 C67.05775238 0.54062704 68.84725553 1.12243763 71.71875 3.50170898 C74.40649705 7.92096062 75.04892764 10.8126988 74.54537773 15.93447971 C74.3660283 17.78265315 74.3660283 17.78265315 74.18305564 19.66816342 C73.41692307 25.99374694 72.49906123 32.28611126 71.4927063 38.57737732 C71.26249747 40.04457299 71.03280062 41.51184906 70.80356491 42.97919708 C70.17841534 46.97105521 69.54599498 50.9617308 68.9122541 54.95223272 C68.22766764 59.27119381 67.54990925 63.59122726 66.87121582 67.91111755 C65.54329602 76.35596537 64.20893104 84.7997823 62.87206592 93.24321818 C61.78567327 100.10513477 60.70135705 106.96737639 59.61849594 113.82985115 C59.46407737 114.80841111 59.3096588 115.78697107 59.15056088 116.79518436 C58.83682668 118.78334062 58.52309341 120.77149703 58.20936106 122.75965358 C55.27182839 141.37305032 52.32654326 159.98521422 49.37892424 178.59701592 C46.68272271 195.62293654 43.99652013 212.6504172 41.31497003 229.67865097 C38.55905781 247.1784816 35.79631083 264.67722069 33.02619064 282.17480808 C31.47202062 291.99259692 29.92058635 301.81079942 28.37634659 311.63015556 C27.06270727 319.98272801 25.74264132 328.33425343 24.41423263 336.6844902 C23.73680547 340.94387306 23.0623592 345.20367144 22.39593124 349.46479034 C21.78571791 353.36596527 21.16698221 357.26568936 20.54145621 361.16443742 C20.31681315 362.57412258 20.09527874 363.98430743 19.87719096 365.39502161 C17.1385128 383.08194619 17.1385128 383.08194619 10.71875 389.50170898 C3.33915665 394.39000492 -3.99571819 394.07107685 -12.54296875 393.99780273 C-14.02171398 393.99795795 -15.50045961 393.99945058 -16.97920227 394.00221252 C-20.06485166 394.00359098 -23.15003307 393.99112794 -26.2355957 393.96826172 C-30.18328349 393.93980311 -34.13019913 393.94264183 -38.07794476 393.95535183 C-41.12608908 393.96231559 -44.17405586 393.95451313 -47.22217751 393.9420948 C-48.6777764 393.93759231 -50.13339442 393.93723297 -51.58899498 393.9411602 C-53.6227573 393.94408085 -55.65651571 393.92537516 -57.69018555 393.90576172 C-58.84520065 393.90035873 -60.00021576 393.89495575 -61.19023132 393.88938904 C-65.4062834 393.36060566 -68.00710203 391.73035167 -71.03125 388.81420898 C-74.53431956 382.3335303 -73.05270806 375.01660106 -71.91468811 368.08969116 C-71.75532239 367.064515 -71.59595667 366.03933883 -71.43176168 364.98309672 C-70.89603355 361.5544613 -70.34461034 358.12854018 -69.79321289 354.70239258 C-69.4045849 352.23635017 -69.0169302 349.77015421 -68.63017273 347.30381775 C-67.79259125 341.97688858 -66.94824341 336.65109917 -66.09779549 331.32621384 C-64.85051976 323.51644575 -63.61586455 315.7047211 -62.38402813 307.89250477 C-60.36169584 295.06914017 -58.32958393 282.24734529 -56.29125977 269.42651367 C-54.35205801 257.2290018 -52.41671826 245.03088995 -50.48754883 232.83178711 C-50.37073732 232.09314732 -50.25392581 231.35450754 -50.13357456 230.59348473 C-49.42815457 226.13263277 -48.72290303 221.67175419 -48.01771572 217.21086544 C-46.96419132 210.54648986 -45.91049214 203.88214193 -44.85653687 197.21783447 C-44.74114686 196.48818046 -44.62575686 195.75852644 -44.5068702 195.0067617 C-42.88492489 184.75148873 -41.25898749 174.4968553 -39.63002394 164.24269488 C-38.60062292 157.76238773 -37.57186412 151.28197863 -36.54345703 144.80151367 C-36.43183614 144.09817349 -36.32021525 143.39483331 -36.20521191 142.67017978 C-33.10128725 123.10869325 -30.03625828 103.54168277 -27.01689112 83.96695113 C-26.44608504 80.26850592 -25.87393159 76.57027196 -25.30124187 72.872118 C-25.02606534 71.09490405 -25.02606534 71.09490405 -24.74532968 69.2817868 C-24.38306773 66.94222092 -24.02075899 64.60266227 -23.65840119 62.26311123 C-22.62719071 55.59856636 -21.60575662 48.93261669 -20.59185362 42.26541805 C-19.97794257 38.24251916 -19.35536296 34.2209979 -18.7303555 30.19980955 C-18.44643479 28.36043585 -18.16631404 26.52047086 -17.89032626 24.67989016 C-17.51691787 22.19190199 -17.13036002 19.70630492 -16.74046326 17.22085571 C-16.58413086 16.14506541 -16.58413086 16.14506541 -16.42464024 15.04754198 C-15.5509827 9.62172087 -13.87530438 6.13055268 -10.04882812 2.2205658 C-6.49271956 0.01197722 -4.17280451 0.00053817 0 0 Z " fill="#169BD7" transform="translate(2477.28125,138.498291015625)"/>
</svg>
